<?xml version="1.0" encoding="UTF-8" standalone="no"?>
<!-- Created with Inkscape (http://www.inkscape.org/) -->

<svg
   xmlns:dc="http://purl.org/dc/elements/1.1/"
   xmlns:cc="http://creativecommons.org/ns#"
   xmlns:rdf="http://www.w3.org/1999/02/22-rdf-syntax-ns#"
   xmlns:svg="http://www.w3.org/2000/svg"
   xmlns="http://www.w3.org/2000/svg"
   xmlns:sodipodi="http://sodipodi.sourceforge.net/DTD/sodipodi-0.dtd"
   xmlns:inkscape="http://www.inkscape.org/namespaces/inkscape"
   version="1.1"
   id="svg1553"
   width="499.22079"
   height="112.90797"
   viewBox="0 0 499.22079 112.90797"
   sodipodi:docname="T--USP_SaoCarlos-Brazil--ifsc.svg"
   inkscape:version="0.92.2 5c3e80d, 2017-08-06">
  <metadata
     id="metadata1559">
    <rdf:RDF>
      <cc:Work
         rdf:about="">
        <dc:format>image/svg+xml</dc:format>
        <dc:type
           rdf:resource="http://purl.org/dc/dcmitype/StillImage" />
        <dc:title></dc:title>
      </cc:Work>
    </rdf:RDF>
  </metadata>
  <defs
     id="defs1557" />
  <sodipodi:namedview
     pagecolor="#ffffff"
     bordercolor="#666666"
     borderopacity="1"
     objecttolerance="10"
     gridtolerance="10"
     guidetolerance="10"
     inkscape:pageopacity="0"
     inkscape:pageshadow="2"
     inkscape:window-width="742"
     inkscape:window-height="480"
     id="namedview1555"
     showgrid="false"
     fit-margin-top="0"
     fit-margin-left="0"
     fit-margin-right="0"
     fit-margin-bottom="0"
     inkscape:zoom="0.3246493"
     inkscape:cx="240.41119"
     inkscape:cy="-140.95784"
     inkscape:window-x="0"
     inkscape:window-y="0"
     inkscape:window-maximized="0"
     inkscape:current-layer="svg1553" />
  <path
     style="fill:#ffffff;fill-opacity:1"
     d="m 66.357095,94.41383 c -15.012159,-10.17178 -26.937159,-18.82584 -26.5,-19.23125 1.040463,-0.9649 53.300744,-13.27999 53.883204,-12.69753 0.24563,0.24563 0.32623,11.69128 0.17912,25.43476 l -0.26749,24.98817 z m -33.964618,15.82976 c -0.945883,-1.5146 -1.240547,-14.2957 -1.240547,-53.80887 0,-44.0174 0.221127,-52.1148 1.468197,-53.76357 1.296702,-1.7144 1.471911,4.5708 1.5,53.80887 0.01749,30.6625 -0.08495,55.75 -0.22765,55.75 -0.142699,0 -0.817699,-0.89389 -1.5,-1.98643 z M 98.183729,56.98002 c -0.0183,-32.07093 0.3475,-55.75 0.86121,-55.75 0.49116,0 1.271291,0.7875 1.733631,1.75 1.02312,2.12995 1.78751,88.86651 0.87172,98.91461 -0.35915,3.94053 -1.27889,7.99053 -2.043871,9 -1.19328,1.57463 -1.3954,-6.08523 -1.42269,-53.91461 z m 55.968201,40.16666 c 0,-6.8197 0.31151,-8.98067 1.25,-8.67139 2.37415,0.7824 2.09185,17.75473 -0.29531,17.75473 -0.53618,0 -0.95469,-3.98186 -0.95469,-9.08334 z m 6,2.69071 v -6.39263 l 4.75,0.14263 4.75,0.14263 0.29772,6.249998 c 0.35391,7.429752 -1.33172,8.451562 -2.02581,1.228012 -0.54069,-5.6271 -1.02195,-6.47978 -3.18811,-5.64855 -0.91831,0.3524 -1.76274,2.538754 -2.17195,5.62355 -0.94205,7.10145 -2.41185,6.28141 -2.41185,-1.34564 z m 13.03248,4.45332 c -1.28233,-2.39605 0.26649,-3.6103 1.97666,-1.54968 1.52108,1.83279 4.99086,1.9648 4.99086,0.18988 0,-0.71451 -1.60117,-1.8781 -3.55815,-2.58576 -3.01467,-1.090118 -3.51108,-1.69358 -3.25,-3.95089 0.26373,-2.28016 0.83932,-2.70842 3.99275,-2.97071 2.8845,-0.23992 3.92358,0.14009 4.78518,1.75 0.85523,1.59801 0.80293,2.05647 -0.2346,2.05647 -0.73435,0 -1.84493,-0.50975 -2.46796,-1.13279 -0.63977,-0.63977 -1.92368,-0.81009 -2.95,-0.39135 -1.48842,0.60728 -1.04825,1.07622 2.43278,2.591778 4.36255,1.899352 5.46018,4.322182 3.05,6.732362 -1.95677,1.95677 -7.57832,1.48273 -8.76752,-0.73931 z m 12.53523,-0.31069 c -1.0366,-4.958245 -1.22931,-10.36915 -0.44518,-12.5 1.01138,-2.74843 2.87747,-2.96461 2.87747,-0.33334 0,1.05417 0.5625,2.17917 1.25,2.5 1,0.46667 1,0.7 0,1.16667 -1.48407,0.69257 -1.68971,8.02688 -0.25,8.91667 1.68476,1.04124 1.11237,2.5 -0.98095,2.5 -1.24827,0 -2.15493,-0.83219 -2.45134,-2.25 z m 6.43229,-4.250002 c 0,-3.666668 0.4359,-6.499998 1,-6.499998 0.5641,0 1,2.83333 1,6.499998 0,3.666672 -0.4359,6.500002 -1,6.500002 -0.5641,0 -1,-2.83333 -1,-6.500002 z m 6.47205,5.250002 c -1.37965,-3.70727 -2.18099,-11.38535 -1.40208,-13.43404 1.06556,-2.80265 2.93003,-3.05673 2.93003,-0.3993 0,1.05417 0.5625,2.17917 1.25,2.5 1,0.46667 1,0.7 0,1.16667 -1.48407,0.69257 -1.68971,8.02688 -0.25,8.91667 0.55,0.33992 1,1.04148 1,1.55902 0,1.40055 -2.98918,1.13873 -3.52795,-0.30902 z m 6.71348,0.0355 c -1.65467,-1.65467 -1.59639,-12.0876 0.0645,-11.54026 0.72872,0.24015 1.37605,2.56853 1.55226,5.583331 0.21303,3.645229 0.71911,5.171429 1.71479,5.171429 1.97427,0 3.48292,-3.22019 3.48292,-7.43426 0,-1.96116 0.45,-3.56574 1,-3.56574 0.56145,0 1,2.77869 1,6.336064 v 6.336066 l -3.81447,0.14947 c -2.09796,0.0822 -4.34796,-0.38403 -5,-1.03607 z m 13.48114,0.5478 c -0.36667,-0.36663 -0.66667,-2.80413 -0.66667,-5.41664 0,-2.82222 -0.50731,-4.98674 -1.25,-5.33333 -1,-0.46667 -1,-0.7 0,-1.16667 0.6875,-0.32083 1.25,-1.44583 1.25,-2.5 0,-1.05416 0.45,-1.91666 1,-1.91666 0.55,0 1,0.8625 1,1.91666 0,1.05417 0.5625,2.17917 1.25,2.5 1,0.46667 1,0.7 0,1.16667 -1.48407,0.69257 -1.68971,8.02688 -0.25,8.91667 0.55,0.33992 1,1.04148 1,1.55902 0,1.07834 -2.33698,1.27066 -3.33333,0.27431 z m 6.53617,-0.58892 c -3.80883,-4.58933 -1.52496,-11.74438 3.74878,-11.74438 1.59804,0 3.61267,0.70714 4.47695,1.57143 2.14979,2.14978 2.00293,7.7281 -0.25731,9.77358 -2.16274,1.95726 -6.49529,2.17441 -7.96842,0.3994 z m 6.68014,-2.95711 c 1.65885,-4.484289 -1.28751,-8.35631 -4.39571,-5.77673 -2.81964,2.340087 -1.23223,7.98943 2.24495,7.98943 0.73273,0 1.70057,-0.99572 2.15076,-2.2127 z m 13.11972,2.71595 c -1.67079,-2.01318 -1.67394,-7.98953 -0.005,-10.00016 0.89285,-1.07581 2.39118,-1.52629 4.19569,-1.26144 2.51076,0.36857 2.80661,0.11404 2.80661,-2.41482 0,-1.84605 0.52042,-2.8268 1.5,-2.8268 1.21947,0 1.5,1.6425 1.5,8.78251 v 8.78252 l -4.39915,0.19146 c -2.81414,0.12248 -4.83116,-0.32906 -5.59815,-1.25324 z m 5.7973,-1.70322 c 2.99226,-2.99226 -0.13168,-9.42947 -3.3,-6.8 -2.45796,2.039922 -1.34044,8 1.5,8 0.33,0 1.14,-0.54 1.8,-1.2 z m 7.77143,1.62857 c -0.86429,-0.86428 -1.57143,-3.08214 -1.57143,-4.928572 0,-4.092938 2.20301,-6.499998 5.94898,-6.499998 3.0198,0 4.4075,1.19934 5.49602,4.749998 0.64551,2.105602 0.39665,2.250002 -3.87761,2.250002 -3.43484,0 -4.56739,0.37973 -4.56739,1.53138 0,2.3617 2.56265,2.80129 5.41921,0.9296 2.09511,-1.37277 2.58079,-1.42471 2.58079,-0.27599 0,3.70241 -6.43782,5.23433 -9.42857,2.24358 z m 6.3204,-7.96532 c -0.86939,-0.86938 -2.26525,-1.25719 -3.21429,-0.89301 -2.76482,1.06097 -1.89911,2.429758 1.53675,2.429758 2.8913,0 3.05986,-0.154419 1.67754,-1.536748 z m 13.10817,0.53675 v -9 h 6 c 4.66667,0 6,0.33333 6,1.5 0,1.11111 -1.16667,1.5 -4.5,1.5 -3.83333,0 -4.5,0.29629 -4.5,2 0,1.66666 0.66667,2 4,2 2.88889,0 4,0.41666 4,1.5 0,1.083331 -1.11111,1.499998 -4,1.499998 h -4 v 4.000002 c 0,2.88889 -0.41667,4 -1.5,4 -1.22222,0 -1.5,-1.66667 -1.5,-9 z m 15,2.583331 c 0,-5.275391 0.30749,-6.583331 1.54772,-6.583331 1.26191,0 1.49274,1.1395 1.25,6.170629 -0.18434,3.820751 -0.77374,6.327801 -1.54772,6.583331 -0.91521,0.30217 -1.25,-1.35052 -1.25,-6.170629 z m 6.03635,4.960469 c -1.90929,-2.30056 -0.18722,-3.99031 2.02568,-1.98766 1.02491,0.92753 2.55524,1.42097 3.40072,1.09653 2.46866,-0.94731 1.77824,-2.44083 -1.45679,-3.15136 -6.23154,-1.368679 -5.77322,-7.50131 0.56061,-7.50131 2.22867,0 3.71088,0.55945 4.08835,1.54313 0.86383,2.25109 -0.16508,2.779729 -2.53258,1.3012 -1.53437,-0.95823 -2.36432,-1.00235 -3.19673,-0.16994 -0.83241,0.8324 -0.19089,1.46183 2.47094,2.424362 3.9303,1.421215 5.4516,4.174368 3.56362,6.449238 -1.55898,1.87845 -7.36362,1.87573 -8.92382,-0.004 z m 11.96365,-5.043802 c 0,-5.111108 0.32051,-6.499998 1.5,-6.499998 1.17949,0 1.5,1.38889 1.5,6.499998 0,5.111112 -0.32051,6.500002 -1.5,6.500002 -1.17949,0 -1.5,-1.38889 -1.5,-6.500002 z m 6.06483,5.078112 c -1.61296,-1.94349 -1.63912,-8.18121 -0.0424,-10.10516 1.82627,-2.20052 7.68118,-1.89527 8.94508,0.46636 1.28233,2.396047 -0.26649,3.610303 -1.97666,1.54968 -1.69868,-2.04679 -3.71912,-1.86525 -4.95568,0.44527 -1.36014,2.541451 -1.30891,3.30914 0.3745,5.61134 1.38469,1.89367 1.44686,1.89421 3.50613,0.0306 2.39026,-2.16315 4.04877,-1.33539 2.44797,1.22177 -1.40877,2.25043 -6.66839,2.74486 -8.29895,0.78015 z m 11.30738,-0.0505 c -1.04958,-2.73515 0.18614,-5.038614 3.23357,-6.027582 3.81906,-1.239388 4.63875,-2.894258 1.64422,-3.319548 -1.2375,-0.17576 -2.25,0.16174 -2.25,0.75 0,0.58822 -0.675,1.06952 -1.5,1.06952 -0.825,0 -1.5,-0.36 -1.5,-0.8 0,-3.28573 8.25695,-4.50334 9.83285,-1.45 0.49676,0.9625 1.12355,3.809678 1.39285,6.32707 l 0.48964,4.57706 -5.40089,0.1421 c -3.82765,0.10071 -5.55858,-0.26884 -5.94224,-1.26865 z m 6.64785,-2.05175 c 0.69572,-0.83829 0.97772,-1.81139 0.62667,-2.16244 -0.98183,-0.981825 -5.84252,1.56079 -5.1441,2.69086 0.90584,1.46569 3.07284,1.21221 4.51743,-0.52842 z m 14.54175,1.94312 c -1.9955,-1.9955 -2.04172,-8.77577 -0.071,-10.41135 0.81996,-0.68051 2.84496,-1.03855 4.5,-0.79564 2.74006,0.40212 3.00919,0.1888 3.00919,-2.38519 0,-1.55474 0.45,-2.8268 1,-2.8268 0.59122,0 1,3.61202 1,8.83606 v 8.83607 l -3.93819,0.15432 c -2.4136,0.0946 -4.54282,-0.45031 -5.5,-1.4075 z m 5.26237,-1.28913 c 0.79637,-0.50491 1.19497,-2.19283 1,-4.234687 -0.24301,-2.545113 -0.79625,-3.395163 -2.20963,-3.395163 -2.33153,0 -3.63679,3.241509 -2.5167,6.25 0.90072,2.41925 1.64955,2.69654 3.72633,1.37982 z m 7.73252,0.64767 c -3.21552,-4.590829 -0.67335,-10.77752 4.42858,-10.77752 3.31089,0 6.01472,2.27978 6.01472,5.071427 0,1.619047 -0.72222,1.928573 -4.5,1.928573 -4.67581,0 -5.55666,0.87816 -3.00501,2.99585 1.20257,0.99804 1.96257,0.93437 3.88539,-0.32551 2.95448,-1.93585 4.20951,-0.97965 1.96681,1.49851 -2.31357,2.55647 -6.86776,2.35371 -8.79049,-0.39136 z m 7.4433,-6.67053 c 0,-1.73153 -3.36166,-2.17391 -4.89183,-0.64374 -1.38232,1.382329 -1.21376,1.536748 1.67754,1.536748 1.76786,0 3.21429,-0.401855 3.21429,-0.893008 z m 13,6.89301 c -1.1,-1.1 -2,-2.45 -2,-3 0,-1.614728 1.84703,-1.15297 4,1 2.34469,2.34469 3.92797,2.50437 6.46165,0.6517 2.52205,-1.84417 1.41557,-3.146173 -3.95048,-4.648575 -5.34039,-1.495215 -6.95104,-4.754615 -3.9747,-8.043425 3.26539,-3.60821 11.46353,-1.55642 11.46353,2.86904 0,1.62948 -0.66539,1.47852 -3.8451,-0.87234 -1.6837,-1.24481 -3.44598,-1.78194 -4.5086,-1.37417 -2.92304,1.12168 -1.38709,3.6718 3.11516,5.17205 5.37427,1.79084 6.99691,4.43936 4.78656,7.81278 -2.08448,3.18132 -8.55699,3.42397 -11.54802,0.43294 z m 15.14012,0.74012 c -2.55267,-2.55267 0.20037,-6.740122 4.43131,-6.740122 1.49206,0 2.42857,-0.578431 2.42857,-1.499998 0,-1.78608 -3.10816,-1.99184 -4.78333,-0.31667 -1.66823,1.668227 -2.7707,0.18916 -1.23673,-1.65917 1.52019,-1.83171 7.92091,-2.03874 8.47615,-0.27416 0.21633,0.6875 0.57894,3.537407 0.80579,6.33313 l 0.41247,5.08313 -4.69706,0.10699 c -2.58337,0.0588 -5.2101,-0.40606 -5.83717,-1.03313 z m 6.5148,-2.28325 c 0.32569,-0.84872 0.34548,-1.78981 0.044,-2.0913 -0.99495,-0.994956 -4.6989,0.74065 -4.6989,2.20182 0,1.92731 3.90854,1.83452 4.65492,-0.11052 z m 7.91651,1.9717 c -0.86429,-0.86428 -1.57143,-3.08214 -1.57143,-4.928572 0,-4.092938 2.20301,-6.499998 5.94898,-6.499998 3.59105,0 5.22081,2.00627 5.35065,6.586812 0.16019,5.651468 -5.90155,8.668418 -9.7282,4.841758 z m 6.58147,-2.8648 c 2.05251,-4.50478 -2.04258,-8.8027 -4.79751,-5.03512 -1.76844,2.418485 -1.71154,3.97234 0.21604,5.89992 2.17977,2.17977 3.28973,1.97026 4.58147,-0.8648 z m 13.96055,1.85333 c -4.86162,-6.180546 -1.15545,-15.4171 6.18611,-15.4171 3.34824,0 6.70044,2.4158 6.70044,4.82874 0,1.62866 -1.51311,1.46285 -3,-0.32874 -1.49232,-1.79814 -6.12373,-1.97627 -7.8,-0.3 -2.11231,2.11231 -1.4753,8.49376 1.02251,10.2433 2.97135,2.08121 3.46658,1.99522 6.33517,-1.10004 2.97124,-3.206026 4.4769,-2.281707 2.38384,1.46344 -1.19237,2.13353 -2.35832,2.75606 -5.60992,2.99525 -3.45508,0.25417 -4.43919,-0.12327 -6.21815,-2.38485 z m 16.02667,1.32302 c -2.83513,-2.83513 -0.0576,-6.740122 4.79414,-6.740122 1.16955,0 2.06574,-0.650754 2.06574,-1.499998 0,-1.78608 -3.10816,-1.99184 -4.78333,-0.31667 -1.47416,1.474155 -2.66591,0.42974 -1.87159,-1.6402 0.72449,-1.888 6.96195,-2.10551 8.40599,-0.29313 0.54778,0.6875 1.20461,3.537407 1.45962,6.33313 l 0.46366,5.08313 -4.69706,0.10699 c -2.58337,0.0588 -5.2101,-0.40606 -5.83717,-1.03313 z m 5.27809,-1.34711 c 1.67879,-0.64421 2.21638,-3.39301 0.66358,-3.39301 -2.05149,0 -4.08179,1.29673 -4.08179,2.60699 0,1.51232 0.9539,1.73167 3.41821,0.78602 z m 7.58179,-3.793012 V 93.43002 h 3.5 c 3.96659,0 4.40637,0.75287 1.5,2.56792 -1.51776,0.94786 -2,2.332033 -2,5.74055 0,3.3258 -0.38931,4.49153 -1.5,4.49153 -1.17708,0 -1.5,-1.37778 -1.5,-6.400002 z m 8.42165,5.056422 c -1.02871,-2.68077 0.0484,-15.98653 1.32835,-16.40976 0.93859,-0.31036 1.25,1.84956 1.25,8.67 0,5.57316 -0.39857,9.08334 -1.03138,9.08334 -0.56727,0 -1.2634,-0.60461 -1.54697,-1.34358 z m 6.13505,-0.87893 c -3.18542,-4.547829 -0.67389,-10.77749 4.34502,-10.77749 3.54171,0 6.09828,2.79782 6.09828,6.673751 0,5.806919 -7.25383,8.657339 -10.4433,4.103739 z m 6.26748,-0.64767 c 2.04901,-1.2991 1.10721,-7.53163 -1.20435,-7.97003 -3.23107,-0.61278 -5.0211,5.03894 -2.41983,7.64021 1.41073,1.41073 1.85548,1.45121 3.62418,0.32982 z m 6.73806,1.28956 c -2.14622,-2.14622 -0.86692,-4.00509 1.36578,-1.98452 2.09755,1.89826 5.07198,2.05427 5.07198,0.26603 0,-0.71451 -1.575,-1.86864 -3.5,-2.56473 -3.6248,-1.310746 -4.54652,-3.68965 -2.3,-5.93616 1.68586,-1.68587 6.311,-1.49414 7.82006,0.32416 1.82944,2.20435 0.39027,3.033397 -2.54177,1.46422 -1.7031,-0.91147 -2.84721,-1.01946 -3.53318,-0.33349 -0.68597,0.68597 0.29202,1.527688 3.0202,2.599348 4.1701,1.638062 5.24962,4.130832 2.83469,6.545762 -1.70248,1.70248 -6.37034,1.4868 -8.23776,-0.38062 z M 25.187114,98.295759 C 24.52106,97.05123 24.163271,81.98555 24.183733,56.04576 c 0.02671,-33.86482 0.26673,-40.62634 1.5,-42.25687 1.298064,-1.7162 1.468197,3.17969 1.468197,42.25 0,24.30512 -0.209167,44.19113 -0.464816,44.19113 -0.255649,0 -0.930649,-0.870418 -1.5,-1.934261 z M 105.18373,56.1943 c 0.027,-37.7687 0.23718,-44.19346 1.39569,-42.66581 1.94127,2.55984 2.98198,29.69089 2.2859,59.59302 -0.47315,20.32512 -0.83001,24.653698 -2.1406,25.964287 -1.43039,1.430393 -1.56991,-2.453057 -1.54099,-42.891497 z m 187.9682,35.23572 c 0,-1.302 2.2865,-3.2 3.85499,-3.2 1.15499,0 1.08179,0.41237 -0.35499,2 -1.8592,2.05439 -3.5,2.61695 -3.5,1.2 z m -101,-1.7 c 0,-0.825 0.45,-1.5 1,-1.5 0.55,0 1,0.675 1,1.5 0,0.825 -0.45,1.5 -1,1.5 -0.55,0 -1,-0.675 -1,-1.5 z m 119,-0.0833 c 0,-0.87084 0.53437,-1.40521 1.1875,-1.1875 1.85422,0.61807 2.16176,2.77083 0.39583,2.77083 -0.87083,0 -1.58333,-0.7125 -1.58333,-1.58334 z m 88.22389,0.41166 c 0.25136,-0.75409 1.98438,-1.30991 4.10532,-1.31665 4.77946,-0.0152 4.14844,1.89343 -0.76206,2.30498 -2.76123,0.23142 -3.66116,-0.0346 -3.34326,-0.98833 z M 18.392477,87.24362 c -1.962248,-3.14206 -1.755911,-58.94994 0.22765,-61.57244 1.300752,-1.71975 1.471823,1.79394 1.5,30.80887 0.01749,18.0125 -0.08495,32.75 -0.22765,32.75 -0.142699,0 -0.817699,-0.8939 -1.5,-1.98643 z M 112.15193,56.01576 c 0,-30.67961 0.0834,-32.131 1.75,-30.46601 1.56139,1.55985 1.78341,4.59212 2.05997,28.13473 0.30048,25.5797 -0.43881,34.54557 -2.84851,34.54557 -0.59538,0 -0.96146,-12.26573 -0.96146,-32.21429 z m 7,0.72251 c 0,-20.89218 0.0833,-21.85346 1.75,-20.18679 1.53495,1.53494 1.75,3.92687 1.75,19.46428 0,15.26218 -0.24224,18.05655 -1.75,20.18679 -1.68862,2.38579 -1.75,1.70314 -1.75,-19.46428 z M 11.187114,75.29579 c -0.603145,-1.12699 -1.021911,-9.16108 -1.003381,-19.25 0.02505,-13.6396 0.343502,-17.72785 1.5,-19.25687 1.305808,-1.72643 1.468197,0.40271 1.468197,19.25 0,11.65512 -0.209167,21.19113 -0.464816,21.19113 -0.255649,0 -0.930649,-0.87042 -1.5,-1.93426 z M 153.60119,72.95838 c -0.26839,-0.69941 -0.36677,-11.61191 -0.21862,-24.25 l 0.26936,-22.97836 27.25,-0.26607 c 22.80095,-0.22264 27.25,-0.0378 27.25,1.13216 0,1.18698 0.56656,1.19604 3.75,0.06 4.49725,-1.60494 24.51209,-1.89134 27.31574,-0.39087 1.33333,0.71357 1.93426,0.71357 1.93426,0 0,-0.6782 6.72482,-1.03519 19.5,-1.03519 h 19.5 v 9.5 9.5 h -8.5 -8.5 v 5.5 5.5 h 8.5 8.5 v 9.48886 9.48886 l -33.6385,-0.0348 c -35.28811,-0.0365 -38.15889,-0.36659 -39.7731,-4.57316 -1.08116,-2.81745 0.88556,-3.57139 3.64801,-1.39844 2.27768,1.79162 4.02129,2.02689 14.92132,2.01336 6.78825,-0.008 12.96622,-0.41045 13.72882,-0.89341 0.7626,-0.48295 1.60579,-3.15974 1.87374,-5.94841 l 0.4872,-5.07032 -7.04885,-7.77405 c -5.66529,-6.24814 -6.82009,-8.04969 -5.88337,-9.17837 0.95618,-1.15213 2.55897,0.096 8.9251,6.94989 l 7.75963,8.3542 v 6.78789 6.7879 h 15.5 15.5 v -5.5 -5.5 h -8.5 -8.5 v -9.5 -9.5 h 8.5 8.5 v -5.5 -5.5 h -15.5 c -14.83333,0 -15.5,0.086 -15.5,2 0,2.67421 -3.13603,2.61325 -5.59501,-0.10876 -1.78878,-1.98011 -2.68645,-2.08451 -14.71537,-1.71132 -14.44002,0.448 -14.64966,0.5601 -14.67431,7.8469 -0.0145,4.28375 0.36056,4.89981 6.98469,11.47318 3.85,3.8205 7,7.49437 7,8.16416 0,3.40461 -2.83543,1.76915 -9.64995,-5.56602 l -7.52333,-8.09814 h -8.41336 c -7.74669,0 -8.41336,-0.15848 -8.41336,-2 0,-1.83334 0.66667,-2 8,-2 h 8 v -3.41822 c 0,-1.88001 0.27314,-4.13001 0.60699,-5 0.53801,-1.40203 -1.22338,-1.58178 -15.5,-1.58178 h -16.10699 v 20.5 20.5 h 6.5 6.5 l 0.0137,-4.75 c 0.0267,-9.31214 -0.0445,-9.25 10.60293,-9.25 8.7167,0 9.38337,0.14209 9.38337,2 0,1.83333 -0.66667,2 -8,2 h -8 v 7 7 h -19.03138 c -14.47535,0 -19.14821,-0.30443 -19.51936,-1.27164 z m 17.55074,-23.22836 v -20.5 h -7 -7 v 20.5 20.5 h 7 7 z M 296.8186,73.56335 c -0.36667,-0.36667 -0.66667,-4.86667 -0.66667,-10 v -9.33333 h 5.91821 c 7.39091,0 8.79089,0.53679 10.61878,4.07152 2.66256,5.14883 0.93673,12.53422 -3.4816,14.89883 -2.13273,1.1414 -11.34052,1.41118 -12.38872,0.36298 z m 10.7619,-4.90476 c 1.85518,-1.85518 2.08305,-7.51695 0.37143,-9.22857 -0.66,-0.66 -2.46,-1.2 -4,-1.2 -2.75556,0 -2.8,0.0952 -2.8,6 0,5.68627 0.12698,6 2.42857,6 1.33572,0 3.13572,-0.70715 4,-1.57143 z m 9.2381,4.90476 c -0.36667,-0.36667 -0.66667,-4.86667 -0.66667,-10 v -9.33333 h 8 c 7.33333,0 8,0.16666 8,2 0,1.75757 -0.66667,2 -5.5,2 -4.22222,0 -5.5,0.34848 -5.5,1.5 0,1.13333 1.22222,1.5 5,1.5 4.33333,0 5,0.26666 5,2 0,1.73333 -0.66667,2 -5,2 -4.66667,0 -5,0.16666 -5,2.5 0,2.36363 0.3,2.5 5.5,2.5 4.83333,0 5.5,0.24242 5.5,2 0,1.81818 -0.66667,2 -7.33333,2 -4.03334,0 -7.63334,-0.3 -8,-0.66667 z m 27.55584,-0.89004 c -2.7677,-1.93857 -2.97985,-5.44329 -0.3295,-5.44329 1.04116,0 2.16306,0.70374 2.49313,1.56387 0.41025,1.0691 1.60614,1.46457 3.77997,1.25 4.79244,-0.47304 4.60462,-2.53116 -0.35143,-3.85094 -5.18188,-1.37992 -7.82008,-3.53392 -7.79937,-6.36792 0.0279,-3.82049 3.5889,-6.59501 8.4644,-6.59501 2.57436,0 7.52029,3.91617 7.52029,5.95454 0,1.59472 -3.94302,1.24529 -5.69281,-0.50449 -0.85247,-0.85247 -2.28283,-1.40881 -3.17857,-1.23631 -2.96454,0.57092 -1.69032,3.06364 2.26629,4.43345 5.29494,1.83315 6.60509,3.1063 6.60509,6.41855 0,3.54992 -3.21433,5.93426 -8,5.93426 -1.95524,0 -4.55512,-0.70052 -5.77749,-1.55671 z M 360.14,73.48002 c -0.007,-0.4125 1.41687,-4.9125 3.16317,-10 2.96306,-8.63228 3.3574,-9.25 5.90494,-9.25 1.6619,0 3.00843,0.68462 3.44197,1.75 1.89764,4.66334 5.50185,15.75084 5.50185,16.92515 0,2.15259 -4.12541,1.56127 -4.71025,-0.67515 -0.40624,-1.55346 -1.36402,-2 -4.28975,-2 -2.92573,0 -3.88351,0.44654 -4.28975,2 -0.49063,1.87616 -4.69452,2.98897 -4.72218,1.25 z m 10.94164,-8.5 c -0.0387,-0.6875 -0.43909,-2.15 -0.88986,-3.25 -0.76153,-1.85833 -0.89822,-1.80058 -1.92972,0.8151 -1.44821,3.6724 -1.44519,3.6849 0.88987,3.6849 1.1,0 1.96837,-0.5625 1.92971,-1.25 z m 11.56422,6.99843 c -5.64871,-4.85881 -3.91945,-15.4628 2.88799,-17.70946 8.24526,-2.72118 13.44391,2.47336 12.76888,12.75878 -0.41629,6.34303 -10.3767,9.4925 -15.65687,4.95068 z m 10.27994,-4.9498 c 2.74484,-5.75396 -1.5898,-11.45971 -6.34093,-8.34665 -2.6583,1.74179 -3.27455,6.10693 -1.36568,9.67369 1.55678,2.90886 6.05547,2.13421 7.70661,-1.32704 z m 16.22613,-2.79863 v -10 h 6.47695 c 5.72887,0 6.65812,0.27651 8.04563,2.39411 3.05041,4.65552 -0.73388,10.60589 -6.74509,10.60589 -2.50761,0 -2.77749,0.34008 -2.77749,3.5 0,3.06666 -0.30952,3.5 -2.5,3.5 h -2.5 z m 9.89572,-1.91439 c 2.10714,-1.33423 0.51492,-4.08561 -2.36434,-4.08561 -2.03347,0 -2.53138,0.49173 -2.53138,2.5 0,2.62193 2.15618,3.32027 4.89572,1.58561 z m 5.10428,10.51608 c 0,-0.76907 1.41007,-5.26907 3.13349,-10 2.89105,-7.93617 3.34469,-8.60169 5.86316,-8.60169 2.52689,0 2.96268,0.65141 5.8665,8.76926 1.72527,4.82309 3.13685,9.32309 3.13685,10 0,2.08542 -4.14057,1.4092 -4.71025,-0.76926 -0.40624,-1.55346 -1.36402,-2 -4.28975,-2 -2.92573,0 -3.88351,0.44654 -4.28975,2 -0.59657,2.2813 -4.71025,2.80678 -4.71025,0.60169 z m 10.44316,-8.85169 c -0.78383,-2.55 -1.27489,-3.26992 -1.81893,-2.66667 -0.20668,0.22917 -0.687,1.42917 -1.06739,2.66667 -0.56764,1.84666 -0.30894,2.25 1.44316,2.25 1.7521,0 2.0108,-0.40334 1.44316,-2.25 z m 10.62942,7.61514 c -1.67067,-2.12392 -2.07258,-4.06308 -2.07258,-10 0,-7.15587 0.0698,-7.36514 2.45794,-7.36514 2.37402,0 2.4679,0.26458 2.75,7.75 l 0.29206,7.75 h 3 3 l 0.29206,-7.75 c 0.2821,-7.48542 0.37598,-7.75 2.75,-7.75 2.3881,0 2.45794,0.20927 2.45794,7.36514 0,9.62401 -2.02552,12.63486 -8.5,12.63486 -3.51353,0 -4.75524,-0.50903 -6.42742,-2.63486 z m 17.92742,-7.36514 v -10 h 2.5 c 2.45833,0 2.5,0.13333 2.5,8 v 8 h 5 c 4.33333,0 5,0.26666 5,2 0,1.82222 -0.66667,2 -7.5,2 h -7.5 z m 20.26137,8.47051 c -1.201,-0.84121 -2.63835,-3.17629 -3.1941,-5.18907 -2.59083,-9.3832 4.684,-16.50134 13.21965,-12.93492 6.30657,2.63505 7.5408,13.28404 2.04104,17.61015 -3.10223,2.44021 -8.96017,2.68967 -12.06659,0.51384 z m 9.1672,-4.04194 c 2.39012,-2.39012 2.02007,-8.00092 -0.65108,-9.87187 -2.86015,-2.00333 -3.36998,-1.96421 -5.77749,0.4433 -3.73059,3.73059 -1.74803,11 3,11 1.02143,0 2.56429,-0.70715 3.42857,-1.57143 z M 2.8259652,61.21269 0,56.16498 2.8259652,51.4475 l 2.825965,-4.71748 0.303422,5.28352 c 0.166882,2.90594 0.166882,7.30027 0,9.76519 L 5.6519302,66.2604 Z M 126.15193,56.78903 c 0,-5.25745 0.33827,-9.55901 0.75172,-9.55901 0.41344,0 1.84596,2.06267 3.18337,4.58372 l 2.43167,4.58373 -2.43338,4.49796 c -1.33836,2.47388 -2.77088,4.71276 -3.18338,4.97529 -0.4125,0.26253 -0.75,-3.82423 -0.75,-9.08169 z m 238,-5.68772 c 0,-1.40317 2.48455,-2.37047 6.25,-2.43328 2.46002,-0.041 3.75,0.38885 3.75,1.24971 0,1.50554 -0.0582,1.52336 -5.75,1.76007 -2.3375,0.0972 -4.25,-0.16221 -4.25,-0.5765 z m -326,-25.4863 V 0 l 2.75,1.78414 c 5.73006,3.71755 50.792069,34.70248 51.683329,35.5378 0.51334,0.48111 0.73596,1.07212 0.49472,1.31336 -0.57248,0.57248 -51.645669,12.59472 -53.505198,12.59472 -1.193436,0 -1.422851,-4.13007 -1.422851,-25.61501 z m 260.9746,17.79552 c -1.9877,-1.60954 -2.2601,-2.79223 -2.36078,-10.25 -0.10764,-7.973 0.006,-8.44755 2.09297,-8.7444 2.09126,-0.29746 2.22213,0.0897 2.5,7.3949 0.22388,5.88601 0.68718,7.95638 1.95939,8.7559 3.26659,2.05289 4.83382,-0.85193 4.83382,-8.95936 0,-7.28029 0.0343,-7.37755 2.60262,-7.37755 h 2.60261 l -0.35271,8.58843 c -0.31176,7.59137 -0.62677,8.81034 -2.7134,10.5 -2.98172,2.41445 -8.24292,2.45785 -11.16452,0.0921 z m 17.7129,1.17365 c -0.37813,-0.37812 -0.6875,-5.1125 -0.6875,-10.52083 0,-9.72295 0.027,-9.83333 2.4088,-9.83333 1.90879,0 3.14702,1.29736 5.96514,6.25 l 3.55634,6.25 0.0349,-6.31955 c 0.0329,-5.97322 0.15817,-6.30204 2.28486,-6 2.16203,0.30705 2.25,0.71053 2.25,10.31955 0,9.26955 -0.14749,10.02113 -2.01923,10.28931 -1.56,0.22351 -2.92455,-1.25475 -6,-6.5 l -3.98081,-6.78931 -0.5,6.42189 c -0.46129,5.92473 -1.60302,8.14176 -3.3125,6.43227 z m 19.3125,-9.85416 c 0,-9.83334 0.12698,-10.5 2,-10.5 1.87302,0 2,0.66666 2,10.5 0,9.83333 -0.12698,10.5 -2,10.5 -1.87302,0 -2,-0.66667 -2,-10.5 z m 13.40492,9.73468 c -1.35944,-0.91204 -7.42911,-18.87716 -6.6433,-19.66297 0.31444,-0.31444 1.36478,-0.57171 2.33409,-0.57171 1.27194,0 2.19954,1.5038 3.33333,5.4039 0.86403,2.97215 1.57096,5.98715 1.57096,6.7 0,2.64732 1.81241,-0.72264 3.41722,-6.3539 1.28306,-4.50223 2.06659,-5.75 3.61071,-5.75 2.59841,0 2.51725,0.85861 -1.11039,11.74752 -2.92853,8.7904 -3.99298,10.17758 -6.51262,8.48716 z m 14.84508,0.0596 c -2.15319,-0.41472 -2.25,-0.86064 -2.25,-10.36381 v -9.93045 h 7.5 c 6.76626,0 7.5,0.19055 7.5,1.94774 0,1.64409 -0.81699,1.99486 -5.24063,2.25 -4.05033,0.2336 -5.3162,0.69974 -5.57333,2.05226 -0.28144,1.48042 0.44883,1.75 4.74064,1.75 4.40665,0 5.07332,0.26281 5.07332,2 0,1.73333 -0.66667,2 -5,2 -4.33333,0 -5,0.26666 -5,2 0,1.75757 0.66667,2 5.5,2 5.2,0 5.5,0.13636 5.5,2.5 0,2.3665 -0.28035,2.49273 -5.25,2.36382 -2.8875,-0.0749 -6.2625,-0.3312 -7.5,-0.56956 z m 15.75,-9.79426 v -10.5 h 3.875 c 6.3967,0 10.17534,1.14719 11.7638,3.57148 1.12882,1.72281 1.23982,2.78679 0.44556,4.2709 -0.69831,1.3048 -0.75093,3.61904 -0.15483,6.8098 0.64668,3.46151 0.57195,5.04362 -0.26329,5.57431 -1.98494,1.26118 -3.12938,0.26779 -4.09261,-3.55244 -0.79319,-3.1459 -1.33226,-3.67405 -3.75,-3.67405 -2.54338,0 -2.82363,0.33676 -2.82363,3.39301 0,3.1586 -1.28327,4.60699 -4.08179,4.60699 -0.50501,0 -0.91821,-4.725 -0.91821,-10.5 z m 11.6771,-3.10093 c 0.71792,-1.87086 -1.23302,-3.36202 -4.4271,-3.38376 -1.73742,-0.0118 -2.25,0.55422 -2.25,2.48469 0,2.11686 0.46457,2.5 3.03138,2.5 1.85701,0 3.26939,-0.62021 3.64572,-1.60093 z m 9.95776,11.52835 c -1.44917,-1.13992 -2.63486,-2.71492 -2.63486,-3.5 0,-1.91875 2.91977,-1.81001 5.13096,0.1911 1.2002,1.08616 2.64737,1.40295 4.39978,0.96312 3.70698,-0.93039 2.56247,-2.8232 -2.60675,-4.3111 -6.84044,-1.96895 -8.90963,-6.2849 -4.92399,-10.27054 2.91542,-2.91543 8.99531,-2.69835 11.93045,0.42597 2.28174,2.4288 2.10961,4.57403 -0.36702,4.57403 -0.7252,0 -1.87874,-0.675 -2.56343,-1.5 -1.56715,-1.8883 -6,-1.98085 -6,-0.12527 0,0.7561 2.3625,2.22136 5.25,3.25613 4.91224,1.76036 5.2696,2.11615 5.5547,5.53025 0.2396,2.86924 -0.18185,3.98964 -1.97251,5.24387 -3.14711,2.20432 -8.05391,1.99505 -11.19733,-0.47756 z m 17.03181,1.40591 c -0.36667,-0.36667 -0.66667,-5.09167 -0.66667,-10.5 0,-9.16667 0.13559,-9.83333 2,-9.83333 1.87302,0 2,0.66666 2,10.5 0,8.08333 -0.30688,10.5 -1.33333,10.5 -0.73334,0 -1.63334,-0.3 -2,-0.66667 z m 7.33333,-9.88157 V 23.98966 l 5.96253,0.43129 c 6.89568,0.49878 9.69032,2.44169 10.61698,7.3812 0.74581,3.97555 -1.10454,10.11349 -3.4096,11.31021 -0.91845,0.47684 -4.25741,1.18077 -7.41991,1.56428 l -5.75,0.69731 z m 10.8,4.34824 c 1.34648,-1.34648 1.58547,-6.64491 0.38498,-8.53494 -0.43142,-0.67922 -2.22453,-1.52297 -3.98469,-1.875 l -3.20029,-0.64006 v 6.125 c 0,6.04166 0.0381,6.125 2.8,6.125 1.54,0 3.34,-0.54 4,-1.2 z m 7.52697,5.42324 c -0.85301,-0.54258 -0.27503,-3.33485 2.11848,-10.23469 2.88557,-8.31831 3.60032,-9.52606 5.79529,-9.79265 2.79898,-0.33995 2.61719,-0.64823 6.78826,11.51141 2.78404,8.11611 2.79258,8.21454 0.76832,8.85702 -2.06361,0.65496 -3.7515,-0.82421 -3.78201,-3.31433 -0.009,-0.74741 -1.35804,-1.25 -3.35479,-1.25 -2.5917,0 -3.59456,0.55981 -4.47857,2.5 -1.1964,2.62581 -1.92439,2.95123 -3.85498,1.72324 z m 9.28002,-9.80503 c -0.33385,-0.86998 -0.63862,-2.33248 -0.67728,-3.25 -0.0562,-1.3331 -0.24292,-1.26645 -0.92971,0.33179 -1.33378,3.10387 -1.14546,4.5 0.60699,4.5 1.05452,0 1.39831,-0.54381 1,-1.58179 z m 32.64301,9.87605 c -2.15319,-0.41472 -2.25,-0.86064 -2.25,-10.36381 v -9.93045 h 7.5 c 6.76626,0 7.5,0.19055 7.5,1.94774 0,1.64409 -0.81699,1.99486 -5.24063,2.25 -4.05033,0.2336 -5.3162,0.69974 -5.57333,2.05226 -0.28144,1.48042 0.44883,1.75 4.74064,1.75 4.40665,0 5.07332,0.26281 5.07332,2 0,1.73333 -0.66667,2 -5,2 -4.33333,0 -5,0.26666 -5,2 0,1.75757 0.66667,2 5.5,2 5.2,0 5.5,0.13636 5.5,2.5 0,2.3665 -0.28035,2.49273 -5.25,2.36382 -2.8875,-0.0749 -6.2625,-0.3312 -7.5,-0.56956 z m -22.25,-10.29426 v -10 h 5.06574 c 8.52134,0 11.85219,2.82756 11.90246,10.10397 0.0244,3.52909 -0.54073,5.22175 -2.42045,7.25 -2.13098,2.29937 -3.24458,2.64603 -8.5,2.64603 h -6.04775 z m 11.39301,4.41821 c 0.33385,-0.86998 0.60699,-3.13112 0.60699,-5.02475 0,-2.77566 -0.49716,-3.63198 -2.5651,-4.41821 -4.15514,-1.57978 -4.4349,-1.26281 -4.4349,5.02475 0,5.95069 0.0238,6 2.89301,6 1.71556,0 3.14006,-0.64379 3.5,-1.58179 z"
     id="path2108"
     inkscape:connector-curvature="0" />
</svg>
