<?xml version="1.0" encoding="UTF-8" standalone="no"?>
<!-- Created with Inkscape (http://www.inkscape.org/) -->

<svg
   xmlns:dc="http://purl.org/dc/elements/1.1/"
   xmlns:cc="http://creativecommons.org/ns#"
   xmlns:rdf="http://www.w3.org/1999/02/22-rdf-syntax-ns#"
   xmlns:svg="http://www.w3.org/2000/svg"
   xmlns="http://www.w3.org/2000/svg"
   xmlns:sodipodi="http://sodipodi.sourceforge.net/DTD/sodipodi-0.dtd"
   xmlns:inkscape="http://www.inkscape.org/namespaces/inkscape"
   version="1.1"
   id="svg869"
   width="333.57114"
   height="69.600014"
   viewBox="0 0 333.57114 69.600013"
   sodipodi:docname="T--USP_SaoCarlos-Brazil--pr-pes.svg"
   inkscape:version="0.92.2 5c3e80d, 2017-08-06">
  <metadata
     id="metadata875">
    <rdf:RDF>
      <cc:Work
         rdf:about="">
        <dc:format>image/svg+xml</dc:format>
        <dc:type
           rdf:resource="http://purl.org/dc/dcmitype/StillImage" />
        <dc:title></dc:title>
      </cc:Work>
    </rdf:RDF>
  </metadata>
  <defs
     id="defs873" />
  <sodipodi:namedview
     pagecolor="#000000"
     bordercolor="#666666"
     borderopacity="1"
     objecttolerance="10"
     gridtolerance="10"
     guidetolerance="10"
     inkscape:pageopacity="0"
     inkscape:pageshadow="2"
     inkscape:window-width="1287"
     inkscape:window-height="593"
     id="namedview871"
     showgrid="false"
     fit-margin-top="0"
     fit-margin-left="0"
     fit-margin-right="0"
     fit-margin-bottom="0"
     inkscape:zoom="1"
     inkscape:cx="52.960553"
     inkscape:cy="-92.7675"
     inkscape:window-x="0"
     inkscape:window-y="0"
     inkscape:window-maximized="0"
     inkscape:current-layer="svg869" />
  <path
     style="fill:#ffffff;stroke-width:0.95999998"
     d="m 114.76122,67.18489 -2.23825,-2.4151 -0.61159,2.1751 -0.61159,2.17511 -1.98439,-2.64 c -2.34163,-3.11525 -4.33612,-3.39225 -5.18426,-0.72 -0.91909,2.89578 -2.4,2.30342 -2.4,-0.96 0,-2.82792 -1.23049,-3.81231 -2.399998,-1.92 -0.32633,0.528 -1.65851,0.96 -2.96042,0.96 -1.64158,0 -2.64678,0.7356 -3.27958,2.4 -1.63236,4.29343 -2.88,2.62991 -2.88,-3.84 v -6.24 h 4.128 c 2.2704,0 4.7004,0.54 5.4,1.2 1.017598,0.96 1.359998,0.96 1.711988,0 0.66491,-1.81338 7.96375,-1.49419 10.10302,0.44183 1.0769,0.97458 2.08637,1.26719 2.48392,0.72 0.36834,-0.50701 1.8296,-1.94625 3.24725,-3.19831 l 2.57753,-2.27648 2.44866,2.75648 c 1.34676,1.51606 2.71396,3.72848 3.03821,4.91648 0.43837,1.60608 1.30143,2.16 3.36549,2.16 1.52675,0 2.77593,0.48236 2.77593,1.07191 0,0.63153 -1.00648,0.87952 -2.44977,0.60361 -1.80554,-0.34515 -3.17463,0.25657 -5.20616,2.28809 -3.3947,3.3947 -6.1482,3.49827 -9.07399,0.34128 z m 6.93792,-1.61689 c 2.90216,-2.90217 0.17406,-8.22108 -3.60193,-7.02262 -1.46588,0.46525 -1.96607,1.44202 -1.96607,3.83931 0,3.9662 3.04451,5.7068 5.568,3.18331 z M 96.502832,60.87635 c 0.9893,-1.60072 -1.23572,-3.43633 -2.56005,-2.112 -1.10776,1.10777 -0.41445,3.15565 1.06836,3.15565 0.46567,0 1.13693,-0.46964 1.49169,-1.04365 z m 11.778688,-1.1959 c 0.20929,-1.07912 -0.33794,-1.60045 -1.68,-1.60045 -1.0947,0 -1.99038,0.576 -1.99038,1.28 0,2.94023 3.10966,3.21172 3.67038,0.32045 z m 38.56962,8.96676 c -0.792,-0.50786 -2.12383,-0.71104 -2.95963,-0.45151 -0.97336,0.30225 -1.92616,-0.42038 -2.65056,-2.01027 -1.37972,-3.02814 -4.33309,-2.80608 -4.78383,0.3597 -0.17271,1.21304 -0.82071,2.03662 -1.44,1.83019 -0.69215,-0.23071 -1.12598,-2.5638 -1.12598,-6.05532 v -5.68 l 4.15094,-0.29867 c 2.4309,-0.1749 4.78295,0.2229 5.67612,0.96 1.20389,0.99353 1.61025,1.00589 1.92905,0.0587 0.23122,-0.687 2.01129,-1.2 4.16388,-1.2 4.00862,0 5.21607,1.57967 1.60001,2.09323 -2.82225,0.40082 -2.78442,2.13826 0.0553,2.54079 2.70666,0.38366 2.26768,2.44923 -0.61052,2.87275 -1.14661,0.16872 -2.08477,0.72228 -2.08477,1.23013 0,0.8465 0.57374,1.14062 4.77309,2.44684 1.24413,0.38699 1.24413,0.5464 0,1.3332 -1.82612,1.15486 -4.86681,1.14136 -6.69309,-0.0297 z m -0.96,-5.76721 c 0,-0.99368 -0.432,-2.07368 -0.96,-2.4 -0.5616,-0.34709 -0.96,0.64891 -0.96,2.4 0,1.75108 0.3984,2.74708 0.96,2.4 0.528,-0.32632 0.96,-1.40632 0.96,-2.4 z m -4.8,-2.92606 c 0,-1.29776 -1.89469,-2.08908 -3.51409,-1.46765 -1.18469,0.45461 -1.26159,0.86629 -0.36384,1.948 1.13781,1.37099 3.87793,1.03157 3.87793,-0.48035 z m 32.28946,7.65638 c -1.79351,-1.41078 -2.52518,-2.87718 -2.51477,-5.04 0.0173,-3.58771 0.68304,-4.77219 3.52219,-6.26661 2.93991,-1.54744 3.62101,-1.41908 6.83939,1.28901 2.74278,2.30789 2.86133,2.32491 3.34379,0.48 0.4086,-1.56249 1.31318,-1.91272 4.94019,-1.91272 3.11629,0 4.60949,0.44167 5.00849,1.48144 0.50549,1.3173 0.76305,1.30536 2.32453,-0.10776 1.65096,-1.49409 1.7861,-1.45349 2.25815,0.67856 0.27615,1.24727 0.63142,3.56376 0.7895,5.14776 0.27374,2.74329 0.39528,2.63867 2.56036,-2.20398 2.88306,-6.44852 4.60415,-6.22099 7.18239,0.94954 1.8605,5.17438 1.50668,8.91822 -0.50338,5.32644 -1.14705,-2.04967 -5.22962,-2.20691 -5.98798,-0.23063 -0.40542,1.05649 -1.82667,1.38595 -5.32255,1.23385 -3.97229,-0.17284 -4.9417,-0.58562 -5.80016,-2.46973 -1.27822,-2.8054 -4.24884,-2.47233 -4.67637,0.52431 -0.38033,2.66578 -2.09966,2.813 -2.77317,0.23747 -0.48246,-1.84491 -0.60101,-1.82789 -3.34379,0.48 -3.45728,2.90911 -4.58709,2.96715 -7.84681,0.40305 z m 5.91853,-2.04232 c 2.90467,-2.90467 -0.16536,-8.93677 -3.48846,-6.85429 -2.01347,1.26177 -2.58797,4.79693 -1.07568,6.61913 1.40156,1.68878 3.02679,1.77252 4.56414,0.23516 z m 17.472,-2.688 c 0,-1.584 -0.396,-2.88 -0.88,-2.88 -1.17478,0 -1.78995,2.00502 -1.25178,4.08 0.7064,2.72364 2.13178,1.92127 2.13178,-1.2 z m -4.8,-2.92606 c 0,-1.29776 -1.89468,-2.08908 -3.51409,-1.46765 -1.18468,0.45461 -1.26158,0.86629 -0.36384,1.948 1.13782,1.37099 3.87793,1.03157 3.87793,-0.48035 z m 26.63334,9.07939 C 218.21213,68.641 217.89113,65.584 217.89113,62.24 v -6.08 h 3.62639 c 1.99453,0 4.54269,0.64179 5.66259,1.4262 1.80119,1.26161 2.09936,1.26161 2.58348,0 0.3607,-0.93996 1.88607,-1.4262 4.47407,-1.4262 2.3734,0 3.69208,0.37976 3.33347,0.96 -0.32632,0.528 -1.43182,0.96 -2.45666,0.96 -1.02483,0 -1.86334,0.648 -1.86334,1.44 0,0.792 0.83851,1.44 1.86334,1.44 3.12294,0 3.11297,1.67071 -0.0165,2.76165 -3.35915,1.17101 -2.93875,2.99835 0.68983,2.99835 3.46859,0 2.3278,2.3311 -1.31837,2.69394 -2.18018,0.21696 -3.34788,-0.26862 -4.45828,-1.85393 -1.41396,-2.01871 -1.61093,-2.05151 -3.27521,-0.54535 -2.02253,1.83036 -7.06737,3.08277 -8.13146,2.01867 z m 5.81466,-3.46533 c 2.34873,-2.34873 0.74593,-7.488 -2.3353,-7.488 -1.57941,0 -2.58716,3.41638 -1.86109,6.30928 0.63353,2.52416 2.36469,3.01042 4.19639,1.17872 z m 33.38559,2.89331 c -0.21627,-0.69372 -0.64112,-2.39985 -0.94411,-3.79138 -0.53683,-2.46554 -0.64136,-2.49897 -4.09807,-1.31061 -2.00386,0.68889 -3.87402,2.10296 -4.29836,3.25007 -1.47263,3.9809 -2.73305,2.03964 -2.73305,-4.20939 v -6.24 h 4.128 c 2.2704,0 4.59764,0.46964 5.17165,1.04364 0.75153,0.75153 1.22419,0.75153 1.68866,0 0.80985,-1.31038 8.21169,-1.38577 8.21169,-0.0836 0,0.528 -1.08,0.96 -2.4,0.96 -3.02726,0 -3.23384,2.62804 -0.24,3.05323 2.63594,0.37436 2.49753,2.1106 -0.20197,2.53354 -2.89781,0.454 -2.45345,3.05323 0.52197,3.05323 3.56917,0 2.39535,2.33059 -1.36053,2.70131 -1.90139,0.18768 -3.20097,-0.17437 -3.44588,-0.96 z m -5.78189,-7.58496 c 0.9893,-1.60072 -1.23572,-3.43633 -2.56005,-2.112 -1.10777,1.10777 -0.41445,3.15565 1.06835,3.15565 0.46568,0 1.13694,-0.46964 1.4917,-1.04365 z m 17.4683,7.70996 c -0.924,-0.55094 -1.68,-1.62825 -1.68,-2.39402 0,-1.59136 1.51501,-1.86425 2.4,-0.43229 0.88459,1.4313 4.32,1.16003 4.32,-0.34113 0,-0.71562 -1.404,-1.70137 -3.12,-2.19055 -3.97034,-1.13184 -4.92585,-5.33119 -1.6161,-7.10252 2.53069,-1.35438 6.6561,0.14156 6.6561,2.41362 0,1.75463 -1.11406,1.88252 -2.688,0.30858 -0.87802,-0.87803 -1.41848,-0.88551 -2.27253,-0.0315 -0.85403,0.85404 -0.6828,1.25884 0.72,1.70208 1.01229,0.31985 2.59067,0.98201 3.5075,1.47147 2.30062,1.22819 2.36835,1.19486 3.0442,-1.49794 0.77245,-3.07768 4.65452,-5.64824 7.27431,-4.81675 1.09971,0.34903 2.80786,1.50231 3.79589,2.56284 l 1.79641,1.92822 0.6358,-2.00322 c 1.03041,-3.24652 2.42642,-2.29532 2.42642,1.65328 0,7.70701 5.39028,9.51251 5.94225,1.99039 0.44339,-6.04241 2.69775,-6.06024 2.69775,-0.0213 0,3.89833 -0.40998,5.11272 -2.13361,6.32 -3.05195,2.13768 -5.30462,1.85423 -7.95015,-1.00034 l -2.31208,-2.49478 -0.62616,2.49478 c -0.51506,2.05219 -1.18489,2.49478 -3.77571,2.49478 -1.73228,0 -4.16944,-0.82935 -5.41594,-1.843 -1.91286,-1.55554 -2.49095,-1.64208 -3.70635,-0.5548 -2.08282,1.86328 -5.97547,2.54356 -7.92,1.38411 z m 18.48,-6.75571 c 0,-3.05869 -3.05481,-4.63734 -5.32607,-2.75237 -1.65705,1.37523 -1.8308,4.9009 -0.31617,6.41553 1.88572,1.88572 5.64224,-0.55316 5.64224,-3.66316 z m 22.9793,5.9911 c -2.88355,-2.33765 -1.78393,-3.81958 1.52154,-2.05055 1.83052,0.97967 2.68776,1.02424 3.52853,0.18348 0.84076,-0.84076 0.28126,-1.45708 -2.30296,-2.53683 -5.27299,-2.20319 -5.64117,-6.19061 -0.71598,-7.75381 2.2512,-0.7145 5.70957,1.06011 5.70957,2.92978 0,1.60271 -1.51156,1.88375 -2.4,0.44623 -0.7661,-1.23958 -3.36,-1.24953 -3.36,-0.0129 0,0.52092 1.62,1.68614 3.6,2.58938 1.98,0.90324 3.8699,1.79101 4.19979,1.97281 0.32988,0.18181 1.3104,-1.44545 2.17893,-3.61612 2.1692,-5.42135 4.24568,-4.76292 6.72495,2.13238 1.96515,5.46542 1.50579,8.49723 -0.80799,5.33293 -1.49699,-2.04725 -5.19304,-2.20722 -5.94135,-0.25715 -0.29998,0.78173 -1.47443,1.36874 -2.60988,1.30447 -1.13545,-0.0643 -3.17176,0.1867 -4.52515,0.55773 -1.76227,0.48312 -3.12467,0.13633 -4.8,-1.22184 z M 23.854412,67.19502 c -2.4402,-0.78168 -4.9771,-2.07234 -5.63755,-2.86813 -1.04701,-1.26157 -0.47057,-1.44689 4.50042,-1.44689 7.41647,0 15.19506,-1.42493 25.06468,-4.59149 6.86757,-2.20339 8.0965,-2.36159 8.8788,-1.14294 1.65347,2.57575 0.49388,4.08877 -5.76553,7.52273 -5.52435,3.0307 -7.08511,3.42886 -14.4,3.67354 -5.31707,0.17785 -9.76538,-0.22571 -12.64082,-1.14682 z M 156.90519,67.47855 C 155.79772,64.59254 156.84129,56.64 158.32746,56.64 c 1.08504,0 1.33653,1.17711 1.12808,5.28 -0.27754,5.46301 -1.53518,8.20405 -2.55035,5.55855 z m 7.22595,-3.58868 c 0,-3.47897 -0.41973,-5.07119 -1.44,-5.46271 -2.72569,-1.04595 -1.43292,-2.26716 2.4,-2.26716 3.81662,0 4.6613,0.70318 2.9406,2.448 -0.49467,0.5016 -1.03467,2.82242 -1.2,5.15739 -0.44149,6.23505 -2.7006,6.33918 -2.7006,0.12448 z M 305.44282,62.7361 c 0.35725,-7.55375 2.20831,-7.70136 2.20831,-0.1761 0,3.61093 -0.41971,5.5799 -1.24831,5.8561 -0.95613,0.31871 -1.18082,-1.01069 -0.96,-5.68 z M 222.13284,47.5499 c -1.09907,-0.44462 -3.15954,-2.18844 -4.57882,-3.87516 L 214.97351,40.60797 215.23232,20.30398 215.49113,0 h 18.72 c 16.00001,0 18.72,0.20923 18.72,1.44 0,1.10933 -1.65333,1.55022 -7.2,1.92 l -7.2,0.48 -0.48,16.32 c -0.40157,13.65333 -0.71529,16.32 -1.92,16.32 -1.2047,0 -1.51843,-2.66667 -1.92,-16.32 l -0.48,-16.32 h -7.2 -7.2 l -0.26778,17.28 c -0.28584,18.44513 0.11654,20.56679 4.25843,22.45396 1.28683,0.58632 7.22911,1.06604 13.20506,1.06604 9.45837,0 11.18557,-0.25187 13.33808,-1.94504 1.36,-1.06978 2.74337,-2.79778 3.07416,-3.84 0.33079,-1.04223 1.40722,-1.89496 2.39205,-1.89496 0.98484,0 2.06127,0.85273 2.39205,1.89496 0.33079,1.04222 1.71416,2.77022 3.07416,3.84 2.16981,1.70676 3.87715,1.94504 13.9371,1.94504 11.39116,0 11.48231,-0.0179 14.27053,-2.80616 2.21429,-2.21428 2.80616,-3.66001 2.80616,-6.85447 0,-3.82793 -0.50661,-4.56396 -9.3058,-13.52005 -7.27899,-7.40879 -9.05286,-9.72465 -8.14454,-10.63298 0.90832,-0.90832 3.3533,1.02335 11.22579,8.86906 l 10.06455,10.03029 -0.0141,4.81716 c -0.0175,5.93511 -1.45165,8.91111 -5.6618,11.74833 -2.95766,1.99317 -4.3294,2.18755 -15.34601,2.17467 -8.78535,-0.0103 -12.75526,-0.39428 -14.49808,-1.40235 -1.32,-0.76351 -2.93115,-1.66396 -3.58033,-2.00101 -0.64918,-0.33705 -3.05357,0.29401 -5.34309,1.40235 -3.54442,1.71582 -5.86459,2.00612 -15.61967,1.95431 -6.3013,-0.0335 -12.35614,-0.42463 -13.4552,-0.86925 z m 74.15829,0.2901 c -0.352,-0.352 -0.64,-1.19783 -0.64,-1.87962 0,-0.88207 2.14594,-1.32049 7.44,-1.52 l 7.44,-0.28038 0.48,-16.32 c 0.40157,-13.65333 0.7153,-16.32 1.92,-16.32 1.12941,0 1.54353,1.76 1.92,8.16 l 0.48,8.16 h 7.2 7.2 l 0.28007,-8.58445 C 330.3248,9.64299 329.29771,6.04682 325.78108,4.44453 324.45993,3.84258 318.56609,3.36 312.53543,3.36 c -9.45837,0 -11.18558,0.25187 -13.33809,1.94504 -1.36,1.06977 -2.74337,2.79777 -3.07416,3.84 -0.77803,2.45137 -4.00607,2.45137 -4.7841,0 -0.33079,-1.04223 -1.71416,-2.77023 -3.07416,-3.84 C 286.10914,3.6093 284.38567,3.36 274.81856,3.36 c -14.45555,0 -17.47816,1.59701 -17.5369,9.26573 -0.0286,3.73913 0.53945,4.58518 9.18201,13.67462 7.35278,7.73298 8.8857,9.81431 7.59356,10.31015 -1.18418,0.45441 -4.17392,-1.92411 -11.13254,-8.85661 l -9.51356,-9.47787 v -5.55211 c 0,-4.98316 0.33675,-5.91956 3.28624,-9.13801 L 259.9836,0 h 14.37298 c 12.34135,0 14.63538,0.23747 16.22935,1.68 1.02101,0.924 2.43635,1.68 3.1452,1.68 0.70886,0 2.12419,-0.756 3.1452,-1.68 C 298.46918,0.23848 300.75993,0 313.01346,0 h 14.28075 l 3.13846,3.13609 3.13846,3.13609 V 18.97609 31.68 l -9.12,0.48 -9.12,0.48 -0.28634,7.17198 c -0.16941,4.2433 -0.75743,7.47143 -1.44,7.9053 -1.41941,0.90224 -16.42776,1.00862 -17.31366,0.12272 z M 91.393122,23.76 91.651142,1.92 101.98733,1.64736 c 12.71104,-0.33529 16.89118,0.69474 20.77611,5.11943 2.57793,2.93609 2.96723,4.10062 2.96411,8.86661 -0.007,10.23547 -4.81778,14.6066 -16.07674,14.6066 -3.83441,0 -7.05591,0.48024 -7.72767,1.152 -0.67012,0.67012 -1.152,3.88266 -1.152,7.68 V 45.6 h -4.818018 -4.81803 z m 23.058018,-4.21872 c 2.26983,-2.69405 2.11572,-4.31282 -0.67637,-7.10492 -1.7788,-1.7788 -3.37886,-2.35636 -6.528,-2.35636 -2.2944,0 -4.69003,0.5184 -5.32363,1.152 -1.51551,1.51551 -1.48194,8.68607 0.048,10.25306 1.83221,1.87658 10.38334,0.54473 12.48,-1.94378 z m 17.26184,4.26952 0.25816,-21.8908 12,-0.27487 c 14.11785,-0.32339 19.18271,1.02646 22.15768,5.90531 2.56574,4.20772 2.38181,10.10664 -0.44502,14.27221 -2.28058,3.36062 -2.28193,3.37912 -0.45625,6.26259 1.70728,2.69646 3.9728,15.18862 3.04582,16.79476 -0.63196,1.09496 -8.74269,0.85953 -9.44332,-0.27411 -0.33791,-0.54676 -0.99275,-3.67091 -1.45519,-6.94256 -1.04076,-7.36303 -2.44253,-8.56268 -9.56297,-8.1841 l -5.28075,0.28077 -0.48,7.68 -0.48,7.68 -5.05816,0.2908 -5.05815,0.2908 z m 22.81816,-3.44685 c 1.66233,-0.83652 2.4911,-2.14181 2.69641,-4.24675 0.41801,-4.28556 -2.77678,-6.23881 -9.5691,-5.8504 l -5.12731,0.2932 -0.30057,4.18983 c -0.16531,2.3044 -0.0709,4.7884 0.20987,5.52 0.65377,1.70371 8.76664,1.76687 12.0907,0.0941 z m 20.8,24.59605 c -0.35201,-0.352 -0.64001,-10.06377 -0.64001,-21.58171 V 2.43658 l 2.40746,-0.60423 c 4.78852,-1.20185 22.85138,0.0797 26.195,1.85845 9.15702,4.8715 9.24095,19.91324 0.13835,24.79502 -2.21639,1.18867 -5.30281,1.75418 -9.57383,1.75418 -3.62231,0 -6.79292,0.48995 -7.45498,1.152 -0.67011,0.67012 -1.152,3.88266 -1.152,7.68 V 45.6 h -4.63999 c -2.55201,0 -4.92801,-0.288 -5.28,-0.64 z m 19.75252,-23.40841 c 2.54498,-0.70679 3.75944,-1.66281 4.165,-3.27872 1.39201,-5.54621 -1.8869,-8.38481 -9.19753,-7.96245 l -4.32,0.24958 -0.29564,4.63459 c -0.45542,7.13924 1.70526,8.56288 9.64817,6.357 z M 6.2111421,43.22297 c -2.112,-0.78874 -3.89559,-1.44057 -3.96353,-1.44852 -0.0679,-0.008 -0.66586,-1.32374 -1.32871002,-2.92399 C -2.1539079,31.43203 2.7934821,16.97683 11.091212,9.12918 c 7.52251,-7.11448 12.33998,-8.9766 23.43993,-9.06036 10.16472,-0.0767 14.96504,1.49603 22.30158,7.30668 4.27229,3.38371 9.37842,10.70797 9.37842,13.45245 0,2.31909 -1.34634,2.21635 -14.85412,-1.13355 -9.88794,-2.45218 -11.60501,-2.65235 -12.2877,-1.43246 -0.49367,0.88214 -2.24482,1.41806 -4.63356,1.41806 -9.46337,0 -16.51884,9.05654 -14.37472,18.45166 0.5775,2.53046 0.4684,3.85941 -0.37424,4.55874 -2.11728,1.75719 -9.42332,2.04593 -13.4756599,0.53257 z"
     id="path1044"
     inkscape:connector-curvature="0"
     inkscape:transform-center-x="272.28676"
     inkscape:transform-center-y="49.506684" />
</svg>
