<?xml version="1.0" encoding="UTF-8" standalone="no"?>
<!-- Created with Inkscape (http://www.inkscape.org/) -->

<svg
   xmlns:dc="http://purl.org/dc/elements/1.1/"
   xmlns:cc="http://creativecommons.org/ns#"
   xmlns:rdf="http://www.w3.org/1999/02/22-rdf-syntax-ns#"
   xmlns:svg="http://www.w3.org/2000/svg"
   xmlns="http://www.w3.org/2000/svg"
   xmlns:sodipodi="http://sodipodi.sourceforge.net/DTD/sodipodi-0.dtd"
   xmlns:inkscape="http://www.inkscape.org/namespaces/inkscape"
   version="1.1"
   id="svg869"
   width="89.569145"
   height="46.578255"
   viewBox="0 0 89.569145 46.578254"
   sodipodi:docname="T--USP_SaoCarlos-Brazil--biofiÌsica.svg"
   inkscape:version="0.92.2 5c3e80d, 2017-08-06">
  <metadata
     id="metadata875">
    <rdf:RDF>
      <cc:Work
         rdf:about="">
        <dc:format>image/svg+xml</dc:format>
        <dc:type
           rdf:resource="http://purl.org/dc/dcmitype/StillImage" />
        <dc:title></dc:title>
      </cc:Work>
    </rdf:RDF>
  </metadata>
  <defs
     id="defs873" />
  <sodipodi:namedview
     pagecolor="#000000"
     bordercolor="#666666"
     borderopacity="1"
     objecttolerance="10"
     gridtolerance="10"
     guidetolerance="10"
     inkscape:pageopacity="0"
     inkscape:pageshadow="2"
     inkscape:window-width="1287"
     inkscape:window-height="593"
     id="namedview871"
     showgrid="false"
     fit-margin-top="0"
     fit-margin-left="0"
     fit-margin-right="0"
     fit-margin-bottom="0"
     inkscape:zoom="2.0567602"
     inkscape:cx="32.038409"
     inkscape:cy="-9.3321697"
     inkscape:window-x="0"
     inkscape:window-y="0"
     inkscape:window-maximized="0"
     inkscape:current-layer="svg869" />
  <path
     style="fill:#ffffff;stroke-width:0.31999999"
     d="m 19.093333,46.36492 c -0.117334,-0.117332 -0.213334,-0.624077 -0.213334,-1.126096 0,-0.814532 -0.08635,-0.891092 -0.80233,-0.711392 -2.588545,0.649686 -3.643,-3.623152 -1.149057,-4.656176 0.941195,-0.389856 2.591387,0.0044 2.591387,0.619078 0,0.42736 -0.188427,0.413555 -0.98383,-0.07208 -0.557471,-0.340365 -0.723805,-0.307392 -1.115658,0.221162 -0.579731,0.781971 -0.592101,2.116553 -0.02678,2.88967 0.582819,0.797053 1.486273,0.419696 1.486273,-0.62079 0,-0.596707 0.168551,-0.810042 0.64,-0.810042 0.579048,0 0.64,0.213335 0.64,2.24 0,1.653334 -0.111745,2.24 -0.426666,2.24 -0.234667,0 -0.522667,-0.096 -0.64,-0.213334 z M 0.624536,44.070078 c -0.438207,-0.354838 -0.63009,-0.743952 -0.483682,-0.980845 0.184203,-0.298048 0.383515,-0.265219 0.827106,0.136224 0.747336,0.67633 1.7520405,0.4932 1.7520405,-0.31935 0,-0.376781 -0.537997,-0.984704 -1.3600005,-1.536768 C 0.276578,40.641704 0,40.265022 0,39.517102 c 0,-1.25672 1.014159,-2.218848 2.3388385,-2.218848 1.246575,0 2.346304,0.689187 1.998281,1.252301 -0.181287,0.293328 -0.38505,0.258717 -0.825955,-0.140298 -0.704377,-0.637452 -1.9969735,-0.351881 -1.8493625,0.408576 0.05401,0.278244 0.7461985,0.960877 1.5381985,1.516964 1.769568,1.242467 2.026666,2.324883 0.83521,3.516339 C 3.0700635,44.817281 1.658671,44.90747 0.624536,44.070078 Z M 25.073844,43.899723 C 24.411501,43.329998 24.192,42.850952 24.192,41.975153 c 0,-1.371504 0.553953,-2.026089 1.951073,-2.305513 2.259955,-0.451991 3.655707,2.876521 1.813772,4.325388 -1.093958,0.860509 -1.798893,0.837207 -2.883001,-0.0953 z M 27.04,42.098254 c 0,-1.39952 -0.110173,-1.772451 -0.548567,-1.85688 -0.693998,-0.133651 -1.042217,1.1128 -0.748409,2.678934 0.157082,0.837322 0.356549,1.110292 0.755219,1.033514 C 26.928546,43.870952 27.04,43.489214 27.04,42.098254 Z m 24.625456,1.774544 c -1.37043,-1.370422 -0.80932,-3.69823 1.00096,-4.152582 0.93771,-0.235347 2.53003,0.586019 2.19306,1.131245 -0.119819,0.193865 -0.37471,0.09131 -0.63145,-0.254058 -0.3409,-0.458557 -0.55105,-0.50577 -1.009279,-0.226739 -1.03879,0.632541 -0.842411,3.64759 0.23758,3.64759 0.14188,0 0.4911,-0.233142 0.776049,-0.518096 0.28496,-0.28495 0.61924,-0.416557 0.74286,-0.292454 0.319511,0.320758 -1.164419,1.45055 -1.90523,1.45055 -0.34051,0 -0.97255,-0.353456 -1.40455,-0.785456 z m 20.89159,-0.894544 -1.037049,-1.68 -0.0975,1.52 c -0.13982,2.179075 -0.70246,1.879658 -0.70246,-0.373827 0,-3.172013 0.69712,-3.796902 1.99706,-1.790134 0.88899,1.372387 1.3212,1.434841 1.13468,0.163961 -0.0821,-0.559315 0.003,-0.96031 0.20368,-0.960745 0.22488,-6.4e-4 0.30801,0.83319 0.2393,2.4 -0.0579,1.320409 -0.23924,2.400745 -0.40296,2.400745 -0.16372,0 -0.76435,-0.756 -1.33472,-1.68 z M 6.2117825,43.90011 c -0.09247,-0.240979 -0.123953,-1.212979 -0.06996,-2.16 l 0.09817,-1.721856 1.550491,-0.09878 c 1.030864,-0.06567 1.480322,0.01475 1.341115,0.24 -0.115157,0.186326 -0.560878,0.338777 -0.990491,0.338777 -0.567781,0 -0.781115,0.174794 -0.781115,0.64 0,0.469335 0.213334,0.64 0.8,0.64 0.44,0 0.8,0.144 0.8,0.32 0,0.176 -0.36,0.32 -0.8,0.32 -0.586666,0 -0.8,0.170666 -0.8,0.64 0,0.465206 0.213334,0.64 0.781115,0.64 0.429613,0 0.870111,0.144 0.978885,0.32 0.120876,0.195581 -0.373358,0.32 -1.271158,0.32 -0.948149,0 -1.528536,-0.155334 -1.63706,-0.438144 z M 10.56,42.081531 v -2.256723 l 1.647042,0.09672 c 1.920269,0.112768 2.618952,0.78111 1.944899,1.860442 -0.33117,0.530288 -0.314959,0.816931 0.09055,1.601103 0.480331,0.928858 0.473303,0.955178 -0.255008,0.955178 -0.533124,0 -0.894925,-0.306115 -1.255509,-1.062269 -0.465426,-0.976006 -0.463742,-1.090259 0.02073,-1.406979 0.415994,-0.271952 0.452387,-0.469888 0.172417,-0.937734 -0.627217,-1.048115 -0.922864,-0.640458 -1.020393,1.406982 -0.08278,1.73784 -0.17716,2 -0.720001,2 -0.560584,0 -0.624731,-0.231718 -0.624731,-2.256723 z m 10.88,0.01672 c 0,-2.176 0.02286,-2.24 0.8,-2.24 0.777142,0 0.8,0.064 0.8,2.24 0,2.176 -0.02286,2.24 -0.8,2.24 -0.777143,0 -0.8,-0.064 -0.8,-2.24 z m 12.16,-1.28 v -3.52 h 0.920982 c 0.833085,0 0.989888,0.18424 1.642915,1.930419 0.39706,1.061732 0.805232,1.84712 0.907047,1.745306 0.101814,-0.101814 0.500864,-0.934506 0.886777,-1.850422 0.607735,-1.442381 0.834228,-1.678727 1.691972,-1.765578 L 40.64,37.257701 v 3.540275 3.540275 h -0.945981 -0.945981 l -0.09402,-2.32 -0.09402,-2.32 -0.934346,2.329655 c -0.513888,1.281311 -1.033139,2.217311 -1.153888,2.079999 -0.120749,-0.137308 -0.564294,-1.103788 -0.985654,-2.147731 l -0.766112,-1.898073 -0.09462,2.138073 c -0.07142,1.613952 -0.208704,2.138077 -0.56,2.138077 -0.378966,0 -0.465379,-0.653594 -0.465378,-3.52 z m 8.70129,1.52 c 0.734691,-2.228617 1.357072,-3.109638 1.849132,-2.617577 0.309888,0.309888 1.609574,3.820515 1.609574,4.347673 0,0.413261 -0.78676,0.32217 -1.803417,-0.208794 -0.813629,-0.424931 -0.956483,-0.424931 -1.271856,0 -0.83255,1.12177 -1.015485,0.395968 -0.383433,-1.521302 z m 1.58742,-0.247888 c -0.194057,-1.381225 -0.499139,-1.338841 -0.86534,0.120221 -0.195895,0.780505 -0.142317,0.893891 0.37399,0.791456 0.435901,-0.08648 0.57185,-0.338727 0.49135,-0.911677 z m 2.991286,1.927888 c 0.10878,-0.176 0.54078,-0.32 0.96,-0.32 1.23346,0 1.24205,-0.592154 0.0171,-1.17631 -1.18884,-0.566922 -1.50593,-1.526816 -0.75306,-2.27969 0.46336,-0.463357 2.496001,-0.515475 2.496001,-0.064 0,0.176 -0.36,0.32 -0.8,0.32 -1.07913,0 -1.01065,0.475101 0.137009,0.950477 1.188111,0.492131 1.45146,1.175277 0.82288,2.134611 -0.3845,0.586813 -0.78222,0.754912 -1.78615,0.754912 -0.779519,0 -1.21311,-0.126858 -1.093739,-0.32 z m 8.8846,-0.08 c 0.0842,-0.22 0.41199,-1.221952 0.728441,-2.226563 0.55065,-1.748099 1.23824,-2.490157 1.79318,-1.935219 0.26916,0.269158 1.55378,3.817561 1.55378,4.291878 0,0.379414 -1.20035,0.337654 -1.44,-0.0501 -0.10877,-0.176 -0.62127,-0.32 -1.13888,-0.32 -0.51762,0 -0.94112,0.144 -0.94112,0.32 0,0.176 -0.1594,0.32 -0.35423,0.32 -0.19483,0 -0.28536,-0.18 -0.20117,-0.4 z m 2.1505,-1.44 c -0.003,-0.308 -0.12665,-0.752073 -0.27546,-0.986832 -0.21584,-0.340486 -0.31195,-0.319008 -0.47511,0.106173 -0.33892,0.883235 -0.23234,1.440659 0.27547,1.440659 0.264,0 0.4778,-0.252 0.4751,-0.56 z m 3.2049,-0.416723 v -2.256723 l 1.64705,0.09672 c 1.96282,0.115267 2.5615,0.730157 1.9051,1.956662 -0.35747,0.667927 -0.33833,0.903664 0.13158,1.620832 0.54458,0.831143 0.5419,0.839229 -0.27871,0.839229 -1.15618,0 -2.08408,-1.686653 -1.33822,-2.432505 0.59376,-0.593764 0.61369,-0.839005 0.1092,-1.343495 -0.71945,-0.719456 -0.896,-0.385283 -0.896,1.696 0,1.866666 -0.0656,2.08 -0.64,2.08 -0.5795,0 -0.64,-0.213334 -0.64,-2.256723 z m 5.25179,1.818579 c -0.0925,-0.240979 -0.12396,-1.212979 -0.07,-2.16 l 0.0982,-1.721856 1.52,-0.09753 c 0.91428,-0.05867 1.52,0.03697 1.52,0.24 0,0.185642 -0.36,0.337533 -0.8,0.337533 -0.58667,0 -0.8,0.170666 -0.8,0.64 0,0.426666 0.21333,0.64 0.64,0.64 0.352,0 0.64,0.144 0.64,0.32 0,0.176 -0.288,0.32 -0.64,0.32 -0.42667,0 -0.64,0.213334 -0.64,0.64 0,0.469334 0.21333,0.64 0.8,0.64 0.44,0 0.8,0.144 0.8,0.32 0,0.504742 -2.87163,0.39417 -3.06822,-0.118144 z m 9.46821,-3.241856 v -3.68 h 0.8 c 0.77715,0 0.8,0.064 0.8,2.24 0,2.026666 0.0609,2.24 0.64,2.24 0.46934,0 0.64,-0.213334 0.64,-0.8 0,-0.586665 0.17067,-0.8 0.64,-0.8 0.57905,0 0.64,0.213335 0.64,2.24 0,2.026666 -0.061,2.24 -0.64,2.24 -0.51809,0 -0.64,-0.213334 -0.64,-1.12 0,-0.906665 -0.1219,-1.12 -0.64,-1.12 -0.51809,0 -0.64,0.213335 -0.64,1.12 0,0.981334 -0.0991,1.12 -0.8,1.12 h -0.8 z m 5.44,3.489251 c 0,-0.104912 0.23122,-1.004912 0.51383,-2 0.97308,-3.42639 1.853,-3.369654 2.95822,0.190749 l 0.62084,2 h -0.76644 c -0.42155,0 -0.76645,-0.127213 -0.76645,-0.282694 0,-0.495309 -1.63551,-0.637114 -1.81945,-0.157751 -0.16565,0.431661 -0.74055,0.625507 -0.74055,0.249696 z m 2.04109,-1.969251 c -0.34677,-1.445446 -0.56686,-1.445289 -0.92976,6.4e-4 -0.18893,0.752733 -0.12268,0.879344 0.46008,0.879344 0.58052,0 0.6497,-0.129603 0.46968,-0.88 z m 3.07891,1.84 c 0,-0.176 0.432,-0.32 0.96,-0.32 1.28492,0 1.24077,-0.720896 -0.0797,-1.30225 -1.92651,-0.848147 -1.40865,-2.53775 0.77782,-2.53775 0.75832,0 1.18099,0.127367 1.06193,0.32 -0.10877,0.176 -0.47727,0.32 -0.81888,0.32 -0.89816,0 -0.76246,0.537546 0.25888,1.025536 0.9693,0.463123 1.31537,1.617091 0.70539,2.352077 -0.43161,0.520054 -2.86539,0.640995 -2.86539,0.142387 z M 7.3945235,38.246747 c 0.275137,-0.414381 0.700715,-0.82024 0.945727,-0.90191 0.35408,-0.118026 0.342842,0.0061 -0.05477,0.604924 -0.275137,0.414381 -0.700714,0.82024 -0.945727,0.901911 -0.35408,0.118025 -0.342842,-0.0061 0.05477,-0.604925 z M 21.5616,38.113579 c -0.229324,-0.59761 0.105682,-1.135325 0.707328,-1.135325 0.653889,0 0.961567,0.963024 0.417701,1.307395 -0.636253,0.402874 -0.921121,0.359303 -1.125029,-0.17207 z M 37.382329,31.526683 C 24.550778,30.716539 13.388745,27.403399 8.6215885,22.989853 c -2.123169,-1.96568 -2.914921,-3.424716 -2.914921,-5.371598 0,-1.94746 0.792926,-3.408174 2.908903,-5.358731 C 19.726204,2.0174854 57.106496,0.47540798 74.651986,9.5352743 88.635857,16.756043 80.817836,26.960919 58.541246,30.564662 54.580497,31.205403 45.772386,31.898341 42.72,31.809326 41.84,31.783666 39.438048,31.656475 37.382329,31.526683 Z m -1.293532,-6.886574 c 1.435862,-1.005716 0.599385,-3.661854 -1.153197,-3.661854 -1.831456,0 -2.589491,2.025293 -1.27982,3.419375 0.814425,0.866916 1.450943,0.930352 2.433017,0.242479 z m -1.592621,-0.861855 c -0.147875,-0.982776 0.07832,-2.159999 0.415033,-2.159999 0.403524,0 0.700941,1.445547 0.456122,2.216904 -0.277673,0.874871 -0.735453,0.844969 -0.871155,-0.05691 z m 11.60486,1.028742 c 0.94484,-0.50566 0.73731,-0.956411 -0.34104,-0.740742 -0.92308,0.184618 -0.96,0.148124 -0.96,-0.949114 0,-1.291191 0.44254,-1.741127 1.14175,-1.160834 0.260551,0.216232 0.56276,0.304109 0.671591,0.195282 0.34422,-0.344222 -0.58242,-1.173333 -1.31136,-1.173333 -1.727883,0 -2.562841,1.887796 -1.456837,3.293849 0.731516,0.929977 1.276307,1.059151 2.255896,0.534892 z m 3.956111,-0.171599 c 0.3211,-0.321104 0.50285,-1.0729 0.50285,-2.08 0,-2.018995 -0.57358,-2.065653 -0.70246,-0.05714 -0.0702,1.094429 -0.23193,1.519999 -0.57754,1.519999 -0.34654,0 -0.50734,-0.428146 -0.57834,-1.53993 -0.0795,-1.244951 -0.20211,-1.520237 -0.64,-1.437122 -0.77181,0.146494 -0.93457,2.858428 -0.21475,3.578247 0.65693,0.656924 1.56273,0.66346 2.21024,0.01595 z m -22.514544,-1.177143 0.0226,-1.359999 0.624085,1.406645 c 0.694487,1.565328 0.85199,1.5274 1.632829,-0.393207 l 0.542123,-1.333438 0.01789,1.519999 c 0.01651,1.403233 0.07933,1.52 0.817878,1.52 0.794528,0 0.8,-0.01985 0.8,-2.902256 0,-2.823255 -0.01952,-2.899473 -0.717011,-2.8 -0.483994,0.06902 -0.930208,0.553119 -1.373024,1.489575 l -0.65601,1.387318 -0.626977,-1.387318 c -0.430092,-0.951653 -0.853089,-1.41943 -1.346984,-1.489575 -0.701259,-0.09959 -0.72,-0.02671 -0.72,2.8 0,2.36645 0.08862,2.902256 0.48,2.902256 0.347827,0 0.486224,-0.37449 0.502603,-1.36 z m 12.137397,1.04 c 0,-0.176 -0.138176,-0.32 -0.307059,-0.32 -0.16888,0 -0.34888,-1.188 -0.4,-2.639999 -0.08434,-2.395687 -0.15217,-2.64 -0.732941,-2.64 -0.569667,0 -0.650582,0.24543 -0.736291,2.233306 -0.134842,3.127409 0.0506,3.686693 1.222387,3.686693 0.524646,0 0.953904,-0.144 0.953904,-0.32 z m 3.200001,0 c 0,-0.176 -0.288,-0.32 -0.640001,-0.32 -0.355555,0 -0.64,-0.213333 -0.64,-0.48 0,-0.264 0.216,-0.48 0.48,-0.48 0.264,0 0.48,-0.144 0.48,-0.319999 0,-0.176 -0.216,-0.32 -0.48,-0.32 -0.707875,0 -0.583757,-0.672784 0.16,-0.867281 1.103293,-0.288517 0.697018,-0.776072 -0.56,-0.672036 l -1.2,0.09932 -0.09597,1.839999 -0.09597,1.84 h 1.295971 c 0.712781,0 1.295968,-0.144 1.295968,-0.32 z m 11.836356,-0.07199 c 0.495289,-0.309317 0.71034,-0.309317 1.01966,0 0.21559,0.215592 0.660889,0.391986 0.989549,0.391986 0.63378,0 0.63145,-0.02456 -0.24348,-2.559999 -0.58274,-1.688698 -1.4839,-1.513587 -2.0585,0.4 -0.32755,1.090838 -0.62119,1.519999 -1.04,1.519999 -0.51901,0 -0.58359,-0.300984 -0.58359,-2.719999 0,-2.506667 -0.0502,-2.72 -0.64,-2.72 -0.5917,0 -0.64,0.213333 -0.64,2.826666 0,1.554667 0.096,2.922667 0.21334,3.04 0.35605,0.356049 2.31465,0.238748 2.983021,-0.178653 z m 0.20792,-1.36801 c 0.10131,-0.263999 0.22538,-0.479999 0.27572,-0.479999 0.0503,0 0.17442,0.216 0.27573,0.479999 0.11107,0.289456 0.002,0.48 -0.27573,0.48 -0.27734,0 -0.38679,-0.190544 -0.27572,-0.48 z m 4.29738,1.04 0.0217,-0.72 0.34724,0.72 c 0.220749,0.457699 0.63428,0.72 1.135149,0.72 0.7624,0 0.77129,-0.02535 0.27466,-0.783312 -0.31469,-0.480268 -0.39082,-0.858976 -0.19681,-0.978886 0.53532,-0.330842 0.35065,-1.396978 -0.30252,-1.746543 -0.34043,-0.182192 -1.06043,-0.331258 -1.599999,-0.331258 h -0.981041 v 1.92 c 0,1.706666 0.0711,1.919999 0.64,1.919999 0.44396,0 0.64664,-0.220552 0.66166,-0.72 z m -0.0217,-1.858885 c 0,-0.362387 0.144,-0.569889 0.32,-0.461114 0.176,0.108774 0.319999,0.405272 0.319999,0.658885 0,0.253613 -0.144,0.461115 -0.319999,0.461115 -0.176,0 -0.32,-0.296499 -0.32,-0.658886 z M 26.56,16.978255 c 0,-0.629013 0.162613,-0.8 0.760818,-0.8 0.945298,0 1.559183,-0.704589 1.559183,-1.789557 0,-1.136561 -0.709982,-1.747079 -2.275974,-1.957122 L 25.28,12.253987 v 2.762134 c 0,2.5488 0.04943,2.762134 0.64,2.762134 0.469333,0 0.64,-0.213334 0.64,-0.8 z m 0,-2.732516 c 0,-1.179531 0.06132,-1.29496 0.496179,-0.934057 0.568103,0.471483 0.50182,1.952201 -0.09618,2.148561 -0.277415,0.09109 -0.4,-0.281108 -0.4,-1.214504 z m -11.349722,1.788844 c 0.922501,-0.385445 1.109722,-0.628388 1.109722,-1.44 0,-0.820977 -0.123912,-0.976328 -0.778745,-0.976328 -0.611659,0 -0.800469,0.18881 -0.88,0.88 -0.141941,1.233606 -1.310897,1.369052 -2.052135,0.237779 -0.769678,-1.174677 -0.304856,-3.150227 0.77727,-3.303494 0.410513,-0.05814 1.008217,0.131238 1.328231,0.420846 0.441863,0.399881 0.640226,0.432092 0.824526,0.13389 0.430877,-0.697175 -1.13518,-1.653404 -2.377639,-1.451781 -1.67057,0.271097 -2.601507,1.326773 -2.601507,2.950094 0,1.121087 0.170428,1.499179 0.984552,2.18422 1.116756,0.939687 2.064136,1.033961 3.665725,0.364774 z m 8.622814,-0.05513 c 0.36401,-0.364011 0.490177,-0.960744 0.422857,-2 -0.125491,-1.937248 -0.708427,-1.910108 -0.833482,0.03881 -0.06848,1.067174 -0.235307,1.52 -0.56,1.52 -0.341626,0 -0.462466,-0.418071 -0.462466,-1.6 0,-1.386667 -0.08533,-1.6 -0.64,-1.6 -0.561718,0 -0.64,0.213333 -0.64,1.744099 0,1.323458 0.13506,1.822765 0.56,2.070269 0.817454,0.476123 1.563824,0.416093 2.153091,-0.173174 z m 8.735706,0.02066 c 1.40661,-0.985231 0.482982,-3.661858 -1.2636,-3.661858 -1.697809,0 -2.484635,2.260562 -1.225197,3.52 0.768835,0.768836 1.531587,0.812311 2.488797,0.141854 z m -1.711594,-0.918764 c -0.214842,-0.855992 0.07553,-2.103094 0.489669,-2.103094 0.384606,0 0.659952,1.344772 0.444244,2.169647 -0.244621,0.935435 -0.690404,0.903668 -0.933914,-0.06655 z m 27.144123,1.016906 c 0.89272,-0.681927 0.99328,-1.927994 0.23353,-2.89385 -1.103,-1.402247 -2.93692,-0.99359 -3.35543,0.7477 -0.40851,1.69972 1.75725,3.188572 3.1219,2.14615 z m -1.5347,-0.63946 c -0.27008,-0.70382 -0.0535,-2.165795 0.33337,-2.250489 0.43855,-0.096 0.607,2.010956 0.1938,2.424149 -0.23042,0.230425 -0.392611,0.176998 -0.52717,-0.17366 z m 16.351709,0.585623 c 0.34136,-0.24961 0.516361,-0.55813 0.388891,-0.6856 -0.12747,-0.12747 -0.44493,-0.05485 -0.70548,0.161385 -0.68932,0.572091 -1.14175,0.13544 -1.14175,-1.101948 0,-1.237389 0.45243,-1.67404 1.14175,-1.101949 0.62274,0.516825 0.98408,0.135535 0.46467,-0.490318 -0.95868,-1.155142 -3.20642,-0.03895 -3.20642,1.592267 0,0.933051 1.025,2.08 1.85884,2.08 0.31836,0 0.85814,-0.204227 1.199499,-0.453837 z m -54.556679,-0.586163 0.02166,-0.72 0.347243,0.72 c 0.21607,0.448016 0.635227,0.72 1.109601,0.72 0.652352,0 0.714956,-0.08857 0.43386,-0.613805 -0.180674,-0.337592 -0.242396,-1.044313 -0.137161,-1.570492 0.153194,-0.765969 0.0538,-1.030296 -0.498586,-1.325924 -0.379456,-0.203079 -1.078802,-0.324358 -1.554098,-0.269507 -0.81398,0.09394 -0.869748,0.206602 -0.960144,1.939728 -0.08725,1.672809 -0.03636,1.84 0.56,1.84 0.460514,0 0.662422,-0.214534 0.677627,-0.72 z m -0.02166,-1.858886 c 0,-0.362387 0.144,-0.569888 0.32,-0.461114 0.176,0.108774 0.32,0.405272 0.32,0.658885 0,0.253613 -0.144,0.461115 -0.32,0.461115 -0.176,0 -0.32,-0.296499 -0.32,-0.658886 z m 21.760001,-0.141114 c 0,-1.496 0,-2.828 0,-2.96 0,-0.132 -0.252,-0.24 -0.56,-0.24 -0.391773,0 -0.588989,0.297205 -0.656496,0.989338 -0.07428,0.761582 -0.332119,1.093086 -1.12,1.44 -0.811027,0.357106 -1.044643,0.670903 -1.125338,1.511565 -0.14063,1.465099 0.394644,1.979097 2.061015,1.979097 h 1.400819 z m -2.026666,1.866666 c -0.385446,-0.385444 -0.222963,-1.620311 0.266666,-2.026666 0.413465,-0.343146 0.48,-0.215507 0.48,0.920817 0,1.236001 -0.24849,1.604026 -0.746666,1.105849 z m 5.706666,0.533334 c -0.108774,-0.176 -0.405274,-0.32 -0.658886,-0.32 -0.253613,0 -0.461114,-0.216 -0.461114,-0.48 0,-0.264 0.162,-0.444 0.36,-0.4 0.198,0.044 0.426,-0.1 0.506666,-0.32 0.08067,-0.22 -0.08133,-0.4 -0.36,-0.4 -0.278666,0 -0.506666,-0.144 -0.506666,-0.32 0,-0.176 0.216,-0.32 0.48,-0.32 0.264,0 0.48,-0.216 0.48,-0.48 0,-0.318734 -0.318749,-0.48 -0.948742,-0.48 -1.044541,0 -1.611258,0.71498 -1.611258,2.03279 0,1.467694 0.310566,1.80721 1.653123,1.80721 0.761613,0 1.185981,-0.127286 1.066877,-0.32 z m 8.095996,-0.064 c 0.53026,-0.530254 0.48054,-1.377514 -0.10956,-1.867256 -0.34242,-0.284183 -0.39142,-0.511766 -0.16,-0.743182 0.48458,-0.484583 0.40853,-1.664984 -0.13642,-2.11725 -0.25849,-0.214529 -1.23049,-0.412161 -2.16,-0.439183 l -1.690019,-0.04913 -0.0925,2.8 -0.0925,2.8 h 2.028461 c 1.15102,0 2.19457,-0.166104 2.41246,-0.384 z m -2.816,-1.032537 c 0,-0.619355 0.16415,-0.823463 0.66226,-0.823463 0.50299,0 0.63766,0.172364 0.56,0.716731 -0.151739,1.063599 -1.22226,1.157081 -1.22226,0.106732 z m 0,-2.583463 c 0,-0.634349 0.14056,-0.819858 0.56,-0.739082 0.308,0.05932 0.56,0.391903 0.56,0.739082 0,0.347179 -0.252,0.679766 -0.56,0.739081 -0.41944,0.08078 -0.56,-0.104733 -0.56,-0.739081 z m 5.12,2.056536 c 0,-1.678184 -0.0764,-1.928917 -0.56,-1.83689 -0.44174,0.08407 -0.58026,0.494482 -0.65596,1.943463 -0.0872,1.669674 -0.0363,1.836891 0.56,1.836891 0.58928,0 0.65596,-0.197563 0.65596,-1.943464 z m 6.72,0.5377 c 0,-0.95437 0.15413,-1.464908 0.48,-1.589957 0.264,-0.101306 0.480001,-0.332713 0.480001,-0.514236 0,-0.181524 -0.216,-0.330043 -0.480001,-0.330043 -0.269139,0 -0.48,-0.285561 -0.48,-0.650043 0,-0.357524 0.216,-0.73293 0.48,-0.834237 0.73254,-0.281101 0.571771,-0.75572 -0.256,-0.75572 -1.245069,0 -1.504,0.58947 -1.504,3.424 0,2.442666 0.0514,2.656 0.64,2.656 0.54288,0 0.64,-0.213334 0.64,-1.405764 z m 2.56,-0.5377 c 0,-1.678184 -0.0764,-1.928917 -0.56,-1.83689 -0.44174,0.08407 -0.580259,0.494482 -0.655959,1.943463 -0.0872,1.669674 -0.0363,1.836891 0.56,1.836891 0.58928,0 0.655959,-0.197563 0.655959,-1.943464 z m 3.507261,1.47882 c 0.5237,-0.631024 0.135189,-1.693367 -0.71837,-1.964275 l -0.69837,-0.221655 0.7353,-0.272006 c 0.40441,-0.149604 0.64555,-0.417225 0.53586,-0.594713 -0.550341,-0.890466 -2.939711,0.33677 -2.56365,1.316751 0.10845,0.282619 0.58526,0.707036 1.05958,0.943147 l 0.86239,0.429294 -0.88,0.115305 c -0.484,0.06342 -0.88,0.249741 -0.88,0.414051 0,0.481208 2.12507,0.342806 2.54726,-0.165899 z m 2.18871,-1.372247 c -0.0757,-1.448981 -0.214231,-1.859395 -0.65597,-1.943463 -0.48356,-0.09203 -0.56,0.158706 -0.56,1.83689 0,1.745901 0.0667,1.943464 0.655969,1.943464 0.59626,0 0.64724,-0.167217 0.560001,-1.836891 z m 5.44802,1.444904 c 0.309319,-0.309316 0.52437,-0.309316 1.01966,0 0.345219,0.215592 0.855329,0.391987 1.133579,0.391987 0.52959,0 0.51817,-0.08721 -0.335139,-2.56 -0.589011,-1.706888 -1.47237,-1.508422 -2.136431,0.48 -0.29389,0.88 -0.54589,1.708 -0.56,1.84 -0.0394,0.368344 0.44115,0.285194 0.878331,-0.151987 z m 0.260289,-1.368013 c 0.10131,-0.264 0.240791,-0.48 0.309961,-0.48 0.0692,0 0.12576,0.216 0.12576,0.48 0,0.264 -0.139481,0.48 -0.30995,0.48 -0.17048,0 -0.22707,-0.216 -0.125771,-0.48 z m -11.5625,-3.041962 c 0.585661,-0.64715 0.490971,-1.201455 -0.13876,-0.81226 -0.48519,0.299862 -1.0598,1.454222 -0.72387,1.454222 0.15491,0 0.5431,-0.288883 0.86263,-0.641962 z m -9.178309,-0.424555 c 0.0698,-0.359707 -0.112651,-0.533483 -0.560001,-0.533483 -0.36491,0 -0.663469,0.192 -0.663469,0.426666 0,0.980078 1.03656,1.070576 1.22347,0.106817 z m 15.04,0 c 0.0698,-0.359707 -0.11265,-0.533483 -0.56,-0.533483 -0.36491,0 -0.66347,0.192 -0.66347,0.426666 0,0.980078 1.036559,1.070576 1.22347,0.106817 z M 3.2924775,19.013619 c -0.68773,-1.039229 -0.898777,-1.78041 -0.979518,-3.44 -0.0916,-1.882813 0.005,-2.300134 0.87895,-3.796092 C 6.1356145,6.7385834 15.835372,2.5315811 28.959999,0.60133027 c 5.451613,-0.8017737 20.148385,-0.8017737 25.599996,0 10.91366,1.60508123 19.51934,4.77248513 23.72258,8.73131903 1.85099,1.7433607 1.83465,1.9671827 -0.0426,0.583185 C 74.121926,6.8797474 64.831957,3.9227044 55.519996,2.6839469 50.490416,2.0148672 35.748,2.1122969 30.56,2.8489024 22.292318,4.0227684 14.753318,6.3998024 10.046537,9.3167643 5.2516415,12.288332 2.9306745,16.304883 4.1520805,19.517423 c 0.45297,1.191402 0.141381,1.008784 -0.859601,-0.503804 z"
     id="path879"
     inkscape:connector-curvature="0" />
</svg>
