<?xml version="1.0" encoding="UTF-8" standalone="no"?>
<!-- Created with Inkscape (http://www.inkscape.org/) -->

<svg
   xmlns:dc="http://purl.org/dc/elements/1.1/"
   xmlns:cc="http://creativecommons.org/ns#"
   xmlns:rdf="http://www.w3.org/1999/02/22-rdf-syntax-ns#"
   xmlns:svg="http://www.w3.org/2000/svg"
   xmlns="http://www.w3.org/2000/svg"
   xmlns:sodipodi="http://sodipodi.sourceforge.net/DTD/sodipodi-0.dtd"
   xmlns:inkscape="http://www.inkscape.org/namespaces/inkscape"
   version="1.1"
   id="svg869"
   width="850.92871"
   height="746.52594"
   viewBox="0 0 850.92871 746.52593"
   sodipodi:docname="T--USP_SaoCarlos-Brazil--pr-grad.svg"
   inkscape:version="0.92.2 5c3e80d, 2017-08-06">
  <metadata
     id="metadata875">
    <rdf:RDF>
      <cc:Work
         rdf:about="">
        <dc:format>image/svg+xml</dc:format>
        <dc:type
           rdf:resource="http://purl.org/dc/dcmitype/StillImage" />
        <dc:title></dc:title>
      </cc:Work>
    </rdf:RDF>
  </metadata>
  <defs
     id="defs873" />
  <sodipodi:namedview
     pagecolor="#000000"
     bordercolor="#666666"
     borderopacity="1"
     objecttolerance="10"
     gridtolerance="10"
     guidetolerance="10"
     inkscape:pageopacity="0"
     inkscape:pageshadow="2"
     inkscape:window-width="1287"
     inkscape:window-height="593"
     id="namedview871"
     showgrid="false"
     fit-margin-top="0"
     fit-margin-left="0"
     fit-margin-right="0"
     fit-margin-bottom="0"
     inkscape:zoom="0.36358727"
     inkscape:cx="269.45174"
     inkscape:cy="429.82739"
     inkscape:window-x="0"
     inkscape:window-y="0"
     inkscape:window-maximized="0"
     inkscape:current-layer="svg869" />
  <path
     style="fill:#ffffff"
     d="m 74.142332,745.9925 c -17.16908,-2.06838 -32.9763,-9.35984 -45.18034,-20.84052 -12.04133,-11.32762 -18.38186,-21.61264 -23.2095797,-37.64841 -2.09258,-6.95073 -2.10931,-7.95783 -2.37609,-143.07931 l -0.26868,-136.07932 2.11596,-1.91492 c 2.06249,-1.86652 5.4771597,-1.91451 135.1234577,-1.89875 l 133.0075,0.0162 1.89388,2.33886 c 2.20597,2.72425 2.63272,12.40162 0.73095,16.57556 -2.06666,4.53582 -5.42388,4.79007 -58.33706,4.41803 -52.18247,-0.36691 -52.89189,-0.30907 -53.99766,4.40255 -0.28671,1.22163 -0.62952,54.06126 -0.76181,117.4214 -0.15691,75.14964 -0.58819,115.54501 -1.24053,116.19188 -0.65327,0.64781 -3.59301,0.66461 -8.47855,0.0485 -5.89713,-0.74372 -8.01174,-1.47629 -10,-3.4643 l -2.52145,-2.52121 -0.52085,-114.72759 c -0.28647,-63.10017 -0.62397,-114.82425 -0.75,-114.9424 -2.56221,-2.40195 -7.459,-2.62227 -57.028288,-2.56579 -48.7592,0.0556 -52.43273,0.18047 -54.27274,1.84566 -1.94727,1.76226 -1.96995,3.42724 -1.70086,124.86051 l 0.27274,123.07444 2.65616,7.26622 c 3.52607,9.64594 7.69276,15.93125 15.20807,22.9409 7.23565,6.74882 14.56689,10.69566 24.80733,13.35528 6.88678,1.78862 11.86982,1.90436 82.684098,1.92046 82.88876,0.0189 80.63297,0.1678 94.14434,-6.21604 8.91153,-4.21051 18.58439,-14.09789 23.37335,-23.89173 3.15978,-6.462 4.58099,-10.91719 7.05309,-22.10986 0.67788,-3.06917 1.52132,-3.3603 12.14551,-4.19229 4.94404,-0.38717 7.59987,-0.16779 8.82642,0.72909 1.02706,0.751 2.79484,5.20406 4.26376,10.74043 5.01035,18.8841 14.57823,31.68103 28.68383,38.36429 14.20792,6.73173 12.211,6.59325 95.07358,6.59325 82.95855,0 80.30215,0.18808 94.31411,-6.6777 13.45104,-6.59093 24.21241,-20.9341 28.75238,-38.3223 0.95092,-3.64202 1.92298,-12.21597 2.21079,-19.5 1.02913,-26.04541 -5.29398,-39.92791 -27.35196,-60.0517 -12.9406,-11.80588 -24.25438,-23.13252 -58.84486,-58.91176 -14.3,-14.79144 -29.825,-30.23172 -34.5,-34.31173 -12.77613,-11.15011 -13.20166,-12.88766 -5.24058,-21.3987 3.84554,-4.11119 5.07097,-4.82611 8.2723,-4.82611 3.63824,0 5.87833,2.11588 70.27396,66.37717 36.58376,36.50744 67.23106,67.7601 68.10512,69.45034 1.34727,2.60533 1.58695,7.53357 1.57442,32.37283 -0.0159,31.42288 -0.38717,34.67644 -5.68347,49.79966 -6.09672,17.40878 -22.56647,34.15083 -41.66774,42.35666 -16.70366,7.17581 -17.93327,7.25952 -103.63401,7.0553 -80.68918,-0.19228 -79.51089,-0.11333 -95.87424,-6.42371 -10.52334,-4.05822 -20.06521,-10.94153 -29.95265,-21.60721 -4.98365,-5.3759 -8.49917,-8.42523 -9.03811,-7.83955 -0.48511,0.52718 -3.69862,4.26587 -7.14113,8.30821 -11.44642,13.44084 -24.09041,20.9422 -43.49387,25.80381 -5.01324,1.25609 -18.33455,1.55391 -81,1.8109 -41.25,0.16917 -77.924998,-0.0448 -81.499998,-0.47548 z m 504.258798,0.19981 c -3.78521,-0.5498 -5.2588,-3.90592 -5.2588,-11.97699 0,-12.44208 -6.12491,-11.20941 55.78518,-11.22706 29.54315,-0.008 54.20995,-0.34592 54.81512,-0.75 3.34098,-2.23084 3.39967,-4.25571 3.40344,-117.41895 0.004,-110.88911 0.0294,-112.35779 2.02189,-115.62592 3.71252,-6.08924 15.06,-8.13726 20.05249,-3.61912 1.95251,1.76699 1.99526,3.05526 1.92014,57.86826 -0.0423,30.83357 -0.0591,57.29854 -0.0376,58.81104 0.0216,1.5125 0.93929,3.65 2.03929,4.75 1.94921,1.94921 3.33333,2 54.5,2 51.16667,0 52.55079,-0.0508 54.5,-2 1.95788,-1.95788 1.99963,-3.32139 1.98264,-64.75 -0.0193,-69.79432 -0.0943,-70.75533 -6.54173,-83.80384 -7.71101,-15.6059 -24.25001,-27.75534 -40.65272,-29.86323 -8.07931,-1.03826 -79.27551,-1.40466 -119.78819,-0.61647 -43.4087,0.84453 -42.57417,0.74364 -53.98778,6.52735 -6.97351,3.53374 -16.48186,12.7635 -21.01954,20.40368 -2.47722,4.17095 -4.86891,10.25057 -6.49423,16.5082 -1.41507,5.44813 -2.79737,10.26896 -3.07179,10.71297 -0.65306,1.05668 -7.24108,2.87019 -10.42666,2.87019 -1.375,0 -4.2075,-0.47417 -6.29445,-1.0537 -4.23813,-1.17691 -5.63232,-3.51656 -7.70803,-12.93515 -2.99091,-13.57129 -13.12223,-28.11347 -24.23193,-34.78176 -12.12691,-7.27882 -12.62871,-7.36055 -51.26559,-8.34983 -34.15419,-0.8745 -118.52123,-0.34571 -125.5,0.7866 -20.15786,3.27064 -35.88338,16.9045 -43.38368,37.61321 -5.33289,14.72436 -5.79075,35.7743 -1.09982,50.5634 4.82747,15.21955 12.06384,24.73211 34.4835,45.33022 15.68865,14.41398 28.76146,27.32678 67.77945,66.9498 23.99856,24.37065 25.2206,25.79485 25.2206,29.39286 0,3.1893 -0.76035,4.54156 -4.85714,8.63836 -8.62014,8.62013 -1.89753,13.99839 -79.59202,-63.67566 -48.18465,-48.17197 -68.57083,-69.19152 -68.61813,-70.75 -0.037,-1.21946 -0.008,-15.64973 0.0634,-32.06727 0.15108,-34.49354 0.3196,-35.43572 9.72356,-54.36186 4.88356,-9.82852 6.44756,-11.99796 12.67561,-17.58246 13.23597,-11.86827 23.59551,-17.78879 38.07886,-21.76224 7.60922,-2.08756 9.31778,-2.13005 87.39339,-2.17338 78.14474,-0.0434 79.77578,-0.005 87.30583,2.07731 14.01756,3.87549 20.81415,7.11959 30.8266,14.71391 5.76579,4.37328 12.5274,11.26169 15.48466,15.77503 0.95995,1.46507 2.28269,2.66376 2.93943,2.66376 0.65674,0 4.45809,-3.59732 8.44746,-7.99405 8.41862,-9.27827 16.95104,-15.66954 27.28817,-20.44039 15.51182,-7.1591 11.37808,-6.8732 100.84028,-6.97445 75.63528,-0.0856 80.95323,0.0225 88,1.78882 31.61601,7.92479 53.79976,31.61417 59.57654,63.62007 1.05746,5.85879 1.36132,23.9426 1.38857,82.63922 0.0326,70.12101 -0.082,75.28009 -1.71511,77.24866 -1.74295,2.10094 -2.00881,2.11046 -65.97264,2.36078 -63.42016,0.2482 -64.24848,0.27717 -66.2897,2.31881 -2.0315,2.03191 -2.07067,2.97317 -2.27736,54.7221 l -0.2103,52.65461 -2.27028,2.27042 -2.27028,2.27041 -62.72972,0.0146 c -34.50135,0.008 -63.73826,-0.13186 -64.97092,-0.3109 z m 160.2412,-376.18874 c -1.12339,-1.81768 0.56589,-2.99978 4.30902,-3.01531 2.03004,-0.008 4.31905,-0.41301 5.0867,-0.89908 2.31384,-1.46512 0.47667,-4.08561 -2.86434,-4.08561 -3.31908,0 -4.05016,-1.9096 -1.53138,-4 1.7584,-1.45934 1.96607,-3 0.40437,-3 -2.3056,0 -7.03837,-4.34148 -9.08536,-8.33421 -2.69789,-5.26236 -2.86212,-13.75054 -0.36115,-18.66579 3.42784,-6.73684 10.59111,-11.01018 18.41426,-10.98526 7.11837,0.0227 9.62788,1.72076 9.62788,6.51479 0,3.39214 -0.29132,3.93187 -2,3.70546 -12.70872,-1.68396 -12.18439,-1.7506 -15.96383,2.02884 -4.72351,4.72351 -4.94383,10.13378 -0.60964,14.97039 2.88014,3.21401 3.0554,3.26317 11.05526,3.10137 l 8.12874,-0.16441 -0.30527,3.66441 c -0.28311,3.39848 -0.64924,3.77858 -5.04515,5.23763 -5.97133,1.98196 -6.45908,2.49694 -4.45853,4.70753 2.01231,2.22358 1.24861,6.05357 -1.68436,8.44701 -2.34627,1.91469 -12.0578,2.48642 -13.11722,0.77224 z m -731.5348777,-13.5 c -0.0192,-0.275 -0.0516,-9.1625 -0.072,-19.75 l -0.0371,-19.25 9.1336397,-0.28834 9.13364,-0.28834 3.43834,3.43834 c 3.89672,3.89672 4.55702,8.57438 1.92799,13.65836 -1.73806,3.36103 -4.14948,4.84652 -10.48396,6.45831 l -4.50569,1.14647 -0.29206,7.6876 -0.29207,7.6876 h -3.95793 c -2.1768697,0 -3.9736397,-0.225 -3.9928197,-0.5 z M 23.162552,330.9658 c 2.18798,-4.0883 -2.00376,-8.33373 -6.51798,-6.60146 -1.51937,0.58304 -2.1555,6.65263 -0.83557,7.97256 1.50655,1.50656 6.29089,0.6145 7.35355,-1.3711 z m 17.42499,24.7556 c -0.27061,-0.7052 -0.36898,-9.5927 -0.21861,-19.75 l 0.2734,-18.46783 8.5,-0.26666 c 7.0109,-0.21994 9.05861,0.0775 11.68863,1.69799 5.91529,3.64463 6.26726,12.37394 0.73189,18.15163 l -2.61887,2.73351 4.22386,7.10981 c 2.32312,3.91039 4.62509,7.35778 5.11549,7.66086 1.81887,1.12413 -0.3788,2.41286 -4.11463,2.41286 -3.66936,0 -4.08915,-0.34775 -8.69098,-7.19961 -2.65946,-3.95979 -5.39789,-7.37229 -6.08539,-7.58333 -0.92384,-0.2836 -1.25,1.59495 -1.25,7.19961 v 7.58333 h -3.53139 c -1.94987,0 -3.75173,-0.57421 -4.0234,-1.28217 z m 15.35479,-23.91783 c 1.64015,-1.64015 1.51036,-5.29753 -0.23953,-6.74981 -0.79174,-0.65709 -2.70424,-1.04969 -4.25,-0.87245 -2.24778,0.25774 -2.87545,0.88975 -3.13504,3.15673 -0.17852,1.55896 -0.0801,3.47146 0.21861,4.25 0.66192,1.72492 5.74854,1.87295 7.40596,0.21553 z m 29.43355,23.03143 c -9.07036,-4.3984 -13.46057,-17.26875 -8.98193,-26.33143 1.71708,-3.47457 7.12116,-8.60269 10.6205,-10.07817 9.14388,-3.85545 20.865048,0.29444 25.366188,8.98092 2.74994,5.30695 2.67645,13.88385 -0.1667,19.45689 -4.64783,9.11049 -16.952628,12.76542 -26.838058,7.97179 z m 15.836328,-9.09954 c 6.36649,-4.29037 6.36649,-13.17341 0,-17.46378 -5.816038,-3.91943 -13.501368,-2.20195 -16.552948,3.69916 -2.80487,5.42401 -1.33483,10.53635 4.0505,14.08639 3.89502,2.56761 8.38643,2.45202 12.502448,-0.32177 z m 39.39868,10.04678 c -0.28345,-0.73866 -0.39233,-9.65354 -0.24196,-19.81084 l 0.2734,-18.46783 8.5487,-0.286 c 7.52712,-0.25182 8.95292,-0.0128 11.93127,2 5.68047,3.83895 6.38531,11.94177 1.49756,17.21574 -1.36264,1.47032 -2.47753,3.23331 -2.47753,3.91777 0,0.68445 2.025,4.52891 4.5,8.54324 2.475,4.01433 4.5,7.48114 4.5,7.70402 0,0.22288 -1.94646,0.40523 -4.32546,0.40523 -4.29382,0 -4.36023,-0.0549 -9.07653,-7.5 -2.61309,-4.125 -5.3317,-7.5 -6.04136,-7.5 -0.94582,0 -1.25911,1.93555 -1.17347,7.25 l 0.11682,7.25 -3.75804,0.31084 c -2.45808,0.20332 -3.9363,-0.15372 -4.2734,-1.03217 z m 15.96151,-24.98229 c 2.24997,-3.21229 0.0203,-6.29638 -4.55204,-6.29638 -3.18158,0 -3.3818,0.20354 -3.4429,3.5 -0.0857,4.6269 0.18044,5 3.56718,5 1.8395,0 3.44338,-0.79822 4.42776,-2.20362 z m 21.53505,25.73745 c -0.0192,-0.29361 -0.0506,-9.19633 -0.0698,-19.78383 l -0.0349,-19.25 h 10.81976 10.81977 v 4 4 l -6.5,0.5 c -5.66667,0.4359 -6.5,0.75641 -6.5,2.5 0,1.74359 0.83333,2.0641 6.5,2.5 l 6.5,0.5 v 4 c 0,3.85526 -0.12664,4.0094 -3.5,4.25987 -9.24502,0.68643 -10.14255,1.10243 -9.80915,4.54654 0.30714,3.17283 0.35139,3.19684 6.80915,3.69359 l 6.5,0.5 v 4 4 l -10.75,0.28383 c -5.9125,0.15611 -10.7657,0.0436 -10.78488,-0.25 z m 27.98119,-0.22346 c -0.0295,-0.44571 -0.0708,-9.36037 -0.0917,-19.81037 l -0.038,-19 h 3.8417 3.8417 v 19.5 19.5 l -3.75,0.31037 c -2.0625,0.1707 -3.77416,-0.0543 -3.80369,-0.5 z m 23.5331,-0.56037 c -0.2518,-0.6875 -0.57517,-7.55 -0.71861,-15.25 l -0.2608,-14 -4.25,-0.3075 -4.25,-0.3075 v -4.47152 -4.47153 l 13.25,0.27902 13.25,0.27903 -0.16211,3.5 c -0.0892,1.925 -0.20166,3.8375 -0.25,4.25 -0.0483,0.4125 -1.55039,0.75689 -3.33789,0.76531 -4.11323,0.0194 -5.9776,1.19156 -5.72103,3.59697 0.11073,1.03825 0.14952,7.62522 0.0862,14.63772 l -0.11517,12.75 h -3.53138 c -1.94227,0 -3.73741,-0.5625 -3.98921,-1.25 z m 31.92809,-0.27017 c -6.23219,-2.73477 -11.39635,-11.10874 -11.39635,-18.47983 0,-14.65133 15.0808,-24.22956 28.53022,-18.12034 14.77076,6.70943 14.8633,29.49354 0.14693,36.17489 -4.87078,2.21138 -12.76762,2.40571 -17.2808,0.42528 z m 16.1925,-10.87983 c 2.7873,-2.7873 3.4,-4.15686 3.4,-7.6 0,-3.44314 -0.6127,-4.8127 -3.4,-7.6 -2.7873,-2.7873 -4.15686,-3.4 -7.6,-3.4 -3.44314,0 -4.8127,0.6127 -7.6,3.4 -2.79544,2.79544 -3.4,4.15248 -3.4,7.63192 0,3.55714 0.56943,4.76897 3.5712,7.6 5.03295,4.74669 10.2613,4.73558 15.0288,-0.0319 z m 19.32086,11.65 c -0.0435,-0.4125 -0.0647,-9.3 -0.0471,-19.75 l 0.032,-19 9.10879,-0.28834 9.10879,-0.28834 3.43834,3.43834 c 2.66165,2.66165 3.43834,4.26276 3.43834,7.088 0,3.90934 -1.89077,8.38487 -4.43406,10.49562 -2.2911,1.90144 -2.02181,2.85507 2.93607,10.39767 2.4739,3.76362 4.49799,7.25112 4.49799,7.75 0,0.49888 -1.9125,0.89711 -4.25,0.88496 -4.19504,-0.0218 -4.31082,-0.11879 -8.95304,-7.5 -2.5867,-4.11285 -5.1742,-7.47791 -5.75002,-7.47791 -0.63622,0 -1.04696,2.94241 -1.04696,7.5 v 7.5 h -4 c -2.2,0 -4.03561,-0.3375 -4.07914,-0.75 z m 15.82914,-25.0421 c 0.6875,-0.87459 1.25,-2.10941 1.25,-2.74404 0,-2.02339 -3.75269,-4.63624 -6.16753,-4.29422 -1.9195,0.27187 -2.38898,1.02054 -2.65167,4.22857 -0.20021,2.445 0.17259,4.20725 1,4.72718 1.70062,1.06863 4.97261,0.11356 6.5692,-1.91749 z m 20.91784,25.06367 c -0.28488,-0.46094 -0.43918,-9.37311 -0.3429,-19.80482 l 0.17506,-18.96675 h 4 4 v 19.5 19.5 l -3.6571,0.30483 c -2.0114,0.16765 -3.89018,-0.0723 -4.17506,-0.53326 z m 14.33216,-0.0241 c 0,-0.67552 2.67873,-7.75212 11.82823,-31.24748 2.83313,-7.27528 3.02177,-7.5 6.2962,-7.5 h 3.37557 l 7.70961,19 c 4.24028,10.45 7.72778,19.3375 7.75,19.75 0.0222,0.4125 -1.67626,0.75 -3.7744,0.75 -3.37518,0 -4.00712,-0.40333 -5.48382,-3.5 l -1.66903,-3.5 h -7.54991 -7.5499 l -2.06505,3.5 c -1.71647,2.90921 -2.63917,3.5 -5.46628,3.5 -1.87067,0 -3.40122,-0.33863 -3.40122,-0.75252 z m 22.41473,-14.10951 c 0.87521,-1.41612 -2.60415,-9.13797 -4.11745,-9.13797 -0.76963,0 -2.05137,1.56055 -2.84831,3.46788 -2.33297,5.58359 -1.97111,6.53212 2.49201,6.53212 2.16754,0 4.18073,-0.38792 4.47375,-0.86203 z m 37.43527,-3.63797 c -0.0825,-10.175 -0.195,-19.0625 -0.25,-19.75 -0.0723,-0.90321 2.53561,-1.32002 9.4,-1.5024 8.31637,-0.22096 9.99469,0.0301 13.47043,2.01523 7.27811,4.15674 10.58457,12.21627 9.09283,22.16391 -0.90262,6.01905 -4.20185,10.62993 -9.53322,13.32326 -3.61211,1.82478 -6.11465,2.25 -13.24193,2.25 h -8.78811 z m 19.2187,7.23269 c 9.02323,-6.08076 3.53847,-20.59903 -7.38238,-19.5413 l -3.18632,0.30861 -0.28984,9.42498 c -0.15941,5.18374 -0.061,10.02124 0.21861,10.75 0.80332,2.09341 6.94197,1.54976 10.63993,-0.94229 z m 20.37651,9.98514 c -0.2706,-0.7052 -0.36898,-9.5927 -0.21861,-19.75 l 0.2734,-18.46783 10.63678,-0.28268 10.63678,-0.28269 0.39966,3.42337 c 0.60984,5.22374 0.16084,5.642 -6.05655,5.642 -5.88085,0 -8.35808,1.20731 -7.43154,3.62186 0.36361,0.94754 2.30762,1.37814 6.22186,1.37814 3.13115,0 6.14269,0.44968 6.69229,0.99928 0.54961,0.54961 0.81538,2.57461 0.5906,4.5 -0.36555,3.13121 -0.74019,3.51635 -3.54929,3.64878 -1.72732,0.0814 -3.81559,0.23981 -4.64059,0.35194 -0.825,0.11213 -2.31601,0.27051 -3.31336,0.35194 -1.42093,0.11602 -1.74554,0.85139 -1.5,3.39806 0.31257,3.24182 0.32973,3.25126 6.81336,3.75 4.34659,0.33435 6.46687,0.91412 6.4,1.75 -0.055,0.6875 -0.1675,2.6 -0.25,4.25 l -0.15,3 h -10.53138 c -7.64356,0 -10.66631,-0.35159 -11.02341,-1.28217 z m 56.21729,-0.13488 c -4.0925,-1.80952 -8.50934,-6.28063 -10.19882,-10.32412 -1.73355,-4.14896 -1.92717,-13.4864 -0.34369,-16.57457 1.89611,-3.69787 7.20845,-8.76825 10.75213,-10.26243 7.01856,-2.95932 16.62988,-0.9496 21.56721,4.50971 1.92714,2.13088 1.92329,2.16039 -0.61296,4.69664 l -2.55229,2.55229 -4.0972,-2.09023 c -5.09474,-2.59914 -8.8204,-2.64166 -12.60945,-0.1439 -5.45398,3.59529 -6.93199,8.93506 -3.89583,14.07488 3.17722,5.3786 12.57456,7.50916 16.98309,3.8504 2.23301,-1.85324 1.54058,-2.73473 -2.40469,-3.06125 -3.43397,-0.28421 -3.77666,-0.58762 -4.06633,-3.60027 l -0.31634,-3.2899 8.81634,0.2899 8.81633,0.2899 -0.20207,4.37838 c -0.53018,11.48761 -14.62544,19.57269 -25.63543,14.70457 z m 31.80606,0.19572 c -0.28345,-0.73866 -0.39233,-9.65354 -0.24196,-19.81084 l 0.2734,-18.46783 8.8526,-0.29043 c 8.18809,-0.26863 9.1045,-0.0983 12.20827,2.26906 2.20301,1.68032 3.57576,3.73278 3.99646,5.97525 0.7853,4.18604 -1.07935,10.23067 -3.65149,11.837 -2.79017,1.74249 -2.40146,3.46443 2.59416,11.49188 2.475,3.97706 4.5,7.45293 4.5,7.72413 0,0.27121 -1.97842,0.49311 -4.39649,0.49311 -4.38902,0 -4.40446,-0.0128 -9.07104,-7.5 -2.571,-4.125 -5.07287,-7.5 -5.5597,-7.5 -0.48683,0 -1.01737,3.2625 -1.17896,7.25 l -0.29381,7.25 -3.75804,0.31084 c -2.45808,0.20332 -3.9363,-0.15372 -4.2734,-1.03217 z m 15.17563,-24.14904 c 2.69614,-2.31912 2.71847,-2.4272 1.03271,-5 -1.22185,-1.86477 -2.58889,-2.62963 -4.69995,-2.62963 -2.85325,0 -2.97695,0.18353 -2.97695,4.41667 0,3.98089 0.72087,5.22312 3.19424,5.50438 0.38183,0.0434 1.9343,-0.98771 3.44995,-2.29142 z m 20.35581,24.3568 c 0,-0.55746 0.41603,-1.79496 0.9245,-2.75 0.50848,-0.95504 3.81959,-9.14305 7.35802,-18.19558 3.53844,-9.05253 7.10276,-16.8813 7.92072,-17.39726 1.98506,-1.25214 6.79676,0.0289 6.79676,1.80955 0,0.77827 1.08829,4.03219 2.41842,7.23095 5.86097,14.09468 11.58158,28.63674 11.58158,29.4409 0,0.48125 -1.71879,0.87501 -3.81953,0.87501 -3.34912,0 -3.99571,-0.40027 -5.25,-3.25 l -1.43047,-3.25 h -8 -8 l -1.43047,3.25 c -1.25429,2.84973 -1.90088,3.25 -5.25,3.25 -2.10074,0 -3.81953,-0.45611 -3.81953,-1.01357 z m 23,-13.703 c 0,-0.39411 -0.74369,-2.66388 -1.65263,-5.04393 -2.02828,-5.31096 -4.02482,-5.22323 -5.92859,0.2605 -1.92483,5.54441 -1.94971,5.5 3.08122,5.5 2.475,0 4.5,-0.32246 4.5,-0.71657 z m 20.44521,13.4344 c -0.2706,-0.7052 -0.36898,-9.5927 -0.21861,-19.75 l 0.2734,-18.46783 8.43793,-0.29348 c 9.26969,-0.32241 12.99772,0.68515 17.40135,4.70296 10.24967,9.35168 7.3532,28.43173 -5.10641,33.63769 -4.51181,1.88515 -20.08069,2.01297 -20.78766,0.17066 z m 17.54375,-9.21212 c 3.96591,-2.05085 6.01104,-5.28497 6.01104,-9.50571 0,-1.95524 -0.70232,-4.55769 -1.5607,-5.78321 -3.05497,-4.36157 -11.26874,-6.84303 -13.13028,-3.96679 -1.18494,1.83082 -1.23972,18.03539 -0.0659,19.5 1.35039,1.68496 5.22436,1.57675 8.74587,-0.24429 z m 29.36773,8.95338 c -1.72882,-0.75776 -4.18059,-3.05612 -5.44838,-5.10744 -2.13168,-3.44913 -2.30447,-4.82502 -2.29702,-18.29067 l 0.008,-14.56098 h 3.94032 3.94033 l 0.5,13.14967 c 0.42146,11.08403 0.79925,13.47961 2.40499,15.25 2.50077,2.75721 6.70524,2.67635 9.38918,-0.18058 1.92705,-2.05124 2.17115,-3.58675 2.42432,-15.25 l 0.28157,-12.96909 h 4 4 v 14 c 0,16.15005 -1.42372,20.61733 -7.56863,23.74845 -4.03675,2.05691 -11.1432,2.15303 -15.57468,0.21064 z m 29.34815,0.79091 c -0.22725,-0.4125 3.02489,-9.3 7.22699,-19.75 l 7.64018,-19 h 3.30611 3.30611 l 7.18131,18 c 3.94973,9.9 7.49604,18.49973 7.8807,19.11052 1.03883,1.6495 -0.17956,2.38948 -3.93435,2.38948 -2.70018,0 -3.59051,-0.53658 -4.56297,-2.75 -1.71071,-3.89374 -2.46309,-4.21937 -9.74892,-4.21937 -7.41527,0 -8.4727,0.45227 -9.91269,4.23972 -0.85475,2.24816 -1.64914,2.72965 -4.50354,2.72965 -1.90616,0 -3.65167,-0.3375 -3.87893,-0.75 z m 22.60909,-14 c 0.81586,-1.41656 -3.22613,-9.25 -4.77292,-9.25 -0.84756,0 -1.54378,0.5625 -1.54717,1.25 -0.003,0.6875 -0.676,2.53434 -1.49469,4.10408 -0.8187,1.56974 -1.23937,3.25724 -0.93483,3.75 0.6685,1.08164 8.13892,1.20623 8.74961,0.14592 z m 55.68607,13.41667 c 0,-0.73334 0.30394,-1.63728 0.67543,-2.00876 0.37148,-0.37149 3.6964,-8.42432 7.38871,-17.89518 3.6923,-9.47086 7.36871,-17.63318 8.16979,-18.13849 0.80109,-0.50531 2.53867,-0.6279 3.86129,-0.27242 2.04147,0.54867 3.45487,3.32807 9.35551,18.39725 3.8229,9.76301 7.30649,18.24233 7.74132,18.84294 1.15916,1.60109 -0.10077,2.40799 -3.75994,2.40799 -2.63663,0 -3.6163,-0.647 -5.29961,-3.5 -2.03922,-3.45621 -2.14991,-3.49981 -8.84877,-3.48469 -7.71088,0.0174 -8.75017,0.45111 -10.19642,4.25504 -0.89302,2.34882 -1.59933,2.72965 -5.06256,2.72965 -2.68729,0 -4.02475,-0.44308 -4.02475,-1.33333 z m 23.29764,-13.41667 c 0.7184,-1.29618 -3.30907,-9.25 -4.68379,-9.25 -1.44932,0 -4.87449,7.76925 -4.02858,9.13797 0.6534,1.05722 8.13519,1.15343 8.71237,0.11203 z m 29.57341,12.74401 c -14.45564,-7.63857 -14.33053,-28.61733 0.2149,-36.03786 4.83354,-2.46588 12.12484,-2.49783 17.45542,-0.0765 14.48996,6.58188 15.03406,27.84955 0.91704,35.8454 -5.08161,2.87822 -13.4211,2.99888 -18.58736,0.26895 z m 16.72895,-10.39401 c 2.7873,-2.7873 3.4,-4.15686 3.4,-7.6 0,-3.44314 -0.6127,-4.8127 -3.4,-7.6 -2.7873,-2.7873 -4.15686,-3.4 -7.6,-3.4 -3.44314,0 -4.8127,0.6127 -7.6,3.4 -2.79544,2.79544 -3.4,4.15248 -3.4,7.63192 0,3.55714 0.56943,4.76897 3.5712,7.6 5.03295,4.74669 10.2613,4.73558 15.0288,-0.0319 z m -719.35,2.73772 c -1.87665,-0.75725 -1.60184,-7.98873 0.33179,-8.73073 2.94719,-1.13094 14.13594,-0.65558 15.13479,0.64301 1.08326,1.40835 1.02983,5.73326 -0.0933,7.5505 -0.73317,1.18628 -12.72612,1.60538 -15.3733,0.53722 z M 90.924482,313.45238 c -0.30316,-0.30315 0.30735,-2.32815 1.35667,-4.5 1.74734,-3.61657 2.24244,-3.94881 5.88452,-3.94881 2.187158,0 3.974508,0.3375 3.971878,0.75 -0.003,0.4125 -1.55468,2.4375 -3.449008,4.5 -3.10527,3.38094 -6.27571,4.68717 -7.76406,3.19881 z m 687.772758,-0.35997 c -0.90914,-1.47101 1.08539,-4.8399 3.27729,-5.53558 1.00888,-0.32021 3.79065,0.10803 6.1817,0.95164 2.95331,1.04199 4.67423,1.20697 5.36673,0.51447 1.17482,-1.17482 5.63034,-1.38925 5.59713,-0.26937 -0.0122,0.4125 -0.85329,1.83094 -1.86902,3.1521 -1.62209,2.10982 -2.31901,2.30697 -5.72777,1.62031 -5.04569,-1.01641 -8.48266,-1.05973 -10.52982,-0.13271 -0.90702,0.41072 -1.94012,0.27536 -2.29624,-0.30086 z m -15.45879,-41.9431 c -0.77213,-0.52469 -6.38622,-1.00872 -12.47576,-1.07562 -6.08954,-0.0669 -11.5103,-0.56006 -12.04613,-1.09589 -0.53583,-0.53583 -3.27322,-0.97423 -6.0831,-0.97423 -2.94395,0 -5.93144,-0.62216 -7.05,-1.4682 -1.06762,-0.8075 -3.37707,-1.4825 -5.13211,-1.5 -1.75504,-0.0175 -3.4691,-0.4818 -3.80902,-1.0318 -0.33992,-0.55 -1.91492,-1 -3.5,-1 -1.58508,0 -3.16008,-0.45 -3.5,-1 -0.33992,-0.55 -1.29318,-1 -2.11836,-1 -2.0997,0 -18.38164,-8.09934 -18.38164,-9.14382 0,-0.4709 -0.8625,-0.85618 -1.91667,-0.85618 -1.05416,0 -2.06666,-0.35614 -2.25,-0.79142 -0.18333,-0.43528 -2.13333,-2.12278 -4.33333,-3.75 -6.77967,-5.01455 -11.479,-9.68354 -10.81988,-10.75002 0.34589,-0.55967 0.14865,-0.72077 -0.43832,-0.358 -1.26644,0.7827 -10.42006,-9.35144 -12.96208,-14.35056 -0.97884,-1.925 -2.27526,-3.95 -2.88092,-4.5 -2.07683,-1.88597 -6.3988,-10.75169 -6.3988,-13.12595 0,-1.30573 -0.38886,-2.37405 -0.86414,-2.37405 -1.17485,0 -5.22489,-11.5379 -7.21435,-20.55247 -2.55494,-11.57687 -4.82449,-39.69858 -3.47871,-43.10411 0.40066,-1.01388 0.92284,-5.44342 1.16039,-9.84342 0.23756,-4.4 0.95185,-10.25 1.58732,-13 0.63547,-2.75 1.22018,-5.675 1.29936,-6.5 0.0792,-0.825 0.69492,-3.3 1.3683,-5.5 0.67339,-2.2 1.70189,-5.799995 2.28556,-7.999995 0.58368,-2.2 1.69011,-5.19443 2.45875,-6.65429 0.76864,-1.45986 1.39752,-3.31292 1.39752,-4.11791 0,-1.57457 8.51419,-18.74664 9.75304,-19.67066 0.41083,-0.30643 1.61673,-2.13214 2.67979,-4.05714 5.86308,-10.61699 20.54736,-25.77478 35.06717,-36.19795 5.85487,-4.20298 20.604,-11.80205 22.90673,-11.80205 0.8763,0 1.59327,-0.39893 1.59327,-0.8865 0,-1.3100101 5.8761,-1.9408501 6.39664,-0.68672 0.24501,0.59027 0.48484,0.39822 0.53296,-0.42678 0.0962,-1.6494701 9.75761,-5.0491901 14.26138,-5.0184001 1.48004,0.0101 2.9691,-0.4316 3.30902,-0.9816 0.33992,-0.55 2.72898,-1.00534 5.30902,-1.01187 2.58004,-0.007 7.16598,-0.67619 10.19098,-1.48813 6.48866,-1.74162998 32.59894,-2.06444998 38.0066,-0.46991 1.92137,0.56655 8.2184,1.45764 13.9934,1.9802 21.93529,1.98486 28.08251,4.14783 31.94125,11.2389001 1.93647,3.55856 2.46569,6.61215 3.24975,18.75081 1.27966,19.81137 0.20216,53.07436 -1.9112,59 -2.07802,5.82655 -6.42528,10.427395 -11.20606,11.859755 -4.43686,1.32932 -18.07374,1.54111 -18.07374,0.28071 0,-0.47274 -3.21298,-0.94061 -7.13995,-1.03972 -3.92698,-0.0991 -8.08948,-0.70791 -9.25,-1.35292 -1.16053,-0.645 -2.39397,-1.09499 -2.74098,-0.99997 -1.94361,0.5322 -4.1477,-4.180465 -4.4272,-9.466035 -0.6956,-13.15399 -2.12611,-16.49232 -8.50176,-19.84032 -4.44328,-2.33327 -17.80898,-2.82794 -23.43347,-0.86729 -2.20365,0.76818 -4.75261,1.40323 -5.66435,1.41124 -0.91175,0.008 -4.027,1.24378 -6.9228,2.74617 -3.72725,1.93377 -5.38559,2.37007 -5.67769,1.49377 -0.22694,-0.68082 -0.87223,-0.9538 -1.43397,-0.60662 -0.64742,0.40012 -0.52461,0.97946 0.33541,1.58236 1.12443,0.78826 1.0999,1.04387 -0.14324,1.49272 -0.825,0.29788 -3.987,3.15364 -7.02666,6.34614 -5.39242,5.66357 -12.59926,18.284695 -14.82353,25.960005 -0.55786,1.925 -1.60728,5.525 -2.33205,8 -0.81092,2.76919 -1.29349,9.50013 -1.25467,17.5 0.0751,15.47407 2.07659,23.0009 8.88031,33.39544 4.04092,6.1736 13.10751,16.10456 14.70286,16.10456 0.39099,0 1.32293,0.5625 2.07098,1.25 0.74805,0.6875 2.2427,1.74049 3.32143,2.33997 1.07873,0.59949 3.98633,2.21401 6.46133,3.58783 2.475,1.37383 5.625,2.76041 7,3.08129 1.375,0.32088 6.04448,1.51886 10.37663,2.66217 6.21583,1.64043 10.85456,2.07551 22,2.06343 7.76785,-0.008 14.57337,-0.34626 15.12337,-0.75076 1.98671,-1.46111 4.5,-7.4684 4.5,-10.75595 0,-1.84797 0.44373,-3.63419 0.98606,-3.96937 1.04364,-0.645 0.79994,-6.05595 -0.32334,-7.17922 -0.36449,-0.3645 -0.66272,-1.68721 -0.66272,-2.93935 0,-1.25215 -1.00013,-2.97715 -2.22251,-3.83334 -2.49223,-1.74562 -12.28883,-2.15638 -13.27749,-0.5567 -0.33992,0.55 -1.95593,1 -3.59114,1 -1.6352,0 -4.59821,0.67902 -6.58447,1.50893 -5.61958,2.34801 -15.86998,1.78563 -19.17092,-1.0518 -2.33563,-2.00766 -2.73638,-3.27963 -3.34568,-10.619 -0.38071,-4.58597 -0.993,-10.03038 -1.36063,-12.09868 -0.5575,-3.13641 -0.2267,-4.33971 1.99309,-7.25 1.46384,-1.9192 3.53863,-3.48945 4.61064,-3.48945 1.07201,0 1.94911,-0.45 1.94911,-1 0,-0.55 0.71949,-1 1.59887,-1 0.87938,0 3.01688,-0.63991 4.75,-1.42203 3.68744,-1.66406 7.0421,-2.23886 22.85337,-3.91581 11.66329,-1.23701 24.15974,-0.60021 28.03419,1.42859 0.95504,0.50009 2.76501,0.90925 4.02216,0.90925 3.54758,0 9.04177,5.22099 12.81212,12.17502 l 3.42929,6.32498 0.71479,21.5 c 1.69418,50.95854 2.54419,67.66058 3.5703,70.15373 1.49218,3.62555 1.28451,10.76859 -0.40895,14.06663 -1.62969,3.17382 -4.23392,4.77964 -7.75138,4.77964 -1.3787,0 -2.78484,0.45 -3.12476,1 -0.33992,0.55 -2.72898,1.01431 -5.30902,1.0318 -2.58004,0.0175 -5.56449,0.6925 -6.63211,1.5 -1.21485,0.91887 -4.22678,1.4682 -8.05,1.4682 -3.35988,0 -6.53637,0.41301 -7.05887,0.9178 -1.56405,1.51103 -46.37075,3.57553 -48.35388,2.22794 z m 14.65388,-1.83507 c -0.9625,-0.25152 -2.5375,-0.25152 -3.5,0 -0.9625,0.25153 -0.175,0.45733 1.75,0.45733 1.925,0 2.7125,-0.2058 1.75,-0.45733 z M 700.8715,254.3994 c -0.33229,-0.33229 -1.1948,-0.36781 -1.91667,-0.0789 -0.79773,0.31922 -0.56078,0.55618 0.60417,0.60416 1.05416,0.0434 1.64479,-0.19293 1.3125,-0.52522 z m 146.95394,-6.58333 c -0.31922,-0.79773 -0.55618,-0.56078 -0.60416,0.60417 -0.0434,1.05416 0.19293,1.64479 0.52522,1.3125 0.33229,-0.33229 0.36781,-1.1948 0.0789,-1.91667 z m -62.41408,-43.46844 c -0.67703,-0.27392 -2.02703,-0.29059 -3,-0.0371 -0.97297,0.25354 -0.41903,0.47766 1.23097,0.49804 1.65,0.0204 2.44606,-0.18706 1.76903,-0.46099 z m 9.98097,-0.0498 c -1.2375,-0.23836 -3.2625,-0.23836 -4.5,0 -1.2375,0.23835 -0.225,0.43337 2.25,0.43337 2.475,0 3.4875,-0.19502 2.25,-0.43337 z m -2.25,-68.67768 c 0,-0.8666 -4.968,-1.25282 -6.18535,-0.48086 -0.838,0.5314 0.045,0.83921 2.43535,0.84897 2.0625,0.008 3.75,-0.15723 3.75,-0.36811 z M 738.8715,8.3994049 c -0.33229,-0.33229 -1.1948,-0.36782 -1.91667,-0.0789 -0.79773,0.31923 -0.56078,0.55619 0.60417,0.60417 1.05416,0.0434 1.64479,-0.19293 1.3125,-0.52522 z m 79,-2 c -0.33229,-0.33229 -1.1948,-0.36782 -1.91667,-0.0789 -0.79773,0.31923 -0.56078,0.55619 0.60417,0.60417 1.05416,0.0434 1.64479,-0.19293 1.3125,-0.52522 z m -22.47917,-3.10156 c -1.2375,-0.23836 -3.2625,-0.23836 -4.5,0 -1.2375,0.23835 -0.225,0.43337 2.25,0.43337 2.475,0 3.4875,-0.19502 2.25,-0.43337 z M 5.6478823,266.36626 c -0.92018,-0.92017 -2.08536,-2.75751 -2.5893,-4.08297 -1.03805,-2.73028 -1.2522,-28.34995 -0.27771,-33.22245 0.87831,-4.39152 4.45717,-6.42366 12.8142197,-7.27613 20.91796,-2.13375 23.8231,-2.94341 27.88591,-7.77178 3.0208,-3.59002 3.06062,-3.9666 2.53883,-24.00936 -0.20763,-7.975 -0.3775,-40.04269 -0.3775,-71.26153 V 61.980515 l -3.69635,-3.38834 c -3.80684,-3.48962 -4.09762,-3.56612 -19.80365,-5.21046 -3.025,-0.3167 -6.01659,-0.99834 -6.64797,-1.51475 -0.63139,-0.51641 -2.06046,-1.11466 -3.17572,-1.32944 C 7.9666423,49.699415 2.3019023,44.262725 0.80169234,39.484235 -1.4596277,32.281435 1.4458623,8.8685549 4.7588023,7.5972549 c 0.75657,-0.29033 13.6174597,-0.58806 28.5797297,-0.66163 14.96228,-0.0736 28.12657,-0.48399 29.25397,-0.91204 3.16377,-1.20123 78.117678,-1.96132 95.549828,-0.96896 8.525,0.4853 19.55,1.59848 24.5,2.47373 4.95,0.87524 10.8,1.83631 13,2.13571 2.2,0.2994 4.4275,0.9482701 4.95,1.4419401 0.5225,0.49366 1.8725,0.89628 3,0.8947 3.29096,-0.005 14.36577,4.99573 23.55,10.63297 15.28743,9.38335 25.91814,21.87756 32.8598,38.6199 0.62711,1.5125 1.56396,3.7625 2.08188,5 3.94191,9.41854 5.19067,31.17388 2.45386,42.749995 -0.97523,4.125 -2.13818,7.9275 -2.58434,8.45 -0.44616,0.5225 -0.8112,1.76611 -0.8112,2.76357 0,0.99746 -0.41906,2.59496 -0.93126,3.55 -0.51219,0.95504 -2.38768,4.88643 -4.16776,8.73643 -2.66527,5.76453 -5.20136,8.94145 -14.36912,18 -12.02508,11.88183 -15.01219,14.5 -16.54329,14.5 -0.54371,0 -0.98857,0.40543 -0.98857,0.90094 0,0.49552 -2.02331,1.73302 -4.49625,2.75 -2.47294,1.01699 -4.49794,2.18656 -4.5,2.59906 -0.002,0.4125 -0.85561,0.75 -1.89676,0.75 -1.04116,0 -2.15203,0.675 -2.46862,1.5 -0.31658,0.825 -1.27083,1.5 -2.12055,1.5 -0.84973,0 -2.32635,0.40925 -3.28139,0.90943 -4.63809,2.42915 -8.67438,3.85974 -9.73816,3.45153 -0.64781,-0.24859 -1.75504,0.2435 -2.4605,1.09353 -0.74714,0.90025 -2.87692,1.54551 -5.1012,1.54551 -2.10019,0 -4.09665,0.45 -4.43657,1 -0.33992,0.55 -2.95695,1 -5.81562,1 -2.85867,0 -6.76961,0.49474 -8.69098,1.09942 -1.92137,0.60467 -11.81483,1.26193 -21.98547,1.46057 -20.23991,0.39529 -21.82222,0.78542 -25.17266,6.20655 -4.16737,6.74294 -0.76447,21.75042 5.73962,25.31295 1.69119,0.92632 6.41619,1.94604 10.5,2.26604 12.18187,0.95455 20.33469,2.2688 22.51294,3.62914 3.2681,2.04096 4.74483,8.67615 3.48151,15.64295 -0.72548,4.0008 -0.74775,7.01691 -0.0693,9.38266 1.29246,4.50642 1.29241,12.99972 -4e-5,12.99972 -0.55,0 -1,0.60526 -1,1.34501 0,0.73976 -0.80466,2.07322 -1.78814,2.96326 -1.61342,1.46012 -9.22598,1.62357 -77.910698,1.67285 -69.87497,0.0501 -76.2598797,-0.0827 -77.7956097,-1.61843 z M 160.14233,265.00357 c 0,-0.55 -0.45,-1 -1,-1 -0.55,0 -1,0.45 -1,1 0,0.55 0.45,1 1,1 0.55,0 1,-0.45 1,-1 z m -17.5,-41 c 1.68588,-0.72445 1.49883,-0.87047 -1.19098,-0.92971 -1.75504,-0.0387 -3.4691,0.37971 -3.80902,0.92971 -0.74125,1.19936 2.20893,1.19936 5,0 z M 28.871502,223.3994 c -0.3323,-0.33229 -1.19479,-0.36781 -1.91667,-0.0789 -0.79773,0.31922 -0.56078,0.55618 0.60417,0.60416 1.05416,0.0434 1.64479,-0.19293 1.3125,-0.52522 z M 153.9782,130.36909 c 3.66527,-0.89897 7.78913,-2.13451 9.16413,-2.74565 3.53768,-1.57238 14.67393,-8.59893 13.64641,-8.61037 -0.46948,-0.005 0.58738,-1.65068 2.34858,-3.65657 10.37238,-11.81349 9.36309,-30.749905 -2.29598,-43.077665 -2.74402,-2.90139 -5.59885,-5.27526 -6.34407,-5.27526 -0.74522,0 -1.35494,-0.45 -1.35494,-1 0,-0.55 -0.92958,-1 -2.06574,-1 -1.13616,0 -3.04866,-0.53217 -4.25,-1.18259 -1.20134,-0.65042 -6.90926,-1.52611 -12.68426,-1.94596 -5.775,-0.41985 -12.12806,-1.05498 -14.11791,-1.41139 -5.84585,-1.04709 -11.75875,2.60716 -14.38357,8.88924 -2.18115,5.22024 -2.12212,51.544095 0.0711,55.785295 3.38415,6.54423 17.54889,8.84058 32.26626,5.23092 z M 196.8715,13.399405 c -0.3323,-0.33229 -1.1948,-0.36782 -1.91667,-0.0789 -0.79773,0.31923 -0.56078,0.55619 0.60417,0.60417 1.05416,0.0434 1.64479,-0.19293 1.3125,-0.52522 z M 172.14233,9.0035749 c 1.07346,-0.69373 0.0782,-0.95374 -3.5,-0.9144 -3.70598,0.0408 -4.48239,0.27739 -3,0.9144 2.70202,1.1611001 4.70333,1.1611001 6.5,0 z m -99.749998,-0.7234 c -1.7875,-0.22182 -4.7125,-0.22182 -6.5,0 -1.7875,0.22183 -0.325,0.40333 3.25,0.40333 3.575,0 5.0375,-0.1815 3.25,-0.40333 z m 13.5,0.0341 c -0.9625,-0.25152 -2.5375,-0.25152 -3.5,0 -0.9625,0.25153 -0.175,0.45733 1.75,0.45733 1.925,0 2.7125,-0.2058 1.75,-0.45733 z M 509.68988,267.08051 c -0.31377,-0.50769 -1.91532,-1.21844 -3.55902,-1.57946 -1.64369,-0.36101 -2.98853,-1.07064 -2.98853,-1.57694 0,-0.50629 -0.60062,-0.92054 -1.3347,-0.92054 -0.73409,0 -2.53756,-1.35 -4.00772,-3 -1.47015,-1.65 -3.10798,-3 -3.63961,-3 -0.53164,0 -1.64268,-1.30737 -2.46898,-2.90526 -0.8263,-1.59789 -2.07536,-3.52409 -2.77568,-4.28043 -2.67136,-2.88507 -5.57679,-8.45748 -14.24155,-27.31431 -5.34191,-11.62544 -11.06189,-22.70965 -13.15921,-25.5 -0.62009,-0.825 -3.19404,-5.55 -5.71987,-10.5 -2.52584,-4.95 -5.70909,-10.19425 -7.0739,-11.65388 -4.48568,-4.79735 -14.77819,-4.66482 -17.36464,0.22359 -1.8853,3.56323 -1.28337,37.94053 0.70625,40.33583 1.96894,2.3704 7.65545,4.59446 11.74719,4.59446 2.3179,0 4.23032,0.807 5.92247,2.49914 l 2.49914,2.49914 -0.42648,17.75086 c -0.23456,9.76297 -0.54096,18.42586 -0.6809,19.25086 -0.68916,4.06307 0.39812,4.0006 -69.35425,3.98469 -36.92016,-0.008 -67.57756,-0.34592 -68.12756,-0.75 -1.72539,-1.26762 -3.21757,-6.76589 -2.42076,-8.91985 0.41966,-1.13445 0.28811,-7.09861 -0.29233,-13.25369 -0.73358,-7.7789 -0.73718,-11.85726 -0.0118,-13.3761 0.57395,-1.20178 1.28742,-2.95222 1.5855,-3.88987 1.15024,-3.61829 7.91446,-5.79518 18.00728,-5.79518 8.23331,0 10.09448,-0.33564 14.4811,-2.6115 2.94594,-1.52841 6.17535,-4.25911 7.78658,-6.58411 l 2.75302,-3.97261 -0.10388,-71.46549 c -0.11553,-79.474375 0.16948,-76.130715 -6.84192,-80.267545 -3.06494,-1.80836 -5.24412,-2.10885 -15.74994,-2.17183 -17.20677,-0.10314 -17.41142,-0.24873 -21.72402,-15.45484 -1.09179,-3.84962 -0.87258,-15.53481 0.4122,-21.97207 0.32931,-1.65 0.67782,-4.50522 0.77446,-6.3449301 0.0967,-1.83971 0.6637,-3.51269 1.26012,-3.71774 0.94135,-0.32362 80.57986,-1.22921 149.5844,-1.70095 21.48256,-0.14686 33.93175,0.73678 46,3.26509 3.025,0.63374 5.9275,1.56766 6.45,2.07539 0.52249,0.50773 1.9911,0.9231401 3.26356,0.9231401 1.27246,0 3.09496,0.4282 4.05,0.95156 0.95504,0.52335 3.53643,1.69308 5.73643,2.5994 10.97958,4.52315 22.19373,12.02208 28.22533,18.87434 5.58458,6.34442 12.27467,16.5534 12.27467,18.73098 0,1.01405 0.33759,1.84372 0.7502,1.84372 1.09381,0 3.96187,10.31793 5.31797,19.13155 1.59792,10.38527 -0.52927,25.84438 -5.14194,37.368445 -0.44029,1.1 -1.06989,2.96761 -1.3991,4.15023 -0.96207,3.45601 -7.91786,13.6629 -13.09442,19.21469 -4.86039,5.2127 -15.96981,13.13508 -18.41909,13.13508 -0.74083,0 -1.05936,0.28759 -0.70785,0.6391 0.3515,0.3515 -1.13023,1.51449 -3.29274,2.58442 -7.25789,3.59092 -6.99964,10.25014 0.72777,18.76626 1.24256,1.36938 2.2592,2.88724 2.2592,3.37301 0,0.48578 1.9125,3.64841 4.25,7.02807 5.10907,7.38693 6.44742,9.48209 7.73509,12.10914 0.53918,1.1 2.09498,3.8 3.45734,6 1.36236,2.2 3.19895,5.41516 4.08131,7.14479 4.84497,9.49728 14.79456,16.33854 23.81855,16.37745 5.41324,0.0233 8.63937,1.73512 10.32371,5.47776 0.49505,1.1 0.87829,9.75336 0.85164,19.22969 -0.0502,17.86401 -0.51568,19.94353 -4.6202,20.6417 -0.76859,0.13074 -3.07614,0.80765 -5.12789,1.50426 -2.05175,0.6966 -4.23952,0.95193 -4.86171,0.56739 -0.6222,-0.38454 -4.30692,-1.04776 -8.18826,-1.47382 -5.51743,-0.60566 -7.36301,-0.46864 -8.45972,0.62806 -1.12527,1.12527 -6.12393,1.40272 -25.27227,1.40272 -13.50801,0 -24.1172,-0.40069 -24.44004,-0.92306 z m -63.54755,-44.07694 c 0,-0.55 -0.19844,-1 -0.44098,-1 -0.24254,0 -0.7191,0.45 -1.05902,1 -0.33992,0.55 -0.14148,1 0.44098,1 0.58246,0 1.05902,-0.45 1.05902,-1 z M 439.8715,123.3994 c -0.33229,-0.33229 -1.1948,-0.36781 -1.91667,-0.0789 -0.79773,0.31922 -0.56078,0.55618 0.60417,0.60416 1.05416,0.0434 1.64479,-0.19293 1.3125,-0.52522 z m 21,0 c -0.33229,-0.33229 -1.1948,-0.36781 -1.91667,-0.0789 -0.79773,0.31922 -0.56078,0.55618 0.60417,0.60416 1.05416,0.0434 1.64479,-0.19293 1.3125,-0.52522 z m 6.27083,-5.19011 c 5.62356,-1.6489 15.11976,-6.99806 18.24118,-10.27515 6.18123,-6.48949 8.97554,-17.690255 6.73905,-27.012965 -1.69541,-7.06725 -4.22696,-11.12358 -9.01158,-14.43933 -2.18276,-1.51265 -3.96865,-3.13907 -3.96865,-3.61427 0,-0.4752 -1.09844,-0.864 -2.44098,-0.864 -1.34254,0 -2.7191,-0.45 -3.05902,-1 -0.33992,-0.55 -1.91492,-1 -3.5,-1 -1.58508,0 -3.11849,-0.3827 -3.40757,-0.85044 -0.28908,-0.46774 -3.98186,-1.1426 -8.20617,-1.49968 -4.22432,-0.35709 -8.32365,-1.18296 -9.10963,-1.83526 -1.1097,-0.92097 -1.60786,-0.89671 -2.22916,0.10858 -0.44006,0.71203 -2.88506,1.5296 -5.43333,1.81682 -5.88826,0.6637 -10.00357,4.64725 -12.28813,11.89472 -1.40674,4.46269 -1.48435,6.44727 -0.52979,13.54696 0.72265,5.37474 0.79506,9.9107 0.20465,12.8183 -1.53014,7.535425 -1.16225,16.234415 0.7824,18.500405 2.66253,3.1025 6.59133,5.30808 10.31791,5.79236 5.92725,0.77025 21.19383,-0.41426 26.89882,-2.08705 z M 393.46119,8.2546649 c -12.74963,-0.15819 -33.89963,-0.15835 -47,-3.7e-4 -13.10037,0.15799 -2.66886,0.28741 23.18114,0.28761 25.85,2.1e-4 36.56849,-0.12905 23.81886,-0.28724 z m 79.93114,-1.99697 c -5.6375,-0.17825 -14.8625,-0.17825 -20.5,0 -5.6375,0.17825 -1.025,0.32408 10.25,0.32408 11.275,0 15.8875,-0.14583 10.25,-0.32408 z"
     id="path970"
     inkscape:connector-curvature="0" />
</svg>
