<?xml version="1.0" encoding="UTF-8" standalone="no"?>
<!-- Created with Inkscape (http://www.inkscape.org/) -->

<svg
   xmlns:dc="http://purl.org/dc/elements/1.1/"
   xmlns:cc="http://creativecommons.org/ns#"
   xmlns:rdf="http://www.w3.org/1999/02/22-rdf-syntax-ns#"
   xmlns:svg="http://www.w3.org/2000/svg"
   xmlns="http://www.w3.org/2000/svg"
   xmlns:sodipodi="http://sodipodi.sourceforge.net/DTD/sodipodi-0.dtd"
   xmlns:inkscape="http://www.inkscape.org/namespaces/inkscape"
   version="1.1"
   id="svg869"
   width="604.04865"
   height="260.90588"
   viewBox="0 0 604.04865 260.90588"
   sodipodi:docname="T--USP_SaoCarlos-Brazil--pr-cult.svg"
   inkscape:version="0.92.2 5c3e80d, 2017-08-06">
  <metadata
     id="metadata875">
    <rdf:RDF>
      <cc:Work
         rdf:about="">
        <dc:format>image/svg+xml</dc:format>
        <dc:type
           rdf:resource="http://purl.org/dc/dcmitype/StillImage" />
        <dc:title></dc:title>
      </cc:Work>
    </rdf:RDF>
  </metadata>
  <defs
     id="defs873" />
  <sodipodi:namedview
     pagecolor="#000000"
     bordercolor="#666666"
     borderopacity="1"
     objecttolerance="10"
     gridtolerance="10"
     guidetolerance="10"
     inkscape:pageopacity="0"
     inkscape:pageshadow="2"
     inkscape:window-width="1287"
     inkscape:window-height="593"
     id="namedview871"
     showgrid="false"
     fit-margin-top="0"
     fit-margin-left="0"
     fit-margin-right="0"
     fit-margin-bottom="0"
     inkscape:zoom="1"
     inkscape:cx="93.849181"
     inkscape:cy="177.9426"
     inkscape:window-x="0"
     inkscape:window-y="0"
     inkscape:window-maximized="0"
     inkscape:current-layer="svg869" />
  <path
     style="fill:#ffffff;stroke-width:0.64000005"
     d="m 245.48861,260.11858 c -2.88807,-1.71844 -4.05691,-8.93984 -2.06915,-12.78375 1.95493,-3.78041 7.76752,-5.05293 10.86699,-2.37905 1.57731,1.36074 3.1805,5.87953 2.48513,7.00467 -0.17518,0.28343 -2.7495,0.51533 -5.72073,0.51533 -5.19496,0 -5.40222,0.0559 -5.40222,1.45759 0,3.59827 3.63258,5.58998 7.99727,4.38483 2.18055,-0.60208 2.30901,-0.55617 2.1219,0.75835 -0.18065,1.26908 -0.61586,1.41361 -4.67917,1.55385 -2.464,0.085 -4.98401,-0.14528 -5.60002,-0.51182 z m 7.73611,-11.13523 c 0.33025,-1.65477 -1.65869,-3.45214 -3.58597,-3.24058 -1.55451,0.17065 -3.99012,2.34186 -3.99012,3.55698 0,1.57263 7.25961,1.26944 7.57609,-0.3164 z m 17.31178,10.01442 c -3.83511,-3.42668 -3.05592,-11.81629 1.33855,-14.41217 5.0026,-2.9551 11.5427,0.72507 10.78605,6.06942 -0.20276,1.43216 -0.46115,1.50459 -5.65247,1.58464 -6.02505,0.0929 -6.83756,0.73624 -4.81952,3.81615 1.4715,2.2458 3.83207,2.99774 7.17354,2.28506 2.44252,-0.52093 2.76598,-0.45732 2.76598,0.54402 0,1.49842 -1.25242,1.91089 -5.80225,1.91089 -3.23614,0 -4.06597,-0.2577 -5.78988,-1.79801 z m 8.78624,-9.26277 c 0.73141,-0.73141 -0.46257,-2.84496 -2.00388,-3.54722 -2.05196,-0.93494 -4.63682,0.008 -5.36768,1.95869 -0.40503,1.08085 -0.28781,1.54384 0.46105,1.82114 1.21486,0.44985 6.40267,0.27523 6.91051,-0.23261 z m 6.64589,10.73069 c 0,-0.18155 1.28131,-2.09098 2.84735,-4.24318 l 2.84736,-3.91311 -2.4159,-3.59681 c -1.32875,-1.97825 -2.58507,-3.88888 -2.79183,-4.24586 -0.21426,-0.36991 0.41808,-0.6815 1.47027,-0.7245 1.54343,-0.0631 2.17503,0.43697 3.8512,3.04905 1.10274,1.71848 2.09252,3.1245 2.1995,3.1245 0.10698,0 1.00481,-1.28081 1.99517,-2.84624 1.58799,-2.51006 4.26057,-4.22341 5.16974,-3.31424 0.16601,0.16601 -0.87598,2.03622 -2.31552,4.15604 -1.43954,2.11981 -2.61734,4.00021 -2.61734,4.17866 0,0.17845 1.31827,2.21025 2.92948,4.51512 l 2.92948,4.19066 -2.12948,-10e-4 c -1.82697,-10e-4 -2.38785,-0.41011 -3.94825,-2.88 -1.00032,-1.58323 -2.05388,-2.87872 -2.34123,-2.87872 -0.28735,0 -1.34091,1.29549 -2.34124,2.87885 -1.43541,2.27207 -2.18972,2.8791 -3.57876,2.88 -0.968,6.4e-4 -1.76,-0.14739 -1.76,-0.32894 z m 21.88886,-0.47464 c -0.36732,-0.44261 -0.76259,-3.68261 -0.87836,-7.2 l -0.2105,-6.39527 -1.79804,-0.20618 c -2.32783,-0.26694 -2.14321,-2.34942 0.20948,-2.36295 1.40595,-0.008 1.62535,-0.33916 1.90856,-2.88 0.26055,-2.33754 0.55779,-2.87087 1.6,-2.87087 1.04835,0 1.31562,0.49227 1.4768,2.72 0.14572,2.01406 0.47793,2.73916 1.28,2.79382 0.59576,0.0406 1.51049,0.1126 2.03273,0.16 0.52225,0.0474 1.04736,0.59018 1.16693,1.20618 0.1747,0.90002 -0.2365,1.12 -2.09355,1.12 h -2.31094 l 0.18401,5.92 0.18402,5.92 2.08,0.20055 c 1.56161,0.15057 2.08,0.50945 2.08,1.44 0,1.05652 -0.46071,1.23945 -3.12164,1.23945 -1.72632,0 -3.42015,-0.3597 -3.7895,-0.80473 z m 12.58281,-1.00776 c -1.70557,-1.52393 -2.07525,-2.37595 -2.32203,-5.3517 -0.50223,-6.05625 2.49492,-10.11581 7.46847,-10.11581 4.09172,0 7.10189,3.09275 7.10189,7.29672 v 1.66328 h -5.76 c -6.18978,0 -6.40431,0.14201 -5.15969,3.4156 0.81176,2.1351 4.30706,3.27998 7.4035,2.42502 1.88811,-0.52133 2.37698,-0.45842 2.68551,0.3456 0.57316,1.49364 -1.00173,2.11318 -5.39922,2.12398 -3.4838,0.009 -4.24722,-0.22011 -6.01843,-1.80269 z m 8.80611,-9.25195 c 0.78954,-0.78955 -0.54659,-2.92191 -2.281,-3.64032 -1.394,-0.57742 -2.1741,-0.58397 -3.21481,-0.027 -1.53282,0.82034 -2.73036,3.33387 -1.85499,3.89348 0.7062,0.45147 6.86258,0.26205 7.3508,-0.22617 z m 8.06364,2.58444 c 0.16834,-7.99381 0.25197,-8.48 1.45858,-8.48 0.84476,0 1.35032,0.4956 1.48681,1.4575 l 0.2068,1.45751 1.9223,-1.61751 c 2.3281,-1.95897 5.5358,-2.12425 7.67319,-0.39538 1.40398,1.13564 1.52612,1.74707 1.72597,8.64 l 0.21508,7.41788 h -1.65508 c -1.64913,0 -1.6553,-0.0201 -1.71886,-5.6 -0.0889,-7.8045 -0.43915,-8.8 -3.09599,-8.8 -3.39235,0 -4.68552,2.29773 -5.03443,8.94526 -0.27577,5.25399 -0.34291,5.45474 -1.82462,5.45474 h -1.53832 z m 19.69858,7.14914 c 0,-1.12758 0.27626,-1.27017 1.80882,-0.93356 2.70071,0.59317 5.23118,-0.58442 5.23118,-2.43441 0,-1.23244 -0.62262,-1.78927 -3.19699,-2.85912 -3.94712,-1.64035 -5.24275,-3.83042 -3.79354,-6.41238 1.24111,-2.21119 3.471,-3.28858 6.83053,-3.30024 2.27103,-0.008 2.72,0.19606 2.72,1.2355 0,1.03114 -0.52206,1.27843 -3.04,1.44 -2.75244,0.17662 -3.05854,0.35524 -3.23607,1.88836 -0.17204,1.48568 0.16558,1.83141 2.7536,2.81978 5.01493,1.91522 6.09083,4.85703 2.9317,8.01616 -1.62043,1.62043 -2.34839,1.87077 -5.44,1.87077 -3.18802,0 -3.56923,-0.14214 -3.56923,-1.33086 z m 15.70222,0.46624 c -1.35971,-0.99424 -1.51652,-4.44044 -0.27037,-5.94195 1.25493,-1.5121 4.03572,-2.72825 6.63919,-2.90359 2.72463,-0.18349 3.3823,-1.17802 2.32032,-3.5088 -0.68996,-1.51431 -0.98749,-1.60345 -4.67026,-1.39919 -2.73062,0.15144 -4.01466,-0.0253 -4.19925,-0.57792 -0.74331,-2.22542 9.07329,-2.7214 11.23065,-0.56743 0.86744,0.86608 1.13102,2.57088 1.30258,8.42466 l 0.21507,7.33884 h -1.65507 c -1.24773,0 -1.65508,-0.32647 -1.65508,-1.32645 v -1.32645 l -1.68631,1.32645 c -1.94466,1.52967 -5.79031,1.76425 -7.57147,0.46183 z m 6.93037,-2.49538 c 0.87119,-0.792 1.77065,-2.088 1.99882,-2.88 0.38181,-1.32531 0.20751,-1.44 -2.18828,-1.44 -1.7498,0 -3.02272,0.4196 -3.88313,1.28 -1.54325,1.54326 -1.5917,2.15687 -0.27428,3.47428 1.37393,1.37394 2.47936,1.2635 4.34687,-0.43428 z m 12.47908,1.54751 c -1.70616,-1.52445 -2.07,-2.36354 -2.28947,-5.28 -0.44604,-5.92705 3.18091,-10.18397 8.67906,-10.18652 4.60918,-0.002 7.24541,3.09885 7.24541,8.52273 0,5.5227 -3.00118,8.69716 -8.25657,8.73326 -2.79206,0.0192 -3.6877,-0.27881 -5.37843,-1.78947 z m 8.15253,-1.23731 c 1.25209,-0.83604 2.1758,-3.20931 2.1758,-5.5902 0,-3.92051 -1.58741,-6.05267 -4.51932,-6.0702 -4.59095,-0.0275 -6.51866,7.14407 -3.0453,11.32923 0.73417,0.88461 4.23752,1.09991 5.38882,0.33117 z m 16.56811,1.52788 c -0.78157,-1.19284 -0.95775,-3.02643 -0.81475,-8.48 0.16966,-6.4706 0.27212,-6.95808 1.46245,-6.95808 1.17334,0 1.29331,0.47995 1.43987,5.76 0.228,8.21444 0.37761,8.64 3.03757,8.64 3.25961,0 4.40515,-2.12923 4.80256,-8.92663 0.28881,-4.94004 0.44472,-5.47337 1.6,-5.47337 1.20661,0 1.29024,0.48619 1.45857,8.48 l 0.17858,8.48 h -1.65881 c -1.19655,0 -1.62705,-0.31211 -1.54487,-1.12 0.20241,-1.98992 -0.007,-2.04867 -1.60439,-0.45091 -2.21924,2.21924 -6.91673,2.24678 -8.35678,0.049 z m 19.66912,-6.95018 c 0.1576,-7.47669 0.31017,-8.49734 1.29858,-8.68693 0.83671,-0.16049 1.12,0.20998 1.12,1.46467 v 1.6795 l 2.14041,-1.63257 c 2.77954,-2.12006 5.727,-2.14333 7.80867,-0.0616 1.47826,1.47824 1.57092,1.98787 1.57092,8.64 v 7.06906 h -1.6 c -1.59516,0 -1.6,-0.0186 -1.6,-6.12207 0,-3.36715 -0.29813,-6.67915 -0.66252,-7.36001 -0.92148,-1.72179 -3.55266,-1.56093 -5.44657,0.33299 -1.43633,1.43632 -1.57091,2.06689 -1.57091,7.36 0,5.76608 -0.006,5.78909 -1.61858,5.78909 h -1.61858 z m 19.84,-0.008 c 0.16834,-7.99381 0.25197,-8.48 1.45858,-8.48 1.20661,0 1.29024,0.48619 1.45858,8.48 l 0.17857,8.48 h -1.63715 -1.63716 z m 12.98346,7.68 c -0.42672,-1.24164 -5.25478,-14.10244 -5.76628,-15.36 -0.36567,-0.89904 -0.12189,-1.12 1.23567,-1.12 1.84468,0 2.92289,1.89787 5.22222,9.19219 0.6255,1.98429 1.30067,3.60245 1.50038,3.5959 0.19972,-0.007 1.22298,-2.62348 2.27391,-5.81541 1.05093,-3.19194 2.12985,-5.93891 2.3976,-6.10439 0.89547,-0.55343 3.05138,-0.80021 3.07116,-0.35154 0.0108,0.24378 -1.35323,4.11525 -3.03105,8.60325 -2.90843,7.77972 -3.13396,8.16 -4.83963,8.16 -0.98397,0 -1.91276,-0.36 -2.06398,-0.8 z m 14.88522,-1.069 c -1.99259,-1.78181 -2.08992,-2.08285 -2.08615,-6.4528 0.004,-4.4726 0.0618,-4.63685 2.3906,-6.771 4.96968,-4.55434 12.00545,-1.69273 12.00545,4.88294 v 1.88989 h -5.76 c -3.168,0 -5.76,0.24502 -5.76,0.5445 0,0.29947 0.30889,1.43058 0.68642,2.51357 0.84799,2.43253 3.42773,3.45531 7.35692,2.91675 2.2882,-0.31363 2.83666,-0.19961 2.83666,0.58972 0,1.34097 -1.36999,1.75546 -5.80225,1.75546 -3.27057,0 -4.05807,-0.25084 -5.86765,-1.869 z m 8.85508,-9.18285 c 0.20443,-0.20443 0.19586,-0.92569 -0.0191,-1.6028 -0.5515,-1.73763 -3.19143,-2.81613 -5.10883,-2.08714 -1.7273,0.65672 -2.8402,3.13071 -1.7198,3.82316 0.83643,0.51694 6.30389,0.41058 6.84768,-0.13322 z m 8.57482,2.36495 c 0,-7.92751 0.0979,-8.66836 1.12,-8.47452 0.67526,0.12805 1.20036,0.9086 1.32239,1.96565 l 0.20238,1.75326 1.61451,-1.91874 c 2.01047,-2.3893 4.06072,-2.57169 4.06072,-0.36123 0,1.21969 -0.3785,1.60141 -1.74517,1.76 -2.49277,0.28926 -3.35437,2.51214 -3.3654,8.68251 -0.009,5.20281 -0.0328,5.28 -1.60943,5.28 h -1.6 z m 11.52,7.39936 c 0,-1.13763 0.28987,-1.24121 2.48948,-0.88947 2.02244,0.3234 2.74667,0.14089 3.86039,-0.97283 1.81164,-1.81164 1.03768,-3.15228 -2.5944,-4.4939 -6.91987,-2.55608 -4.63369,-9.59989 3.12453,-9.6268 2.27103,-0.008 2.72,0.19606 2.72,1.2355 0,1.03114 -0.52206,1.27843 -3.04,1.44 -2.76398,0.17736 -3.04,0.34034 -3.04,1.79507 0,1.26052 0.60003,1.88794 2.82795,2.95708 4.97105,2.38551 5.90632,5.37276 2.56294,8.18603 -1.58868,1.33679 -2.63966,1.65689 -5.44,1.65689 -3.05102,0 -3.47089,-0.15576 -3.47089,-1.28757 z m 16,-7.35243 c 0,-4.82028 0.2598,-8.64 0.58765,-8.64 2.4317,0 2.61235,0.62433 2.61235,9.02847 v 8.25153 h -1.6 -1.6 z m 10.59629,7.21759 c -0.72792,-1.03924 -0.99629,-3.02183 -0.99629,-7.36 0,-5.90676 -0.008,-5.93759 -1.6,-5.93759 -1.20075,0 -1.6,-0.33671 -1.6,-1.34938 0,-1.11976 0.27227,-1.28105 1.6,-0.94781 1.49361,0.37487 1.60065,0.24118 1.6098,-2.01062 0.011,-2.70157 0.44868,-3.60074 2.03788,-4.18639 0.92118,-0.33947 1.11712,0.10391 1.28,2.89649 0.19218,3.29489 0.19395,3.29733 2.42055,3.32751 1.56421,0.0212 2.29105,0.35175 2.43904,1.10924 0.16308,0.83474 -0.3414,1.12454 -2.22823,1.28 l -2.43904,0.20096 -0.18801,5.02067 c -0.21098,5.634 0.33591,6.81933 3.14637,6.81933 1.41497,0 1.84164,0.29655 1.84164,1.28 0,1.10737 -0.42667,1.28 -3.16371,1.28 -2.54377,0 -3.35893,-0.27873 -4.16,-1.42241 z m 11.52943,0.41669 c -1.27236,-1.27235 -1.29322,-4.05901 -0.0437,-5.8429 0.98833,-1.41104 3.65452,-2.52407 7.03802,-2.93813 1.40442,-0.17186 1.97616,-0.61745 2.12913,-1.65933 0.38236,-2.60424 -1.0482,-3.46266 -5.15062,-3.09067 -3.29916,0.29915 -3.69851,0.20685 -3.69851,-0.85494 0,-2.5394 8.96774,-2.48879 11.03346,0.0623 0.92124,1.13769 1.12654,2.66125 1.12654,8.36032 l -2e-5,6.9691 h -1.64313 c -1.35188,0 -1.57111,-0.22688 -1.23687,-1.28 0.22344,-0.704 0.14349,-1.28 -0.17768,-1.28 -0.32116,0 -1.10521,0.576 -1.74232,1.28 -1.44793,1.59995 -6.14004,1.76853 -7.63428,0.27428 z m 7.54701,-2.60155 c 2.32639,-2.3264 2.24447,-4.07273 -0.19106,-4.07273 -3.21304,0 -5.16167,1.06927 -5.16167,2.83236 0,1.49938 1.38696,2.86542 2.95273,2.90818 0.392,0.0107 1.472,-0.73981 2.4,-1.66781 z m 11.28727,-4.64426 c 0,-6.95241 0.16024,-8.31302 1.01776,-8.64208 1.52252,-0.58424 2.04364,0.0213 1.71963,1.99833 l -0.29094,1.77528 1.70316,-2.08 c 2.09117,-2.55386 4.17039,-2.79317 4.17039,-0.48 0,1.27557 -0.32109,1.6 -1.58356,1.6 -2.42789,0 -3.53644,2.79869 -3.53644,8.92822 0,5.06857 -0.0258,5.15178 -1.6,5.15178 h -1.6 z m 12.16,-0.0885 c 0,-6.82303 0.17463,-8.4071 0.96,-8.70848 2.32138,-0.8908 2.56561,0.003 2.36442,8.64581 l -0.19558,8.40275 h -1.56442 -1.56442 z m 9.74241,7.34379 c -3.28669,-2.30209 -0.62738,-7.50456 4.25553,-8.32522 4.0709,-0.68418 4.56206,-0.95153 4.56206,-2.48325 0,-2.38087 -1.50951,-3.13668 -5.45197,-2.72978 -3.0873,0.31863 -3.50803,0.22368 -3.50803,-0.7917 0,-1.27484 2.26187,-1.95376 6.50909,-1.95376 1.81064,0 2.94639,0.43729 4.08,1.57091 1.47825,1.47825 1.57091,1.98788 1.57091,8.64 0,6.64242 -0.0773,7.06909 -1.28,7.06909 -0.85333,0 -1.28,-0.42667 -1.28,-1.28 0,-0.704 -0.15604,-1.28 -0.34676,-1.28 -0.19072,0 -0.96502,0.576 -1.72067,1.28 -1.66638,1.55246 -5.37547,1.69485 -7.39016,0.28371 z m 7.24668,-2.49462 c 0.864,-0.864 1.57091,-2.16 1.57091,-2.88 0,-1.05251 -0.41113,-1.30909 -2.09759,-1.30909 -3.77702,0 -6.23136,2.93505 -4.17441,4.992 1.20922,1.20921 2.99375,0.90443 4.70109,-0.80291 z M 456.57435,239.95006 c -0.75707,-0.75707 -0.84096,-1.30628 -0.34192,-2.23873 0.75376,-1.40842 1.92733,-1.58843 3.04821,-0.46755 1.12087,1.12088 0.94086,2.29445 -0.46756,3.04821 -0.93244,0.49903 -1.48165,0.41515 -2.23873,-0.34193 z m 73.06752,0.28511 c -1.50757,-0.84368 -1.40941,-2.93913 0.16104,-3.43757 1.6134,-0.51207 2.56573,0.0661 2.56573,1.55758 0,1.68981 -1.37393,2.63707 -2.72677,1.87999 z m -151.45573,-0.97526 c -1.20037,-0.52329 -2.87967,-0.77646 -3.73178,-0.5626 -1.25048,0.31385 -1.50574,0.16797 -1.32351,-0.75634 0.23268,-1.18022 0.33206,-1.18878 7.87778,-0.67836 3.09471,0.20934 3.96957,1.15709 2.052,2.22295 -1.75463,0.97531 -2.16303,0.9564 -4.87449,-0.22565 z m 177.51618,0.37329 c -0.23201,-0.37542 -0.32101,-0.75669 -0.19777,-0.84726 2.9275,-2.15135 4.60942,-3.00064 5.36681,-2.71 1.51735,0.58226 1.09596,1.35496 -1.54985,2.84199 -2.85291,1.60342 -3.04662,1.6417 -3.61919,0.71527 z m 26.69927,-1.03037 c 0.16564,-1.44564 0.52705,-1.80705 1.80705,-1.80705 1.28,0 1.6,0.32 1.6,1.6 0,1.28 -0.36141,1.64141 -1.80705,1.80705 -1.64379,0.18834 -1.78834,0.0438 -1.6,-1.6 z m -338.67296,-18.0383 v -12.71126 l 1.61833,0.30937 c 1.23801,0.23666 1.52869,0.59183 1.23687,1.51125 -0.51297,1.61625 -0.0247,1.51322 1.88662,-0.39811 2.29977,-2.29977 5.64871,-2.18793 8.10741,0.27077 1.66055,1.66055 1.87077,2.31136 1.87077,5.79178 0,6.6441 -2.66133,9.61745 -8.60822,9.61745 h -2.91178 v 4.16 c 0,4.01067 -0.0574,4.16 -1.6,4.16 h -1.6 z m 9.74748,0.73352 c 2.3649,-2.13111 2.20732,-9.16202 -0.23463,-10.46892 -3.54179,-1.8955 -6.31285,1.46159 -6.31285,7.64794 0,3.09993 0.21227,3.88262 1.12,4.12966 1.63439,0.4448 4.15648,-0.16332 5.42748,-1.30868 z m 26.34068,3.87962 c -0.74351,-0.1583 -2.15929,-1.13061 -3.14617,-2.16069 -1.39164,-1.45256 -1.85116,-2.63012 -2.04754,-5.24704 -0.44568,-5.93898 3.22991,-10.0908 8.93545,-10.09317 6.19404,-0.003 9.28611,8.39014 5.32077,14.44202 -1.5051,2.29708 -5.81226,3.75088 -9.06251,3.05888 z m 5.95059,-4.17345 c 1.66615,-1.56527 2.03048,-5.66278 0.75284,-8.46689 -0.89248,-1.95879 -3.91484,-2.773 -6.05057,-1.62999 -2.89653,1.55018 -3.50781,7.58284 -1.0506,10.36844 1.36767,1.55045 4.55397,1.41415 6.34833,-0.27156 z m 37.5892,3.92771 c -3.20284,-0.96928 -4.3406,-2.75709 -4.62811,-7.27231 -0.18294,-2.87293 0.041,-4.59833 0.78281,-6.03294 2.94858,-5.70194 11.52971,-4.94979 13.17347,1.15468 0.38564,1.43217 0.52729,2.8853 0.31475,3.22918 -0.21253,0.34388 -2.81742,0.62524 -5.78864,0.62524 -5.36144,0 -5.40223,0.0123 -5.40223,1.62909 0,0.89824 0.74149,2.37058 1.65282,3.28191 1.50283,1.50283 1.96745,1.61583 5.12,1.24532 2.78922,-0.32782 3.46718,-0.22608 3.46718,0.52032 0,0.5103 -0.216,1.06077 -0.48,1.22327 -1.12345,0.69151 -6.39574,0.94591 -8.21205,0.39624 z m 5.33205,-10.7899 c 1.36357,-0.11293 0.88006,-2.54429 -0.71361,-3.58851 -1.1361,-0.74439 -1.92451,-0.83553 -3.16109,-0.36538 -1.67786,0.63792 -3.31293,2.8721 -2.75849,3.76921 0.2556,0.41357 2.96022,0.48887 6.63319,0.18468 z m 22.24,10.99555 c -2.24912,-0.53776 -2.55358,-1.38887 -2.88,-8.05083 l -0.32,-6.53097 -1.75977,-0.20249 c -1.53259,-0.17635 -1.67287,-0.36489 -1.08658,-1.46038 0.37026,-0.69184 1.16216,-1.17672 1.75978,-1.07751 0.84785,0.14075 1.15688,-0.43903 1.40657,-2.63889 0.23479,-2.06858 0.66083,-2.93904 1.6,-3.26908 1.14906,-0.40379 1.31274,-0.11539 1.6,2.81927 0.30769,3.14327 0.40005,3.2768 2.4,3.46963 2.94782,0.28422 2.81011,2.03945 -0.16,2.03945 h -2.24 v 5.72222 c 0,3.14723 0.26227,5.88433 0.58283,6.08244 0.32056,0.19812 1.32856,0.42193 2.24,0.49737 1.11158,0.092 1.65717,0.5126 1.65717,1.27756 0,0.62722 -0.40845,1.14041 -0.90765,1.14041 -0.49921,0 -1.29121,0.10976 -1.76,0.24393 -0.4688,0.13415 -1.42835,0.1062 -2.13235,-0.0621 z m 12.8,-0.43941 c -2.66501,-1.17636 -4.14997,-3.02467 -4.58529,-5.70725 -1.06332,-6.55245 2.79686,-11.31514 9.17096,-11.31514 1.71952,0 2.78443,0.5221 4.43833,2.176 1.96259,1.96258 2.176,2.53163 2.176,5.80207 0,5.2413 -1.87228,8.18695 -5.94639,9.35539 -2.58236,0.74061 -2.9158,0.72086 -5.25361,-0.31107 z m 5.82419,-2.79219 c 1.28189,-0.85594 2.17581,-3.23139 2.17581,-5.78182 0,-6.4072 -6.75947,-8.15623 -8.9773,-2.32288 -0.83856,2.20558 -0.2792,5.90338 1.13065,7.4745 1.01292,1.12879 4.36606,1.50143 5.67084,0.6302 z m 34.17581,3.23576 c -6.32192,-2.32453 -2.63034,-9.78596 4.84167,-9.78596 1.99514,0 2.19833,-0.17023 2.19833,-1.84164 0,-2.7452 -1.35776,-3.51546 -5.45197,-3.0929 -3.0873,0.31863 -3.50803,0.22368 -3.50803,-0.7917 0,-1.27484 2.26187,-1.95376 6.50909,-1.95376 1.81065,0 2.94639,0.43729 4.08,1.57091 1.47826,1.47825 1.57091,1.98788 1.57091,8.64 0,6.64242 -0.0772,7.06909 -1.28,7.06909 -0.85333,0 -1.28,-0.42667 -1.28,-1.28 0,-0.704 -0.288,-1.28 -0.64,-1.28 -0.352,0 -0.64,0.30269 -0.64,0.67266 0,0.36996 -0.99875,1.08996 -2.21944,1.6 -2.3651,0.9882 -2.68249,1.02413 -4.18056,0.4733 z m 5.46909,-3.67687 c 0.864,-0.864 1.57091,-2.16 1.57091,-2.88 0,-1.05251 -0.41112,-1.30909 -2.09759,-1.30909 -3.77702,0 -6.23136,2.93504 -4.17441,4.992 1.20922,1.20921 2.99375,0.90443 4.70109,-0.80291 z m 20.74351,3.43125 c -2.39845,-0.88222 -3.81298,-3.74792 -3.8102,-7.71909 0.004,-5.9193 3.49403,-9.50125 9.25705,-9.50125 h 2.26056 v -3.84 c 0,-3.66933 0.0711,-3.84 1.6,-3.84 h 1.6 v 12.48 c 0,12.05333 -0.0438,12.48 -1.28,12.48 -0.96625,0 -1.28349,-0.43141 -1.29424,-1.76 l -0.0142,-1.76 -1.10577,1.40713 c -0.9884,1.25779 -3.99339,2.83536 -5.14743,2.70234 -0.24108,-0.0278 -1.17067,-0.3199 -2.06574,-0.64913 z m 4.72672,-2.57091 c 2.17173,-0.98951 2.98069,-3.14974 2.98069,-7.95954 v -4.12989 h -2.28208 c -3.24713,0 -4.60555,0.94293 -5.45817,3.78871 -0.95409,3.18447 -0.27879,6.78124 1.5082,8.03289 1.66389,1.16544 1.33988,1.13875 3.25136,0.26783 z m 16.04864,2.56575 c -3.19913,-0.9017 -4.33948,-2.69838 -4.6324,-7.29861 -0.30217,-4.74556 1.17648,-7.95607 4.25079,-9.22949 2.35223,-0.97433 6.2154,-0.51538 7.81015,0.92784 1.37256,1.24216 2.84264,5.7033 2.21438,6.71984 -0.21253,0.34388 -2.94131,0.62524 -6.06397,0.62524 h -5.67755 l 0.58783,2.04965 c 0.95247,3.32109 2.11068,4.03894 6.38849,3.9596 2.74157,-0.0509 3.81433,0.16353 3.81433,0.76223 0,0.45814 -0.22544,0.97231 -0.50099,1.1426 -1.05675,0.65311 -6.30822,0.87179 -8.19106,0.3411 z m 5.81205,-12.14963 c 0,-1.73547 -2.301,-3.17713 -4.25525,-2.66608 -0.69695,0.18226 -1.72987,1.03751 -2.29536,1.90057 -1.31955,2.01388 -0.52109,2.55596 3.52643,2.39415 2.71557,-0.10855 3.02418,-0.27476 3.02418,-1.62864 z m 34.44184,12.21714 c -0.76899,-0.31377 -1.70499,-1.14381 -2.08,-1.84452 -0.69398,-1.29669 -0.97641,-14.29028 -0.32479,-14.9419 0.19639,-0.19638 0.91639,-0.21079 1.6,-0.032 1.12265,0.29356 1.24295,0.92485 1.24295,6.52237 0,6.73717 0.42272,7.73336 3.28155,7.73336 3.12426,0 4.39845,-2.52793 4.39845,-8.72631 0,-5.28394 0.0208,-5.35369 1.6,-5.35369 h 1.6 v 8.36451 c 0,8.30824 -0.01,8.36314 -1.44,8.16 -1.12858,-0.16028 -1.39264,-0.55054 -1.22102,-1.80451 l 0.21899,-1.6 -1.81899,1.69254 c -2.05851,1.91542 -4.98692,2.67485 -7.05714,1.83015 z m 29.88146,-0.18642 c -1.9013,-0.96546 -2.38452,-2.82567 -2.48758,-9.57627 -0.0739,-4.84381 -0.1132,-4.96 -1.67572,-4.96 -2.22061,0 -2.08085,-1.77965 0.16,-2.03749 1.59704,-0.18376 1.75809,-0.43955 1.73944,-2.76251 -0.0213,-2.64416 0.54594,-3.49332 2.34461,-3.5102 0.83189,-0.008 1.02697,0.60794 0.96,3.0302 -0.0778,2.81463 0.0346,3.04718 1.51595,3.13693 0.88,0.0533 1.96,0.12531 2.4,0.16 0.44,0.0347 0.8,0.49507 0.8,1.02307 0,0.67241 -0.67823,0.96 -2.26402,0.96 h -2.26401 l 0.18401,5.91515 0.18402,5.91516 1.91219,0.32978 c 2.22931,0.38446 3.13614,2.55991 1.06708,2.55991 -0.70102,0 -1.65814,0.14109 -2.12692,0.31353 -0.4688,0.17244 -1.57087,-0.0513 -2.44905,-0.49726 z m 12.99854,0.18642 c -2.25858,-0.92156 -2.76184,-2.72201 -2.76184,-9.88062 v -6.76207 h 1.6 c 1.59939,0 1.6,0.003 1.6,6.36371 0,5.70465 0.13685,6.45956 1.3214,7.28925 1.58083,1.10726 3.29553,0.76249 4.87715,-0.98061 0.8805,-0.97041 1.23886,-2.69661 1.48145,-7.1362 0.29086,-5.32282 0.43657,-5.85615 1.6,-5.85615 1.207,0 1.2902,0.4863 1.45891,8.52699 l 0.1789,8.52699 -1.4589,-0.20699 c -0.97858,-0.13884 -1.397,-0.57573 -1.27085,-1.32699 0.24315,-1.44817 -0.41928,-1.41904 -2.06681,0.0909 -1.62113,1.48574 -4.68409,2.11696 -6.55941,1.35179 z m 30.66886,-0.0123 c -1.62555,-0.66851 -2.92423,-3.4294 -2.396,-5.0937 0.69448,-2.1881 3.23767,-3.82573 6.75168,-4.34761 3.34764,-0.49716 3.48798,-0.59581 3.35851,-2.36082 -0.18564,-2.53056 -1.18714,-3.02209 -5.46489,-2.68212 -2.90064,0.23053 -3.68,0.0987 -3.68,-0.62268 0,-2.16244 7.15418,-2.9245 10.25565,-1.09241 2.28358,1.34894 2.52487,2.29756 2.53562,9.96894 0.009,6.23167 0.007,6.24 -1.59127,6.24 -1.18119,0 -1.6,-0.34005 -1.6,-1.29916 0,-1.29822 -10e-4,-1.29824 -1.76,-0.0302 -2.22569,1.60474 -4.5517,2.08369 -6.4093,1.31974 z m 5.89086,-3.3504 c 1.58476,-1.39751 2.45128,-3.83571 1.47844,-4.16 -1.64339,-0.54779 -4.5044,0.0244 -5.6,1.12 -1.54326,1.54326 -1.5917,2.15687 -0.27428,3.47429 1.37237,1.37238 2.47009,1.26394 4.39584,-0.43429 z m -306.84157,-5.28 c 0,-4.82028 0.2598,-8.64 0.58765,-8.64 1.71532,0 2.40484,0.79892 2.09903,2.43206 l -0.32356,1.72794 1.95521,-2.08 c 2.3772,-2.52892 4.00167,-2.72377 4.00167,-0.48 0,1.27557 -0.3211,1.6 -1.58357,1.6 -2.42788,0 -3.53643,2.79869 -3.53643,8.92822 0,5.06857 -0.0258,5.15178 -1.6,5.15178 h -1.6 z m 43.52,0.35777 c 0,-4.55523 0.26201,-8.44416 0.58225,-8.64208 1.1293,-0.69795 2.61775,0.44031 2.61775,2.00188 v 1.58064 l 1.65689,-1.96911 c 1.76108,-2.09292 4.55378,-2.78665 3.85158,-0.95676 -0.21366,0.55679 -0.38847,1.25676 -0.38847,1.55549 0,0.29873 -0.648,0.63518 -1.44,0.74766 -2.26662,0.32191 -3.67784,3.89867 -3.67901,9.32451 -0.001,4.5224 -0.0415,4.64 -1.60099,4.64 h -1.6 z m 30.72,-0.0378 v -8.32 h 1.6 1.6 v 8.32 8.32 h -1.6 -1.6 z m 42.24,0 c 0,-8.31771 4.2e-4,-8.32 1.51125,-8.32 1.3019,0 1.46558,0.24381 1.18157,1.76 l -0.3297,1.76 1.95522,-2.08 c 2.34038,-2.48975 4.00166,-2.72223 4.00166,-0.56 0,1.15416 -0.43298,1.6066 -1.79895,1.87979 -2.48098,0.49618 -3.32105,2.71972 -3.32105,8.79031 0,5.00255 -0.0274,5.08989 -1.6,5.08989 h -1.6 v -8.32 z m 12.16,0.0685 c 0,-8.31218 0.2773,-9.3013 2.4,-8.56086 0.58431,0.20382 0.8,2.50788 0.8,8.54572 v 8.26666 h -1.6 -1.6 v -8.25153 z m 81.76501,6.7484 c -2.77092,-2.568 -3.16262,-8.74851 -0.78448,-12.37802 2.20957,-3.37223 9.99717,-4.63925 10.41666,-1.69476 0.17962,1.26077 -0.0239,1.35443 -2.28437,1.05124 -2.00579,-0.26903 -2.8318,-0.0316 -4.30837,1.23851 -1.54204,1.3264 -1.83443,2.07477 -1.87563,4.80064 -0.0672,4.44384 1.31744,5.92552 5.53731,5.92552 2.65245,0 3.11416,0.17622 2.93438,1.12 -0.17021,0.8935 -0.9961,1.15789 -4.08396,1.30735 -3.35908,0.16258 -4.09277,-0.0186 -5.55154,-1.37048 z m 34.715,-10.97688 v -12.48 h 1.6 1.6 v 12.48 12.48 h -1.6 -1.6 z m 42.88,4.16 c 0,-8.54014 -0.029,-8.43986 2.4,-8.29049 0.264,0.0163 0.37939,0.79733 0.25641,1.73576 l -0.2236,1.70625 1.92038,-2.05577 c 2.34159,-2.50668 3.96681,-2.6934 3.96681,-0.45575 0,1.23973 -0.3292,1.6 -1.46201,1.6 -2.44937,0 -3.65799,2.94017 -3.65799,8.89874 0,5.10001 -0.0251,5.18126 -1.6,5.18126 h -1.6 z m -256.81191,0.89476 c -0.25746,-0.25745 -0.4681,-0.85209 -0.4681,-1.32143 0,-0.61744 1.07449,-0.85333 3.88692,-0.85333 3.35374,0 3.85742,0.15326 3.67177,1.11728 -0.1638,0.85054 -0.97999,1.16601 -3.41884,1.32142 -1.76201,0.11229 -3.4143,-0.006 -3.67175,-0.26394 z m 43.35632,-13.30701 c -1.28524,-0.93979 -0.93566,-2.74569 0.64921,-3.35387 1.14036,-0.43759 2.88637,0.80973 2.88637,2.06196 0,1.44267 -2.22002,2.25387 -3.53558,1.29191 z m 54.4613,-0.11347 c -0.75708,-0.75707 -0.84096,-1.30628 -0.34193,-2.23873 0.70478,-1.31688 1.19423,-1.46476 2.80387,-0.84708 1.40441,0.53892 1.26827,2.62952 -0.22321,3.42774 -0.93245,0.49903 -1.48166,0.41515 -2.23873,-0.34193 z m -111.43204,-0.31686 c -0.23202,-0.37542 -0.32102,-0.75797 -0.19777,-0.85012 4.94519,-3.69722 4.71083,-3.59587 5.47722,-2.3687 0.62451,1.00001 0.38549,1.35376 -1.71073,2.53191 -2.79974,1.57354 -2.99726,1.61155 -3.56872,0.68691 z m 197.69165,-22.37371 c -10.72592,-1.12855 -18.0111,-5.57411 -21.47374,-13.10371 -1.39178,-3.02647 -1.48893,-4.15372 -1.79158,-20.787 l -0.32,-17.58699 -3.52,-0.66522 -3.52,-0.66522 -0.18492,-5.58779 -0.18492,-5.58779 h 16.66492 16.66492 v 5.37153 c 0,5.93719 0.12653,5.76315 -4.71818,6.48966 l -2.96182,0.44415 0.004,13.20733 c 0.004,13.98442 0.44209,17.05457 2.90002,20.31317 2.73781,3.62965 12.23111,4.66578 16.1234,1.75977 4.58258,-3.42139 5.3891,-7.07659 5.14781,-23.33024 l -0.17507,-11.77537 -3.52,-0.67287 -3.52,-0.67288 -0.18492,-5.56712 -0.18492,-5.56713 h 16.66492 16.66492 v 5.37153 c 0,5.93719 0.12653,5.76315 -4.71818,6.48966 l -2.96182,0.44415 v 14.23998 c 0,7.83199 -0.2765,15.69796 -0.61445,17.47995 -2.71426,14.31225 -16.71916,22.01661 -36.28023,19.95845 z m -139.51362,-1.20968 c -6.41647,-1.74138 -10.3445,-3.90108 -13.785,-7.57926 -5.30147,-5.6677 -7.54779,-12.18981 -7.54779,-21.91477 0,-16.31514 8.00335,-27.91505 22.38108,-32.43874 6.8287,-2.14852 18.63116,-2.25012 26.15149,-0.2251 l 2.64851,0.71317 v 10.85533 c 0,8.22453 -0.19388,10.87037 -0.8,10.91736 -1.87469,0.14533 -12.34066,-0.19561 -12.5571,-0.40906 -0.13041,-0.12861 -0.49219,-1.59925 -0.80397,-3.26808 -0.31177,-1.66883 -0.92507,-3.27968 -1.36289,-3.57966 -1.26523,-0.86691 -7.23969,0.0349 -9.64906,1.45645 -4.95004,2.9206 -7.68595,10.66105 -6.26649,17.72912 1.04316,5.19425 3.13387,8.01068 7.55067,10.17162 3.25545,1.59275 4.38551,1.80367 9.47263,1.76802 3.21458,-0.0225 7.47459,-0.50316 9.60588,-1.08378 2.10633,-0.57382 4.02267,-0.83706 4.25856,-0.58498 0.23588,0.25208 0.52852,4.04787 0.65032,8.43509 l 0.22145,7.97676 -3.52,0.86018 c -1.936,0.4731 -7.696,0.99067 -12.8,1.15015 -7.80647,0.24393 -10.00538,0.0931 -13.84829,-0.94982 z m -166.63172,-4.78696 v -5.39143 l 4.64,-0.7392 c 2.552,-0.40656 4.99975,-0.85545 5.43945,-0.99752 0.62033,-0.20045 0.76372,-4.5253 0.64,-19.30413 l -0.15945,-19.0458 -3.2,-0.49486 c -1.76,-0.27218 -4.136,-0.65175 -5.28,-0.8435 l -2.08,-0.34864 v -5.41099 -5.41101 h 21.0885 c 13.04914,0 22.38141,0.27194 24.48001,0.71334 8.07557,1.69854 14.1896,6.37005 16.55976,12.65273 1.88747,5.00321 1.51789,12.4648 -0.84372,17.03394 -1.79103,3.4652 -5.20144,6.989 -8.89274,9.18841 -3.70203,2.20581 -11.57428,3.93159 -17.93418,3.93159 h -5.65762 v 3.75733 3.75733 l 3.89968,0.4412 c 6.88453,0.7789 6.91246,0.80599 6.77732,6.57195 l -0.117,4.99219 -19.68,0.16924 -19.68001,0.16925 z m 39.49884,-28.97585 c 3.26344,-1.54861 4.79314,-4.306 4.47012,-8.05771 -0.44913,-5.21631 -3.80875,-7.51352 -10.9884,-7.51352 h -4.18055 v 8.32001 8.32 h 4.22327 c 2.61927,0 5.0787,-0.40593 6.47556,-1.06878 z m 32.18117,28.97818 c 0,-6.08634 -0.4333,-5.65729 6.56,-6.49569 l 3.68,-0.44118 v -19.37251 -19.37252 l -3.68,-0.44118 c -6.9933,-0.8384 -6.56,-0.40935 -6.56,-6.49569 v -5.37062 h 22.26553 c 17.96786,0 22.99471,0.18993 26.04324,0.98397 6.25702,1.62975 10.93001,4.99792 13.28574,9.57603 1.8315,3.55934 2.228,10.11723 0.86061,14.23405 -1.19789,3.60652 -5.43245,8.34297 -8.95212,10.01317 l -2.20939,1.04842 3.87128,6.23218 c 2.1292,3.42771 4.25838,6.85516 4.73151,7.61657 0.47312,0.76141 1.80599,1.57491 2.96192,1.80778 4.64917,0.9366 4.40923,0.57733 4.20674,6.29891 l -0.18506,5.22893 -10.70225,0.17539 -10.70226,0.1754 -1.51052,-2.4154 c -0.83079,-1.32847 -3.74381,-6.51939 -6.47337,-11.53539 -4.76884,-8.7635 -5.04198,-9.12006 -6.98722,-9.1215 l -2.02438,-0.001 0.20668,5.4294 0.20668,5.4294 2.51332,0.67676 2.51332,0.67677 v 5.41533 5.41533 h -16.96 -16.96 v -5.37061 z m 39.49835,-31.42389 c 3.90407,-2.30619 5.05752,-6.61878 2.77255,-10.36622 -1.46224,-2.39813 -4.32328,-3.3904 -9.7909,-3.3957 l -3.68,-0.004 v 7.766 7.76599 l 4.3851,-0.31374 c 2.53672,-0.18151 5.19784,-0.79386 6.31325,-1.45275 z m 96.71039,31.5962 c -0.24062,-5.99239 -0.37909,-5.84795 6.35126,-6.62535 l 4,-0.46202 v -19.36905 -19.36904 l -3.65326,-0.42937 c -6.96628,-0.81875 -6.58674,-0.44212 -6.58674,-6.53625 v -5.37062 h 27.84 27.84001 v 8.98166 8.98165 l -6.87502,-0.18165 -6.87501,-0.18165 -0.55422,-3.04 -0.55423,-3.04001 h -6.01076 -6.01077 v 7.04001 7.04 h 4.10915 c 4.04534,0 4.1157,-0.0298 4.53086,-1.92 l 0.4217,-1.92 h 6.02915 6.02915 v 9.6 9.6 h -5.98742 -5.98742 l -0.59409,-2.08 c -0.57959,-2.02928 -0.6911,-2.08465 -4.57258,-2.27055 l -3.9785,-0.19053 v 7.39054 7.39054 h 6.10009 c 6.58075,0 6.30791,0.15667 7.00305,-4.02132 l 0.40286,-2.42132 6.847,0.18132 6.84701,0.18132 0.17757,9.12 0.17757,9.12 H 408.91494 380.7861 Z M 74.768618,179.16762 C 62.220138,176.8846 48.815567,171.35116 38.656635,164.26051 32.121921,159.69947 23.198607,151.16913 18.462585,144.95578 -15.765873,100.05031 -0.71307303,34.77264 49.663855,9.6489801 c 26.022973,-12.97801 54.931045,-12.86101 81.771795,0.33097 l 3.86703,1.9006099 6.06421,-2.8726399 c 13.01163,-6.16367 24.7874,-8.83663996 39.00173,-8.85296996 32.38828,-0.0372 61.44907,16.54997986 78.25987,44.66886986 6.40333,10.71064 11.07,26.06711 11.8067,38.85195 l 0.35957,6.24 h -8.60477 -8.60477 L 252.8063,82.91069 C 250.59407,63.01565 241.08776,45.66261 225.61017,33.26629 219.7843,28.60022 209.21473,22.90911 202.61452,20.88445 188.21085,16.466 172.4386,16.54532 158.17922,21.10793 c -7.65772,2.45026 -7.56597,2.06563 -1.90592,7.98993 9.12247,9.54838 17.49752,24.56454 20.89163,37.45791 1.41829,5.38775 3.17003,16.89328 3.1912,20.96 l 0.0125,2.4 h -4.16 c -2.288,0 -4.16,-0.11348 -4.16,-0.25219 0,-2.81343 -1.64202,-14.81579 -2.56351,-18.73793 -2.26781,-9.65252 -7.95884,-21.77803 -13.83363,-29.47442 -3.46222,-4.53576 -9.0967,-10.73626 -11.10635,-12.22206 l -1.79765,-1.32905 -5.02942,3.70317 c -18.0667,13.30254 -28.66775,33.3438 -29.49089,55.75248 -1.04736,28.51273 13.12175,53.15437 38.72323,67.34392 l 3.98595,2.20921 -3.04387,2.56206 c -11.68667,9.83687 -27.31066,17.01908 -42.95908,19.74794 -6.733592,1.17424 -23.586262,1.14559 -30.164782,-0.0513 z m 33.329302,-9.15074 c 5.57953,-1.29796 17.04483,-5.42817 18.16675,-6.54432 0.39382,-0.39179 -0.29881,-1.35289 -1.92,-2.66421 -15.47256,-12.51522 -26.000732,-28.87818 -31.012072,-48.19919 -8.55787,-32.99451 2.31298,-67.92584 28.156022,-90.47379 2.64,-2.30339 4.8,-4.46993 4.8,-4.81453 0,-0.8973 -9.58923,-4.6567 -16.85022,-6.60601 -5.66132,-1.5198699 -7.28258,-1.6644199 -18.989782,-1.6931199 -14.08756,-0.0345 -19.01569,0.76871 -29.58226,4.8216599 -24.497659,9.39641 -43.385681,30.65089 -49.836389,56.08033 -5.36513,21.14997 -2.199976,43.45846 8.751149,61.67943 12.62362,21.00374 32.622507,34.87898 56.5875,39.26043 7.26871,1.32891 24.334632,0.87352 31.729302,-0.84668 z"
     id="path1116"
     inkscape:connector-curvature="0" />
</svg>
