<?xml version="1.0" encoding="UTF-8" standalone="no"?>
<!-- Created with Inkscape (http://www.inkscape.org/) -->

<svg
   xmlns:dc="http://purl.org/dc/elements/1.1/"
   xmlns:cc="http://creativecommons.org/ns#"
   xmlns:rdf="http://www.w3.org/1999/02/22-rdf-syntax-ns#"
   xmlns:svg="http://www.w3.org/2000/svg"
   xmlns="http://www.w3.org/2000/svg"
   xmlns:sodipodi="http://sodipodi.sourceforge.net/DTD/sodipodi-0.dtd"
   xmlns:inkscape="http://www.inkscape.org/namespaces/inkscape"
   version="1.1"
   id="svg3551"
   width="738.06317"
   height="299"
   viewBox="0 0 738.06317 299"
   sodipodi:docname="T--USP_SaoCarlos-Brazil--usp.svg"
   inkscape:version="0.92.2 5c3e80d, 2017-08-06">
  <metadata
     id="metadata3557">
    <rdf:RDF>
      <cc:Work
         rdf:about="">
        <dc:format>image/svg+xml</dc:format>
        <dc:type
           rdf:resource="http://purl.org/dc/dcmitype/StillImage" />
        <dc:title></dc:title>
      </cc:Work>
    </rdf:RDF>
  </metadata>
  <defs
     id="defs3555" />
  <sodipodi:namedview
     pagecolor="#4f4f4f"
     bordercolor="#666666"
     borderopacity="1"
     objecttolerance="10"
     gridtolerance="10"
     guidetolerance="10"
     inkscape:pageopacity="0"
     inkscape:pageshadow="2"
     inkscape:window-width="742"
     inkscape:window-height="480"
     id="namedview3553"
     showgrid="false"
     fit-margin-top="0"
     fit-margin-left="0"
     fit-margin-right="0"
     fit-margin-bottom="0"
     inkscape:zoom="0.39333333"
     inkscape:cx="364"
     inkscape:cy="108"
     inkscape:window-x="0"
     inkscape:window-y="0"
     inkscape:window-maximized="0"
     inkscape:current-layer="svg3551" />
  <path
     style="fill:#ffffff"
     d="M 53.222876,297.08411 C 32.718961,291.99339 16.357845,278.66725 6.921532,259.37165 -0.273103,244.65988 0.036697,250.96977 0.017364,118.75 L 0,0 H 119.5 239 V 10 20 H 189.5 140 V 124.5 229 H 130 120 V 124.5 20 H 70 20 l 0.01187,108.25 c 0.01299,118.48975 -0.258853,112.87808 6.04067,124.6972 6.436701,12.07648 19.956157,22.25202 33.224162,25.00644 3.635836,0.7548 26.657418,1.01357 73.262578,0.82351 76.79611,-0.31318 71.60817,0.20928 84.83088,-8.54304 11.61771,-7.68994 19.68655,-20.78768 21.39789,-34.73411 l 0.73625,-6 9.60509,-0.28449 9.60508,-0.28449 1.1984,7.42878 c 3.18205,19.72545 17.88244,36.22623 36.62209,41.10729 8.79035,2.2896 136.13973,2.2896 144.93008,0 15.75218,-4.10292 28.90064,-16.2471 34.69803,-32.04782 1.93176,-5.26498 2.2193,-8.45053 2.60137,-28.81911 l 0.42956,-22.89984 -58.60888,-58.61519 -58.60888,-58.61519 7.02381,-6.96999 7.02381,-6.96999 61.54886,61.48502 61.54886,61.48502 -0.41985,28 c -0.47,31.34493 -0.77047,33.16994 -7.82049,47.5 -3.34083,6.79066 -5.91117,10.22424 -12.78151,17.07409 -9.49802,9.4697 -15.62006,13.37417 -27.59973,17.60234 l -8,2.82357 H 369 295.5 l -7.75648,-2.74511 c -4.26606,-1.50981 -10.34106,-4.19077 -13.5,-5.95769 -5.59906,-3.13179 -18.94824,-15.46041 -22.87154,-21.123 l -1.95784,-2.8258 -4.816,6.13 c -8.85738,11.27403 -19.52919,18.71963 -34.6311,24.16171 L 203.5,298.47056 132,298.68072 c -66.02378,0.19406 -72.057359,0.0718 -78.777124,-1.59661 z M 499,289 v -10 h 50 50 V 174.5 70 h 10 10 v 54.5 54.5 h 49.52969 49.52969 L 717.77969,118.25 717.5,57.5 715.18759,51.77523 C 710.13816,39.2745 698.7255,27.86184 686.22477,22.81241 L 680.5,20.5 610.59662,20.22363 c -61.72701,-0.24404 -70.558,-0.0886 -75.5,1.32867 -19.16985,5.49767 -34.04313,23.21528 -35.84315,42.6977 L 498.72222,70 h -9.68182 -9.68182 l -1.18426,-7.61745 C 475.16613,43.03313 460.30486,26.36223 441.63161,21.39013 437.53623,20.29965 422.8558,20.02134 368.9315,20.01187 c -73.55172,-0.0129 -71.83102,-0.13131 -83.42537,5.74008 -6.70896,3.39742 -17.50664,14.41942 -20.83271,21.26549 -4.44102,9.14101 -5.63682,17.37849 -5.65606,38.96272 L 259,105.46032 l 58.50776,58.53896 58.50775,58.53896 -7.01969,6.9659 -7.01968,6.9659 L 300.42655,174.98502 238.87696,113.5 239.30167,86 c 0.34222,-22.15888 0.76093,-28.66533 2.15584,-33.5 5.86299,-20.32075 20.33112,-37.34372 39.22344,-46.14963 14.03037,-6.53972 12.80955,-6.45815 91.63715,-6.12302 L 443.5,0.52997 450,2.85644 c 14.2486,5.09984 26.02209,13.44749 34.41226,24.39903 l 4.40937,5.75547 3.65942,-4.98513 C 501.35855,15.93224 516.53922,5.82632 531.62324,1.96848 538.91467,0.10365 542.96249,0 608.5,0 c 65.53751,0 69.58533,0.10365 76.87676,1.96848 22.61696,5.78444 41.08475,22.69906 49.03795,44.91377 L 737.5,55.5 l 0.28158,71.75 0.28159,71.75 H 678.53158 619 v 50 50 h -60 -60 z"
     id="path4104"
     inkscape:connector-curvature="0" />
</svg>
