<?xml version="1.0" encoding="UTF-8" standalone="no"?>
<!-- Created with Inkscape (http://www.inkscape.org/) -->

<svg
   xmlns:dc="http://purl.org/dc/elements/1.1/"
   xmlns:cc="http://creativecommons.org/ns#"
   xmlns:rdf="http://www.w3.org/1999/02/22-rdf-syntax-ns#"
   xmlns:svg="http://www.w3.org/2000/svg"
   xmlns="http://www.w3.org/2000/svg"
   xmlns:sodipodi="http://sodipodi.sourceforge.net/DTD/sodipodi-0.dtd"
   xmlns:inkscape="http://www.inkscape.org/namespaces/inkscape"
   version="1.1"
   id="svg2790"
   width="1975.7627"
   height="615.2597"
   viewBox="0 0 1975.7627 615.2597"
   sodipodi:docname="T--USP_SaoCarlos-Brazil--cibfar.svg"
   inkscape:version="0.92.2 5c3e80d, 2017-08-06">
  <metadata
     id="metadata2796">
    <rdf:RDF>
      <cc:Work
         rdf:about="">
        <dc:format>image/svg+xml</dc:format>
        <dc:type
           rdf:resource="http://purl.org/dc/dcmitype/StillImage" />
        <dc:title></dc:title>
      </cc:Work>
    </rdf:RDF>
  </metadata>
  <defs
     id="defs2794" />
  <sodipodi:namedview
     pagecolor="#ffffff"
     bordercolor="#666666"
     borderopacity="1"
     objecttolerance="10"
     gridtolerance="10"
     guidetolerance="10"
     inkscape:pageopacity="0"
     inkscape:pageshadow="2"
     inkscape:window-width="742"
     inkscape:window-height="480"
     id="namedview2792"
     showgrid="false"
     fit-margin-top="0"
     fit-margin-left="0"
     fit-margin-right="0"
     fit-margin-bottom="0"
     inkscape:zoom="0.162"
     inkscape:cx="989.76264"
     inkscape:cy="666.02033"
     inkscape:window-x="0"
     inkscape:window-y="0"
     inkscape:window-maximized="0"
     inkscape:current-layer="svg2790" />
  <path
     style="fill:#ffffff"
     d="M 1475.7626,614.59306 C 1298.1714,608.97066 1092.2893,582.22302 882.58783,537.52948 794.33403,518.72 695.18778,493.98423 619.76264,471.95781 c -14.575,-4.25634 -27.85,-7.7303 -29.5,-7.7199 -1.65,0.0104 -7.5,1.00889 -13,2.21889 -24.78758,5.45328 -52.17669,7.58482 -88.21339,6.86514 -27.74376,-0.55406 -38.48522,-1.75913 -52.78661,-5.92208 -21.96532,-6.39382 -32.70798,-19.78392 -26.94932,-33.59077 1.99639,-4.78649 6.13725,-9.08239 15.41289,-15.98995 6.47323,-4.82061 7.20303,-5.666 5.5,-6.3712 -3.70399,-1.53378 -52.96286,-19.71625 -54.2819,-20.03657 -0.81329,-0.19751 -2.19731,1.98093 -3.61272,5.6864 -7.51833,19.68252 -21.14368,38.6887 -31.2391,43.57581 -2.53146,1.22546 -10.42551,3.72117 -17.54233,5.54602 -7.48809,1.92005 -18.27928,5.68054 -25.61359,8.92577 -29.18178,12.91212 -50.09644,18.59387 -74.9247,20.35431 -29.6092,2.09944 -60.95049,-2.87051 -90.76282,-14.39272 C 88.812643,444.31917 56.814375,417.62572 33.781163,378.96353 13.4891,344.90247 4.7931141,310.27162 6.9010571,271.91636 8.2682971,247.03863 13.820365,226.55025 25.706417,202.52033 l 4.734097,-9.57087 -3.360075,-3.92913 C 17.067428,177.31156 6.5591361,158.01018 2.7413361,144.31486 -4.9863681,116.59383 3.8045761,88.924011 26.829467,68.496591 43.110948,54.051841 63.206663,43.062711 91.492977,33.136011 240.69395,-19.224039 566.51037,-8.8982391 927.26264,59.623281 c 46.97736,8.92292 90.05156,17.83067 136.99996,28.33164 17.7439,3.96878 22.7073,4.65672 44,6.09839 70.2004,4.7531 182.134,4.21985 229.3144,-1.09245 17.7845,-2.00246 22.9849,-1.58775 28.5059,2.27326 9.3839,6.562419 23.3568,30.227829 27.6661,46.857089 2.2378,8.63525 4.1845,25.33356 3.7702,32.33911 l -0.2566,4.33912 16,5.53663 c 8.8,3.04515 25.5193,8.8401 37.154,12.87765 l 21.1539,7.34101 9.5778,-2.42961 c 15.543,-3.94278 31.4407,-5.7768 50.1143,-5.78136 19.9459,-0.005 32.1792,1.74908 47.1577,6.7612 36.5028,12.21457 57.4778,33.29352 62.4246,62.73389 l 1.2968,7.71735 10.0604,4.76076 c 17.9814,8.50905 52.8533,25.91799 61.4322,30.66848 4.6044,2.54967 8.5419,4.63577 8.75,4.63577 0.8934,0 0.2682,-23.86389 -0.7204,-27.5 -1.4854,-5.46292 -5.1274,-9.0515 -13.4013,-13.20453 -9.5568,-4.79702 -13.1461,-7.6814 -15.6388,-12.56762 -5.8853,-11.53609 0.045,-24.82998 15.0536,-33.74651 16.1552,-9.59769 51.0254,-20.69263 82.133,-26.13297 14.9894,-2.62147 38.5338,-3.15802 43.659,-0.99495 4.1196,1.73867 5.6496,5.8372 8.1969,21.95691 2.0976,13.27373 3.6313,16.78388 7.7897,17.82756 4.0758,1.02296 7.0251,-1.24854 14.4767,-11.14975 12.3012,-16.34479 23.4948,-24.4382 39.4394,-28.51614 27.3362,-6.99142 53.7605,4.81172 65.3737,29.20092 5.2068,10.9348 7.0168,18.371 7.0168,28.82708 0,10.90736 -1.8407,18.11332 -7.6521,29.95678 -8.6308,17.58942 -23.971,29.77936 -42.3479,33.65127 -8.1223,1.71133 -23.5426,1.44304 -30.0595,-0.523 -5.8735,-1.77195 -15.2702,-8.08274 -25.381,-17.04575 -5.2492,-4.65338 -10.5601,-9.02494 -11.8018,-9.71456 -3.5803,-1.98842 -8.3573,-1.59008 -11.0961,0.92526 -4.5851,4.21102 -4.9957,7.2537 -5.4314,40.25 -0.424,32.10776 0.7618,54.23977 3.2095,59.90362 0.7359,1.70301 3.7506,5.41894 6.6992,8.25763 4.2012,4.0446 7.0421,5.75091 13.1308,7.88668 18.4311,6.46513 25.8904,16.27172 23.0951,30.36258 -0.8437,4.25281 -0.5974,5.24972 3.357,13.58949 6.3044,13.2959 8.5044,22.68782 8.55,36.5 0.043,12.95422 -1.3886,19.31031 -6.742,29.94076 -24.3459,48.34456 -106.8986,78.80963 -242.5298,89.50269 -46.657,3.6784 -122.4997,5.2206 -175,3.5584 z m 152,-28.42942 c 56.3706,-3.94758 105.5935,-10.73829 138,-19.03826 l 5.5,-1.40866 -8.5,0.68724 c -14.8812,1.20319 -102.28,0.77034 -122.5,-0.60669 -135.112,-9.20144 -281.9997,-36.48344 -418.5,-77.72955 -13.475,-4.07172 -29.8346,-9.20476 -36.3547,-11.40675 l -11.8548,-4.00362 -37.1452,0.0133 c -73.0296,0.0262 -91.3351,-3.88114 -100.2909,-21.40743 -4.9421,-9.67138 -4.0305,-21.18565 2.2589,-28.53339 l 3.4561,-4.03772 -9.2847,-4.64685 c -5.1066,-2.55577 -9.7347,-4.97956 -10.2847,-5.38619 -0.55,-0.40664 -4.0029,-2.39096 -7.6732,-4.40961 l -6.6732,-3.67026 -3.2605,5.75599 c -8.29786,14.64896 -24.65524,32.37754 -37.89306,41.06967 -17.96801,11.79804 -40.0055,19.06748 -67.5,22.26603 -10.37301,1.20673 -49.89329,0.74907 -95.5,-1.10593 -24.69652,-1.00451 -94.59693,-0.12004 -91.46169,1.15728 2.80867,1.14428 44.866,11.82162 72.46169,18.39627 242.37286,57.74512 470.22706,91.19357 677.49996,99.45535 33.4487,1.33325 139.19,0.4322 165.5,-1.41026 z m 133.5,-46.57017 c 44.0162,-3.50706 72.2364,-9.46548 92.227,-19.4728 11.4026,-5.70813 17.7883,-12.11446 18.7999,-18.8606 1.1951,-7.96931 -3.2445,-17.12673 -13.6762,-28.20927 l -4.7444,-5.04041 -9.3031,1.21801 c -18.946,2.48047 -58.5703,3.68517 -81.3681,2.47383 -46.1175,-2.4504 -66.1016,-8.90947 -73.0518,-23.61102 -5.5945,-11.83398 -1.3704,-23.83525 12.0126,-34.12951 10.2011,-7.84674 13.4561,-11.40874 15.1868,-16.61949 0.8916,-2.68431 1.4627,-5.01133 1.2692,-5.17115 -1.6237,-1.3408 -61.8899,-23.77946 -72.6019,-27.03154 -2.5892,-0.78606 -2.5413,-1.07148 -1.2505,7.45169 2.4747,16.33967 6.7596,24.12508 14.3032,25.98765 10.7376,2.65119 11.8057,3.14218 13.7414,6.31682 6.9856,11.45677 -6.6836,37.34704 -27.5972,52.27071 -8.1575,5.82106 -23.25,12.92284 -31.9933,15.05446 -9.8224,2.39471 -28.9995,2.40154 -36.9536,0.0132 -9.2313,-2.77188 -17.4045,-7.82843 -24.5193,-15.16942 -3.5644,-3.67774 -7.9324,-7.31529 -9.7066,-8.08345 -4.3596,-1.88744 -8.1673,-0.50521 -20.3513,7.3877 -11.913,7.71724 -20.7664,11.75364 -32.9113,15.00469 -8.3573,2.23713 -11.5745,2.55361 -26.5115,2.60796 -10.6481,0.0387 -19.6155,-0.45334 -24,-1.31701 -21.5067,-4.23641 -38.6156,-14.14016 -49.2971,-28.5364 -6.0545,-8.16021 -11.8908,-20.54122 -13.6877,-29.03687 -1.9166,-9.06218 -1.9191,-23.48554 -0.01,-31.0399 7.3332,-28.94577 36.4907,-53.37005 75.6334,-63.35569 4.2039,-1.07243 9.8289,-2.26698 12.5,-2.65456 10.4365,-1.51428 10.5441,-1.4837 -43.6433,-12.40547 -18.975,-3.82452 -48,-9.17917 -64.5,-11.89923 -34.998,-5.76948 -36.4973,-5.98393 -36.5086,-5.22196 0,0.31725 -0.4637,5.71923 -1.0199,12.00441 -3.7187,42.01503 -17.5457,64.59929 -38.4871,62.86266 -10.7111,-0.88824 -14.7527,-6.6651 -17.5643,-25.10577 -2.4525,-16.0856 -3.8683,-19.52249 -10.5618,-25.64002 -7.4837,-6.83969 -15.85,-9.46595 -28.1792,-8.84573 -10.1208,0.50912 -14.2434,2.26765 -16.4272,7.00721 -3.3867,7.35034 -2.9577,60.28703 0.6386,78.79405 1.8086,9.30754 3.7331,13.93219 7.6574,18.40172 3.4734,3.95601 5.7733,4.83553 18.6932,7.14845 11.1146,1.98973 15.8767,4.96304 19.3109,12.05718 2.9561,6.10653 3.0574,15.09621 0.2419,21.46113 -2.3084,5.21847 -7.8865,10.4112 -14.2431,13.25904 l -4.5508,2.03884 7.5,2.38365 c 4.125,1.31101 18.975,5.53809 33,9.39353 134.5777,36.99502 285.0142,61.3481 403,65.23871 17.5984,0.58032 69.7049,-0.28084 83.5,-1.37999 z M 633.01422,441.75336 c 0.7058,-7.78367 2.47919,-10.87023 9.30353,-16.19263 3.15194,-2.45823 8.02896,-6.28833 10.83784,-8.51131 9.59189,-7.59116 11.80794,-14.47217 15.60609,-48.45821 5.51202,-49.3217 8.96306,-158.12348 5.96766,-188.14405 -2.11022,-21.14911 -5.73873,-26.74199 -23.46353,-36.16592 -11.6388,-6.18812 -15.95262,-10.83592 -17.08868,-18.41166 -1.80736,-12.05239 6.16798,-23.14292 20.08551,-27.930939 4.53443,-1.55997 13.10092,-1.76467 92,-2.19843 154.7534,-0.85078 148.97679,-0.98503 170.38633,3.95964 27.90382,6.444559 50.28529,22.832239 60.62753,44.391359 5.78219,12.05339 7.73299,21.11511 7.75006,36 0.0166,14.47965 -2.39978,25.72733 -8.17452,38.0503 -5.34867,11.41375 -8.81957,16.15742 -19.15091,26.17345 -9.32052,9.03607 -11.70672,13.15309 -10.0746,17.38221 1.12494,2.91495 4.53661,6.10442 8.87507,8.29704 3.1418,1.58784 3.41177,1.54978 9,-1.26876 19.89773,-10.03581 51.8622,-17.20953 92.261,-20.70591 11.275,-0.97582 20.8595,-2.07842 21.299,-2.45023 1.2454,-1.05378 -1.1054,-67.3921 -2.697,-76.10699 -2.6427,-14.47072 -6.5957,-19.62775 -20.5327,-26.78668 -11.5878,-5.95226 -15.818,-9.23881 -17.7053,-13.75562 -1.6123,-3.85892 -1.7862,-12.08806 -0.336,-15.9024 0.5654,-1.48708 0.8191,-2.91268 0.5637,-3.168 -1.0419,-1.04196 -78.1636,-17.027949 -121.59166,-25.203849 -273.31021,-51.45424 -526.524,-69.70629 -700.5,-50.49313 -51.32703,5.66834 -100.78414,16.92097 -131.500003,29.91928 -26.893178,11.38064 -46.485907,26.60444 -54.072521,42.015039 -2.699526,5.48351 -3.373875,8.17829 -3.726158,14.89016 -0.546331,10.40896 0.920289,17.40349 5.738206,27.36632 3.852701,7.9669 12.03834,21.24777 13.096019,21.24777 0.31171,0 3.866065,-3.68984 7.898568,-8.19965 19.465932,-21.77002 39.732836,-36.91488 67.478009,-50.42435 44.35738,-21.598159 93.92798,-26.888559 137.58788,-14.684009 9.25743,2.58779 13.24237,4.074659 36.93752,13.782169 12.39625,5.07853 17.74235,5.75472 27.59397,3.49015 8.30844,-1.90984 18.32264,-1.56929 23.68574,0.80547 13.89383,6.15213 29.66439,30.17965 35.66899,54.34413 4.34655,17.49193 5.36929,37.24071 2.60938,50.38609 -5.30549,25.26995 -26.23735,41.7762 -50.9956,40.21363 -16.15851,-1.01981 -25.0238,-7.17214 -35.18287,-24.4162 -11.81155,-20.04896 -18.10366,-29.80769 -23.10411,-35.83324 -10.05322,-12.11413 -29.55172,-24.45307 -46.71302,-29.56068 -8.85446,-2.63531 -29.38622,-3.69285 -37.79418,-1.9467 -23.09343,4.79602 -40.52166,25.08205 -45.57071,53.04319 -1.4455,8.00504 -2.12498,21.81274 -1.32677,26.96142 0.68786,4.43688 0.75414,4.49904 12.05036,11.30128 41.95145,25.2619 103.6721,55.83498 164.84092,81.65331 l 19.19962,8.10384 4.74616,-3.00992 c 4.99033,-3.16477 10.79474,-3.93368 15.67841,-2.07692 4.47377,1.70093 9.95148,7.46952 12.78776,13.46682 l 2.79877,5.91801 8.79483,3.41122 c 16.6454,6.4562 54.23399,20.27094 55.1553,20.27094 3.17144,0 4.53053,-31.3989 4.58816,-106 0.045,-58.23686 -0.17251,-68.30174 -1.75035,-81 -3.66291,-29.47857 -5.89693,-33.629 -25.69828,-47.74309 -10.00225,-7.12944 -12.36875,-9.50187 -14.45227,-14.48844 -3.15625,-7.55397 -1.32457,-16.26584 4.75295,-22.6061 6.92728,-7.22676 22.20495,-12.53378 50.69932,-17.611509 25.94102,-4.62271 31.28817,-5.04356 63.5,-4.99773 26.92221,0.0383 32.86649,0.33548 45.18934,2.25928 27.95021,4.36348 41.62563,10.943889 47.35963,22.788749 1.77395,3.66449 2.09809,5.81559 1.79142,11.88852 -0.46527,9.21356 -1.9521,10.99854 -15.52499,18.63809 -17.42096,9.80545 -21.54822,17.78154 -24.51292,47.37223 -1.72863,17.2534 -1.69668,136.7137 0.0431,161 2.97394,41.51546 4.10446,44.35548 21.75511,54.65184 15.6124,9.10738 20.52605,16.29714 18.99997,27.80123 l -0.65777,4.95855 6.27858,1.95065 c 9.53051,2.96098 9.42254,3.00081 10.03016,-3.70012 z m 883.32348,-28.6533 c 8.5133,-4.98909 11.9034,-14.80456 11.7462,-34.00885 -0.169,-20.64702 -2.806,-25 -15.1446,-25 -11.4882,0 -20.2515,6.23393 -26.0064,18.5 -2.0804,4.43443 -2.5891,7.04992 -2.6253,13.5 -0.025,4.4 0.5772,10.14202 1.3378,12.76005 1.5927,5.48294 8.0565,13.36837 12.5696,15.33418 5.1536,2.24481 13.2696,1.75874 18.1227,-1.08538 z m -674.09181,-0.71007 c 18.62039,-4.68162 27.46844,-19.89888 27.5018,-47.29878 0.0478,-39.22714 -15.19816,-59.44044 -44.86903,-59.48813 -12.88537,-0.0207 -18.69951,3.22661 -21.07201,11.76918 -1.36415,4.91182 -1.34912,53.51434 0.0204,66.00836 0.58543,5.34083 1.71372,11.97454 2.5073,14.7416 1.64189,5.72494 6.4517,12.11038 10.31403,13.69277 6.44523,2.64061 16.48493,2.86613 25.5975,0.575 z m 230.10611,-18.2814 c 3.4647,-11.37139 6.4106,-56.41923 6.4106,-98.02934 v -22.48804 h -5.8707 c -16.3353,0 -55.2573,5.6633 -72.304,10.52052 -15.21732,4.33596 -14.56604,3.19054 -6.62146,11.64536 17.86866,19.01641 24.68906,38.30078 23.47026,66.36105 l -0.5659,13.02693 9.6959,5.44892 c 5.3327,2.9969 16.8959,9.15279 25.6959,13.67974 18.0462,9.28345 17.2085,9.29034 20.0894,-0.16514 z M 274.78887,377.56026 c 13.59704,-1.65426 39.02831,-8.72855 38.95028,-10.83491 -0.0129,-0.34878 -5.75042,-3.08062 -12.75,-6.07076 -51.01233,-21.7919 -102.3411,-47.03211 -145.47651,-71.53604 -2.6125,-1.48408 -4.75,-2.19021 -4.75,-1.56917 0,0.62104 1.61675,5.49702 3.59279,10.8355 12.28795,33.19732 34.42227,58.96895 60.97415,70.99398 16.70274,7.56447 39.14675,10.6527 59.45929,8.1814 z M 1722.0932,354.96571 c 0.3478,-5.29403 0.405,-9.99327 0.1272,-10.44277 -1.1842,-1.9161 -76.291,-40.93173 -78.7954,-40.93173 -0.3643,0 -0.6624,7.33225 -0.6624,16.29388 v 16.29388 l 8.75,2.81184 c 12.2805,3.94639 53.3472,18.88481 61.75,22.4622 3.85,1.63909 7.2696,3.01572 7.5992,3.05918 0.3295,0.0435 0.8837,-4.25246 1.2314,-9.54648 z m -195.6382,-67.1245 c -0.6457,-15.3983 -2.8158,-26.66638 -6.5322,-33.91908 -1.7914,-3.49586 -2.8558,-4.16992 -12.1692,-7.70698 -9.5023,-3.60875 -10.4849,-3.79253 -14.2483,-2.66499 -5.0388,1.50965 -12.8582,8.7737 -21.5733,20.04105 -3.616,4.675 -9.2297,11.5375 -12.475,15.25 -3.2452,3.7125 -5.5924,6.75 -5.2161,6.75 1.2251,0 44.6613,9.98862 58.5217,13.45768 7.425,1.85837 13.6825,3.41563 13.9055,3.46058 0.223,0.045 0.1271,-6.55576 -0.2131,-14.66826 z m -136.2341,-20.76263 c 1.7568,-14.06096 16.0172,-31.80174 33.7503,-41.98737 4.7877,-2.75 8.7232,-5.225 8.7455,-5.5 0.022,-0.275 -11.0037,-4.25405 -24.5023,-8.84234 l -24.5429,-8.34234 -3.5792,1.69849 c -4.8079,2.28145 -13.8214,2.98129 -19.303,1.49873 -3.4177,-0.92438 -6.3673,-3.05101 -12.5,-9.01243 l -8.0267,-7.80256 -16.5,-5.04153 c -38.0638,-11.63028 -99.7887,-29.15602 -102.6863,-29.15602 -3.2518,0 -8.1121,4.87682 -9.7376,9.7709 -3.541,10.66096 -7.5528,40.88644 -7.567,57.01122 -0.011,11.9625 1.3552,16.25258 6.0912,19.13271 4.5746,2.78195 15.7911,4.41567 26.4784,3.85666 15.1031,-0.78999 20.254,-5.03597 23.9044,-19.70467 4.805,-19.30856 12.9803,-28.37304 25.6069,-28.39183 17.5842,-0.0262 27.3612,15.62108 31.441,50.31888 0.8079,6.87163 1.469,12.95814 1.469,13.52557 0,0.56762 7.0846,2.06921 15.75,3.33823 8.6625,1.2686 24.075,3.79878 34.25,5.62262 10.175,1.82383 19.0106,3.36189 19.6348,3.41789 0.6478,0.0581 1.4303,-2.2636 1.8235,-5.41081 z M 832.3098,250.50393 c 15.69811,-4.84865 24.45284,-21.87602 24.45284,-47.55914 0,-20.69625 -5.34176,-37.6392 -14.676,-46.54924 -4.85046,-4.63003 -13.75679,-7.9275 -21.75875,-8.05594 -8.34107,-0.13389 -12.7264,1.72876 -15.16287,6.44037 -2.91846,5.64369 -3.73257,22.11522 -2.7832,56.31123 0.85498,30.79582 0.97436,32.13845 3.17247,35.67929 1.25623,2.0236 3.50453,4.12558 4.99621,4.67105 4.66318,1.70521 14.58732,1.27758 21.7593,-0.93762 z"
     id="path3343"
     inkscape:connector-curvature="0" />
</svg>
