<?xml version="1.0" encoding="UTF-8" standalone="no"?>
<!-- Created with Inkscape (http://www.inkscape.org/) -->

<svg
   xmlns:dc="http://purl.org/dc/elements/1.1/"
   xmlns:cc="http://creativecommons.org/ns#"
   xmlns:rdf="http://www.w3.org/1999/02/22-rdf-syntax-ns#"
   xmlns:svg="http://www.w3.org/2000/svg"
   xmlns="http://www.w3.org/2000/svg"
   xmlns:sodipodi="http://sodipodi.sourceforge.net/DTD/sodipodi-0.dtd"
   xmlns:inkscape="http://www.inkscape.org/namespaces/inkscape"
   version="1.1"
   id="svg869"
   width="612.39954"
   height="261.26978"
   viewBox="0 0 612.39954 261.26977"
   sodipodi:docname="T--USP_SaoCarlos-Brazil--twist.svg"
   inkscape:version="0.92.2 5c3e80d, 2017-08-06">
  <metadata
     id="metadata875">
    <rdf:RDF>
      <cc:Work
         rdf:about="">
        <dc:format>image/svg+xml</dc:format>
        <dc:type
           rdf:resource="http://purl.org/dc/dcmitype/StillImage" />
        <dc:title></dc:title>
      </cc:Work>
    </rdf:RDF>
  </metadata>
  <defs
     id="defs873" />
  <sodipodi:namedview
     pagecolor="#000000"
     bordercolor="#666666"
     borderopacity="1"
     objecttolerance="10"
     gridtolerance="10"
     guidetolerance="10"
     inkscape:pageopacity="0"
     inkscape:pageshadow="2"
     inkscape:window-width="1287"
     inkscape:window-height="593"
     id="namedview871"
     showgrid="false"
     fit-margin-top="0"
     fit-margin-left="0"
     fit-margin-right="0"
     fit-margin-bottom="0"
     inkscape:zoom="0.70710678"
     inkscape:cx="44.463221"
     inkscape:cy="156.48324"
     inkscape:window-x="0"
     inkscape:window-y="0"
     inkscape:window-maximized="0"
     inkscape:current-layer="svg869" />
  <path
     style="fill:#ffffff"
     d="m 165.70562,258.35993 c -2.54192,-2.5419 -2.93914,-3.566 -2.42415,-6.25 0.79097,-4.1222 4.863,-7.7099 8.75075,-7.7099 3.54325,0 8.86731,4.7288 8.86731,7.876 0,8.3151 -9.25629,12.0215 -15.19391,6.0839 z m -56.88301,-7.883 c -3.2576,-3.2576 -3.62996,-5.8093 -1.46007,-10.0054 3.88914,-7.5208 15.93699,-4.173 15.93699,4.4285 0,7.7843 -8.8574,11.1964 -14.47692,5.5769 z m 114.43268,0.5527 c -5.76326,-4.9574 -1.95128,-14.6296 5.76575,-14.6296 4.16041,0 6.38802,1.4017 7.85462,4.9423 1.72467,4.1638 0.56578,7.7566 -3.25297,10.0849 -4.24937,2.591 -7.01629,2.4849 -10.3674,-0.3976 z M 61.674669,221.84123 C 53.754399,217.54303 56.468589,206 65.399529,206 c 7.94099,0 11.49388,9.70303 5.42327,14.81113 -3.49177,2.9381 -5.26436,3.1377 -9.14813,1.0301 z m 214.224861,0.8525 c -6.57574,-2.4038 -8.14729,-10.3091 -2.92327,-14.70484 3.36215,-2.82907 5.53947,-3.17651 9.26595,-1.47862 6.36722,2.9011 5.83505,12.15396 -0.88237,15.34156 -1.79441,0.8515 -3.41956,1.5126 -3.61144,1.4692 -0.19188,-0.043 -1.02387,-0.3257 -1.84887,-0.6273 z m 41.4329,-4.608 c -0.27738,-0.7228 -0.37576,-6.23534 -0.21862,-12.25 L 317.39953,194.9 h 6.83066 c 5.60748,0 7.08483,0.3476 8.25,1.94113 1.72304,2.35647 1.85046,6.72775 0.24297,8.33524 -0.90183,0.90183 -0.78514,1.60868 0.5,3.02874 3.21091,3.54802 1.5721,8.33842 -3.45174,10.08972 -4.42424,1.5423 -11.81459,1.4181 -12.43899,-0.2091 z m 11.40459,-3.5641 c 0.73562,-0.4663 1.18562,-1.9219 1,-3.23472 -0.27742,-1.96208 -1.00492,-2.44215 -4.08749,-2.69728 -3.68927,-0.30533 -3.75,-0.2527 -3.75,3.25 0,3.2211 0.26206,3.5589 2.75,3.5451 1.5125,-0.01 3.35187,-0.3969 4.08749,-0.8631 z M 329.39953,201.4 c 0,-2.16705 -0.49943,-2.54133 -3.75,-2.81037 -3.59854,-0.29783 -3.75,-0.18432 -3.75,2.81037 0,2.99469 0.15146,3.1082 3.75,2.81037 3.25057,-0.26904 3.75,-0.64332 3.75,-2.81037 z m 20.12583,16.46733 c -0.95271,-2.4827 -0.71667,-20.7755 0.28856,-22.36305 0.49495,-0.78167 1.60212,-1.12005 2.51659,-0.76914 1.4054,0.5393 1.59356,2.26411 1.35092,12.38364 -0.2377,9.91365 -0.53656,11.80585 -1.90607,12.06825 -0.8933,0.1711 -1.9058,-0.4227 -2.25,-1.3197 z m 22.69402,-0.3714 c -2.5716,-1.6024 -3.31252,-2.8642 -3.87186,-6.59416 -1.82562,-12.17415 4.19184,-19.35678 12.89469,-15.3915 3.33029,1.51738 4.65732,4.9027 4.65732,11.88102 0,4.69135 -0.46007,6.41994 -2.25,8.45404 -3.08727,3.5083 -7.44021,4.1369 -11.43015,1.6506 z m 8.12345,-4.3184 c 3.23273,-4.61541 1.36326,-14.77753 -2.71855,-14.77753 -3.66028,0 -4.72475,1.91501 -4.72475,8.5 0,3.41111 0.52896,6.62893 1.2,7.30003 1.8601,1.8601 4.53058,1.4227 6.2433,-1.0225 z m 21.90903,5.2803 c -2.82735,-1.2081 -3.83999,-2.9702 -2.4854,-4.3248 0.79021,-0.7902 1.74894,-0.7414 3.46362,0.1763 3.04843,1.6314 6.66353,1.0857 8.06732,-1.2179 0.88033,-1.44459 0.71148,-2.09866 -0.839,-3.25 -1.06762,-0.79279 -2.93027,-1.44143 -4.13922,-1.44143 -3.71116,0 -6.74571,-3.23663 -6.63648,-7.07842 0.16644,-5.85392 5.89496,-8.51525 12.73301,-5.91543 4.16168,1.58227 2.46326,3.49385 -3.10424,3.49385 -4.54719,0 -4.91194,0.18209 -4.91194,2.45217 0,2.03673 0.69822,2.62969 4.12131,3.5 2.26672,0.57631 4.85422,1.66543 5.75,2.42027 2.24817,1.89447 2.07867,7.41039 -0.29369,9.55729 -2.26063,2.0459 -8.66619,2.9353 -11.72529,1.6281 z m 32.14767,-0.1714 c -3.73064,-2.1173 -4.5,-4.1045 -4.5,-11.62301 0,-6.47497 0.29349,-7.64782 2.45455,-9.80887 2.65339,-2.6534 6.38595,-3.14213 9.86119,-1.29121 2.56186,1.36446 4.60753,3.82089 4.65246,5.58666 0.0513,2.01518 -3.79942,1.43388 -4.9682,-0.75 -1.18683,-2.21761 -4.94075,-2.65925 -6.8,-0.8 -0.67104,0.67104 -1.2,3.88889 -1.2,7.3 0,3.41111 0.52896,6.62893 1.2,7.30003 1.79495,1.7949 4.60482,1.4508 6.53203,-0.8 1.75319,-2.04761 5.26797,-2.75202 5.26797,-1.0558 0,0.5193 -1.0125,2.0948 -2.25,3.5011 -2.59701,2.9511 -7.35482,4.0843 -10.25,2.4411 z m 26.9329,-0.2007 c -0.27738,-0.7228 -0.37576,-6.23001 -0.21862,-12.23814 0.24782,-9.475 0.51783,-10.96834 2.03572,-11.25906 1.59165,-0.30485 1.75,0.80253 1.75,12.23815 0,10.62415 -0.2374,12.57335 -1.53138,12.57335 -0.84227,0 -1.75834,-0.5915 -2.03572,-1.3143 z m 20.27341,0.6872 c -0.3885,-0.3884 -0.7063,-6.0313 -0.7063,-12.5396 V 194.4 h 8 c 7.3333,0 8,0.16667 8,2 0,1.77778 -0.6667,2 -6,2 h -6 v 3 c 0,2.93333 0.1111,3 5,3 4.3333,0 5,0.26667 5,2 0,1.73667 -0.6667,2 -5.0634,2 h -5.0633 l 0.3133,3.25 c 0.3103,3.21783 0.3709,3.25303 6.1267,3.55183 4.8399,0.2512 5.7591,0.5861 5.4894,2 -0.2616,1.3714 -1.6771,1.7539 -7.357,1.9878 -3.8682,0.1593 -7.3509,-0.028 -7.7394,-0.4167 z m 29.9604,-0.04 c -0.3667,-0.3667 -0.6667,-5.9917 -0.6667,-12.5 0,-11.11415 0.1199,-11.83333 1.9737,-11.83333 1.3655,0 3.4456,2.31326 6.75,7.50668 l 4.7763,7.50669 0.5,-7.25669 c 0.4426,-6.42335 0.7297,-7.25668 2.5,-7.25668 1.8666,0 2.019,0.76143 2.2843,11.4157 0.4007,16.09023 -1.1686,16.82663 -9.2843,4.35642 l -5,-7.68278 -0.2904,8.20533 c -0.2086,5.89306 -0.6548,8.20536 -1.5834,8.20536 -0.7111,0 -1.5929,-0.3 -1.9595,-0.6667 z m 37.1643,-0.8224 c -5.6306,-3.1431 -6.4674,-16.76983 -1.3056,-21.26088 4.2201,-3.67164 11.1645,-2.42073 13.3643,2.40732 1.4669,3.21938 1.4353,3.34268 -0.8545,3.34268 -1.0807,0 -2.4465,-0.9 -3.0352,-2 -1.2707,-2.37435 -5.2223,-2.64195 -7.0204,-0.4754 -0.6959,0.83852 -1.2653,3.97746 -1.2653,6.9754 0,7.99748 3.663,11.05558 7.7857,6.49998 1.8545,-2.04923 5.5,-2.749 5.5,-1.0557 0,2.0186 -4.6483,6.0825 -7.5,6.5572 -1.7045,0.2837 -4.1526,-0.1441 -5.669,-0.9906 z m 27.8753,0.8621 c -0.3885,-0.3885 -0.7063,-6.0314 -0.7063,-12.5397 V 194.3996 h 8 c 7.3333,0 8,0.16667 8,2 0,1.77778 -0.6667,2 -6,2 h -6 v 3 c 0,2.93333 0.1111,3 5,3 4.3333,0 5,0.26667 5,2 0,1.73333 -0.6667,2 -5,2 h -5 v 3.5 3.50003 h 6.0733 c 5.2447,0 6.0278,0.2387 5.7394,1.75 -0.2737,1.4346 -1.6014,1.8022 -7.367,2.0396 -3.8682,0.1593 -7.3509,-0.028 -7.7394,-0.4167 z M 20.899529,132.48489 v -32.01492 l -10.25,-0.28499 L 0.39952948,99.9 l -0.30115,-5.21811 c -0.27324,-4.73445 -0.0879,-5.27035 2.00000002,-5.78176 1.26563,-0.31001 13.1011495,-0.43686 26.3011495,-0.28189 l 24,0.28176 v 5.5 5.5 l -9.736,0.28604 -9.736,0.28605 -0.264,31.71395 -0.264,31.71396 -5.75,0.2999 -5.75,0.29991 z M 155.4643,163.20265 c -1.24574,-3.93052 -2.81346,-9.67985 -5.94514,-21.80265 -1.91809,-7.425 -5.37238,-20.7 -7.67619,-29.5 -6.11561,-23.36017 -5.91871,-22.29551 -4.24252,-22.93873 0.80446,-0.3087 3.4605,-0.56127 5.90231,-0.56127 3.65556,0 4.60765,0.39737 5.39089,2.25 0.52319,1.2375 3.51122,12.825 6.64006,25.75 l 5.68882,23.5 1.76478,-5.5 c 0.97064,-3.025 4.12479,-14.05 7.00923,-24.5 2.88445,-10.45 5.67272,-19.5625 6.19616,-20.25 1.48477,-1.95012 8.4634,-1.58444 9.54203,0.5 0.49806,0.9625 2.12751,6.25 3.62099,11.75 1.49349,5.5 3.1073,11.125 3.58625,12.5 0.47895,1.375 2.06451,7 3.52347,12.5 1.45896,5.5 2.96489,10.57327 3.34651,11.27393 0.38163,0.70066 3.28082,-9.42434 6.44265,-22.5 3.16183,-13.07566 6.10849,-24.44893 6.54813,-25.27393 0.85327,-1.60117 6.94718,-2.50535 10.63952,-1.57863 l 2.23337,0.56054 -1.91349,7.25904 c -5.77182,21.89604 -12.46321,47.53521 -14.81315,56.75905 l -2.67506,10.5 h -5.43516 -5.43515 l -3.59364,-12.5 c -1.9765,-6.875 -5.06953,-17.675 -6.87339,-24 -1.80387,-6.325 -3.62929,-11.88164 -4.0565,-12.34809 -0.4272,-0.46646 -1.22242,1.10854 -1.76713,3.5 -0.54472,2.39145 -2.66205,9.97309 -4.70519,16.84809 -2.04313,6.875 -4.33017,14.75 -5.08232,17.5 -3.29321,12.04064 -2.50977,10.9679 -8.25449,11.30265 -3.60522,0.21008 -5.32006,-0.0958 -5.60665,-1 z m 160.1019,0.53068 c -0.36667,-0.36666 -0.66667,-17.23309 -0.66667,-37.48094 V 89.4381 l 2.36163,-0.59273 c 1.29889,-0.326 3.88639,-0.44707 5.75,-0.26905 l 3.38837,0.32368 0.26203,37.75 0.26202,37.75 h -5.34536 c -2.93995,0 -5.64536,-0.3 -6.01202,-0.66667 z m 116.65751,-0.77282 c -4.65197,-1.45458 -10.43084,-4.77917 -12.37119,-7.11716 -1.06993,-1.28919 -0.6679,-2.15099 2.53238,-5.42836 l 3.80423,-3.89589 3.1052,2.34225 c 8.20137,6.18627 26.14866,5.99726 29.52471,-0.31095 1.88473,-3.52165 1.30448,-9.78209 -1.16951,-12.61824 -1.82199,-2.08871 -3.86691,-2.84671 -10.75,-3.9848 -14.58496,-2.41155 -15.18325,-2.63537 -20.04762,-7.49974 -6.64088,-6.64089 -7.80875,-14.51857 -3.51844,-23.73325 4.16778,-8.9515 13.40291,-13.06916 27.00452,-12.04048 4.93356,0.37313 8.87912,1.36009 12.23455,3.06041 7.6399,3.87143 7.93433,4.66676 3.37553,9.1183 l -3.90065,3.80889 -2.63471,-2.07246 c -5.22093,-4.10679 -17.20741,-4.88844 -22.07114,-1.43929 -2.24252,1.59029 -4.44204,5.81822 -4.44204,8.53851 0,6.59986 3.5652,8.94658 17.15469,11.29174 5.11682,0.88302 10.44712,2.19698 11.8451,2.9199 4.26293,2.20445 7.77585,6.39341 9.4281,11.2425 1.99954,5.86834 1.98238,9.15394 -0.0757,14.48737 -3.84927,9.97529 -12.6225,14.81752 -26.63971,14.70334 -4.51687,-0.0368 -10.09161,-0.65446 -12.38831,-1.37259 z m 148.34253,0.77282 c -0.3667,-0.36666 -0.6667,-14.75037 -0.6667,-31.96378 v -31.29713 l -9.75,-0.28621 -9.75,-0.28621 v -5.5 -5.5 h 26 26 v 5.5 5.5 l -10.25,0.28498 -10.25,0.28499 V 132.43498 164.4 h -5.3333 c -2.9334,0 -5.6334,-0.3 -6,-0.66667 z M 319.39953,55.24527 c -3.2442,-1.77444 -4.5,-3.99232 -4.5,-7.94751 0,-2.92629 0.65644,-4.27233 3.07673,-6.30887 1.69219,-1.42389 4.20181,-2.58889 5.57692,-2.58889 3.07103,0 8.34635,5.03917 8.34635,7.97274 0,3.67861 -2.8018,7.76252 -6.11884,8.91884 -3.82244,1.33251 -3.86077,1.33223 -6.38116,-0.0463 z m 210.42311,-2.76835 c -1.7622,-1.76217 -2.9231,-3.97705 -2.9231,-5.57692 0,-3.16818 4.9291,-8.5 7.858,-8.5 5.7922,0 11.1352,6.02533 9.483,10.6941 -2.3758,6.71367 -9.4316,8.36914 -14.4179,3.38282 z M 366.35408,22.94545 C 360.96135,17.55273 364.76545,8.4 372.39953,8.4 c 9.00792,0 11.79917,11.58466 3.81574,15.83666 -3.47524,1.85092 -7.2078,1.36219 -9.86119,-1.29121 z m 114.74016,-0.0351 C 474.88451,17.68524 478.27944,8.4 486.39954,8.4 c 10.4102,0 11.7122,14.9869 1.4447,16.62966 -2.8923,0.46275 -4.1512,0.0675 -6.75,-2.1193 z m -58.0204,-8.82481 C 418.07725,8.76691 422.01438,0 429.39953,0 c 7.48868,0 11.50237,9.23079 6.18555,14.22569 -3.24679,3.0502 -9.58072,2.97925 -12.51124,-0.14014 z"
     id="path4136"
     inkscape:connector-curvature="0" />
</svg>
