<?xml version="1.0" encoding="UTF-8" standalone="no"?>
<!-- Created with Inkscape (http://www.inkscape.org/) -->

<svg
   xmlns:dc="http://purl.org/dc/elements/1.1/"
   xmlns:cc="http://creativecommons.org/ns#"
   xmlns:rdf="http://www.w3.org/1999/02/22-rdf-syntax-ns#"
   xmlns:svg="http://www.w3.org/2000/svg"
   xmlns="http://www.w3.org/2000/svg"
   xmlns:sodipodi="http://sodipodi.sourceforge.net/DTD/sodipodi-0.dtd"
   xmlns:inkscape="http://www.inkscape.org/namespaces/inkscape"
   version="1.1"
   id="svg869"
   width="206"
   height="159.54417"
   viewBox="0 0 206 159.54417"
   sodipodi:docname="T--USP_SaoCarlos-Brazil--pr-poÌs.svg"
   inkscape:version="0.92.2 5c3e80d, 2017-08-06">
  <metadata
     id="metadata875">
    <rdf:RDF>
      <cc:Work
         rdf:about="">
        <dc:format>image/svg+xml</dc:format>
        <dc:type
           rdf:resource="http://purl.org/dc/dcmitype/StillImage" />
        <dc:title></dc:title>
      </cc:Work>
    </rdf:RDF>
  </metadata>
  <defs
     id="defs873" />
  <sodipodi:namedview
     pagecolor="#000000"
     bordercolor="#666666"
     borderopacity="1"
     objecttolerance="10"
     gridtolerance="10"
     guidetolerance="10"
     inkscape:pageopacity="0"
     inkscape:pageshadow="2"
     inkscape:window-width="1287"
     inkscape:window-height="593"
     id="namedview871"
     showgrid="false"
     fit-margin-top="0"
     fit-margin-left="0"
     fit-margin-right="0"
     fit-margin-bottom="0"
     inkscape:zoom="1"
     inkscape:cx="150.84918"
     inkscape:cy="1.4867797"
     inkscape:window-x="0"
     inkscape:window-y="0"
     inkscape:window-maximized="0"
     inkscape:current-layer="svg869" />
  <path
     style="fill:#ffffff"
     d="m 101.5828,159.13397 c -0.32739,-0.52973 -0.11017,-1.12485 0.48273,-1.32248 0.63117,-0.21039 0.17791,-1.50358 -1.09352,-3.11994 -2.77293,-3.52522 -2.02049,-7.3903 1.61644,-8.3031 1.49236,-0.37456 3.04821,-0.14434 3.73477,0.55265 0.90915,0.92296 0.49449,1.12237 -1.82322,0.87678 -2.6181,-0.27741 -3,3.7e-4 -3,2.18212 0,2.07016 0.47282,2.49322 2.75,2.46058 2.97472,-0.0426 3.65684,0.97746 1.26686,1.89458 -0.81573,0.31302 -1.24525,1.18907 -0.95449,1.94677 0.6346,1.65375 -2.10089,4.25378 -2.97957,2.83204 z m 28.99013,-3.7039 C 128.30297,153.16011 127.87365,150.54394 128.20495,141 l 0.29505,-8.5 9.41035,-0.28965 c 5.57968,-0.17174 9.83356,0.13356 10.45,0.75 C 149.07988,133.67988 147.95283,134 144.7,134 H 140 v 8.5 c 0,5 -0.41176,8.5 -1,8.5 -0.58824,0 -1,-3.5 -1,-8.5 V 134 h -4 -4 v 8.56574 C 130,154.37081 130.45102,155 138.91321,155 c 5.95572,0 7.03359,-0.28727 8.31411,-2.21585 l 1.47127,-2.21585 1.18589,2.21585 c 1.05733,1.97563 1.97345,2.21585 8.4507,2.21585 4.31708,0 7.75173,-0.48691 8.46482,-1.2 1.66933,-1.66933 1.49921,-5.30679 -0.31876,-6.81557 -1.24124,-1.03014 -1.86926,-0.94325 -3.43698,0.47552 -2.85513,2.58386 -3.76599,1.28969 -4.54386,-6.456 C 157.81759,134.20487 157.71677,134 155.0535,134 152.22224,134 149,136.65195 149,138.98212 c 0,0.72855 2.25,3.70368 5,6.6114 2.75,2.90772 4.9915,5.8762 4.9811,6.59662 -0.0104,0.72042 -2.71039,-1.45784 -6,-4.84058 C 149.44343,143.71173 147,140.32282 147,139.0541 147,136.11871 151.35251,132 154.45455,132 156.33333,132 157,131.47619 157,130 c 0,-1.98301 -0.66667,-2 -78.5,-2 H 0 v -5 -5 h 81.952283 81.952287 l 0.29771,6.23777 0.29772,6.23778 4.90253,-6.88072 c 2.69639,-3.78439 7.75889,-9.90861 11.25,-13.60937 C 184.14364,106.2847 187,102.97402 187,102.6284 187,102.28278 185.17907,102 182.95349,102 c -3.4482,0 -4.29838,0.44264 -5.75,2.99368 -1.09708,1.92797 -2.50445,2.99593 -3.95349,3 -1.2375,0.003 -2.23473,-0.33118 -2.21606,-0.74368 0.0187,-0.4125 2.61144,-6.375 5.76172,-13.25 4.96645,-10.83852 6.06632,-12.5396 8.27477,-12.79796 2.30121,-0.26921 2.89703,0.48037 6.17447,7.768 l 3.62749,8.06596 4.54187,-2.2066 c 2.49802,-1.21364 4.72533,-2.00924 4.94956,-1.76801 0.22423,0.24124 0.7201,2.33003 1.10192,4.64177 0.68162,4.12684 0.62724,4.23115 -2.99484,5.74455 -2.5685,1.07319 -3.51358,1.99867 -3.11136,3.04684 0.42748,1.11401 -0.1292,1.50345 -2.14092,1.49777 -2.12721,-0.006 -4.67649,2.0263 -11.71862,9.34216 -4.95,5.14241 -9.74491,10.65836 -10.65535,12.25768 L 173.1893,132.5 h 6.30185 C 188.11884,132.5 190,134.22831 190,142.15499 V 148 h -5 -5 v 4.5 4.5 h -5.55902 c -3.45136,0 -5.32469,-0.37914 -4.94098,-1 0.33992,-0.55 2.39148,-1 4.55902,-1 H 178 v -8.5 c 0,-5 0.41176,-8.5 1,-8.5 0.55,0 1,1.8 1,4 v 4 h 4 4 v -4.96482 C 188,135.1617 186.59147,134 179.47003,134 c -5.52877,0 -9.38036,2.03624 -11.7886,6.23235 -1.69888,2.96014 -1.68975,3.1299 0.28134,5.22802 2.59254,2.75963 2.60896,6.9679 0.0372,9.53963 -1.66419,1.66419 -3.33333,2 -9.94098,2 -4.63961,0 -8.22031,-0.45196 -8.61287,-1.08713 -0.48382,-0.78285 -0.97617,-0.78285 -1.75902,0 -1.75852,1.75852 -15.25358,1.37782 -17.1142,-0.4828 z M 189,96.58291 c 0,-0.22941 -0.9353,-2.59191 -2.07843,-5.25 L 184.84313,86.5 183.5478,89.56457 C 180.45169,96.88958 180.47226,97 184.93261,97 187.16968,97 189,96.81231 189,96.58291 Z M 1.75,154.33772 C 3.384135,153.67833 3.42544,142.82544 1.8,141.2 0.866667,140.26667 1.51746,140 4.728571,140 8.909602,140 12,141.91253 12,144.5 12,146.47906 9.158945,149 6.928571,149 5.555829,149 5,149.6965 5,151.41667 c 0,1.32916 0.5625,2.64364 1.25,2.92105 0.6875,0.27741 -0.325,0.50439 -2.25,0.50439 -1.925,0 -2.9375,-0.22698 -2.25,-0.50439 z m 7.066422,-9.59627 C 9.07107,142.53521 8.729422,142 7.066422,142 5.426108,142 5,142.63374 5,145.07332 c 0,2.38674 0.390954,2.99919 1.75,2.74145 1.055477,-0.20016 1.875579,-1.41987 2.066422,-3.07332 z M 14.2,153.8 c -1.852564,-1.85256 -1.421125,-5.64496 0.8,-7.03207 1.1,-0.68696 2,-2.01422 2,-2.94946 0,-0.93524 0.515629,-2.01911 1.145843,-2.40861 0.794703,-0.49115 0.958873,0.0368 0.535722,1.72275 -0.444425,1.77073 -0.07667,2.76406 1.354157,3.65763 2.365544,1.4773 2.543684,4.4875 0.392849,6.63833 -1.871519,1.87152 -4.567698,2.0323 -6.228571,0.37143 z m 5.335391,-1.91151 c 0.758552,-2.38998 -1.675665,-5.53786 -3.43943,-4.4478 -1.198568,0.74076 -1.496172,4.82577 -0.429294,5.89264 1.326284,1.32629 3.212822,0.62173 3.868724,-1.44484 z M 23,153.37756 c 0,-1.3071 0.283033,-1.38755 1.456195,-0.41391 0.800907,0.66469 1.990153,0.87853 2.642767,0.47519 0.790303,-0.48844 0.283614,-1.20645 -1.517212,-2.15 -3.439325,-1.80204 -3.058576,-4.67412 0.676801,-5.10526 2.119834,-0.24468 2.723548,0.0954 2.662502,1.5 -0.04564,1.04999 -0.291771,1.28899 -0.583334,0.56642 C 27.738829,146.76579 25,146.56065 25,148 c 0,0.55 0.363992,1 0.80887,1 0.444879,0 1.665393,0.6263 2.712254,1.39179 1.61719,1.18252 1.702697,1.6336 0.568684,3 C 27.314893,155.53043 23,155.52035 23,153.37756 Z m 16.696693,-0.4015 c -5.751536,-4.52416 -1.532295,-13.41523 6.067379,-12.78559 3.162628,0.26203 3.770265,0.69317 3.959687,2.80953 0.123067,1.375 -0.02865,1.93234 -0.337153,1.23854 -1.016212,-2.2854 -4.085001,-3.30371 -6.821131,-2.26343 C 40.408621,142.79514 40,143.58017 40,146.90382 40,151.2286 41.992896,154 45.102813,154 c 2.768661,0 3.646419,-2.97898 1.368537,-4.64461 C 44.763383,148.1065 44.858551,148 47.682571,148 c 2.92631,0 3.035037,0.14689 2.405638,3.25 -0.57676,2.84358 -1.099102,3.28735 -4.177008,3.54864 -2.41054,0.20464 -4.366631,-0.36904 -6.214508,-1.82258 z m 13.305366,0.52146 c 0.740086,-0.89175 1.003261,-2.72092 0.647445,-4.5 C 53.090973,146.20486 53.253325,146 56.025,146 c 1.63625,0 2.975,0.45 2.975,1 0,0.55 -0.724233,1 -1.609406,1 -1.250484,0 -1.518281,0.78055 -1.200801,3.5 0.367623,3.14895 0.165718,3.5 -2.013038,3.5 -2.040968,0 -2.225627,-0.23619 -1.174696,-1.50248 z M 60,152.91257 c 0,-1.20474 1.027819,-2.35285 2.662839,-2.97448 2.0766,-0.78952 2.397667,-1.27758 1.45836,-2.21689 -0.939307,-0.93931 -1.403498,-0.88246 -2.108467,0.2582 -0.497192,0.80447 -1.252922,1.11374 -1.679399,0.68727 -1.082606,-1.08261 1.752801,-2.73104 4.166667,-2.4224 1.527882,0.19536 2.130288,1.2318 2.551929,4.39058 l 0.551928,4.13485 -3.801928,0.0525 C 60.673337,154.86535 60,154.52715 60,152.91257 Z M 65,152 c 0,-0.55 -0.675,-1 -1.5,-1 -0.825,0 -1.5,0.45 -1.5,1 0,0.55 0.675,1 1.5,1 0.825,0 1.5,-0.45 1.5,-1 z m 5.25,2.33772 c -1.593289,-0.64291 -1.627733,-5.55999 -0.05,-7.13772 0.66,-0.66 2.059233,-1.2 3.109406,-1.2 1.593341,0 1.841769,-0.57936 1.500801,-3.5 -0.281785,-2.41369 -0.0054,-3.5 0.890594,-3.5 0.93065,0 1.299199,1.82068 1.299199,6.41821 0,3.53002 0.273145,7.13002 0.606989,8 0.482273,1.25679 -0.08276,1.56557 -2.75,1.50284 C 73.010645,154.87763 70.9375,154.61513 70.25,154.33772 Z M 75,150 c 0,-3.21831 -2.572084,-4.2787 -3.638374,-1.5 -0.814293,2.12201 0.299126,4.5 2.106989,4.5 C 74.503487,153 75,152.02733 75,150 Z m 5.519096,3.68808 C 79.363714,149.98425 79.443572,146 80.673193,146 81.522877,146 82,147.25861 82,149.5 c 0,2.89384 0.365323,3.5 2.109406,3.5 1.821913,0 2.053717,-0.47702 1.700801,-3.5 -0.281785,-2.41369 -0.0054,-3.5 0.890594,-3.5 C 87.469597,146 88,147.19137 88,148.91821 c 0,1.60502 0.252642,3.57659 0.561427,4.38127 0.434845,1.13319 -0.366717,1.47587 -3.555145,1.51987 -2.349601,0.0324 -4.275652,-0.45315 -4.487186,-1.13127 z m 9.869554,0.13175 C 89.649521,152.6239 91.87086,150 93.62244,150 94.3801,150 95,149.325 95,148.5 c 0,-1.82715 -1.14911,-1.92536 -2.925,-0.25 -1.06932,1.00879 -1.23775,0.96055 -0.87288,-0.25 0.24866,-0.825 1.65491,-1.64239 3.125,-1.81642 2.50276,-0.29629 2.67288,-0.0629 2.67288,3.66666 0,2.28908 0.53163,4.16709 1.25,4.41571 0.6875,0.23794 -0.67387,0.43907 -3.02526,0.44697 -2.35139,0.008 -4.52763,-0.394 -4.83609,-0.89309 z M 95,152 c 0,-0.55 -0.42344,-1 -0.94098,-1 -0.51754,0 -1.2191,0.45 -1.55902,1 -0.33992,0.55 0.0835,1 0.94098,1 C 94.29844,153 95,152.55 95,152 Z m 13,0.91257 c 0,-1.20474 1.02782,-2.35285 2.66284,-2.97448 2.0766,-0.78952 2.39767,-1.27758 1.45836,-2.21689 -0.93931,-0.93931 -1.4035,-0.88246 -2.10847,0.2582 -0.49719,0.80447 -1.25292,1.11374 -1.6794,0.68727 -1.0826,-1.08261 1.7528,-2.73104 4.16667,-2.4224 1.52788,0.19536 2.13029,1.2318 2.55193,4.39058 l 0.55193,4.13485 -3.80193,0.0525 C 108.67334,154.86535 108,154.52715 108,152.91257 Z M 113,152 c 0,-0.55 -0.675,-1 -1.5,-1 -0.825,0 -1.5,0.45 -1.5,1 0,0.55 0.675,1 1.5,1 0.825,0 1.5,-0.45 1.5,-1 z m 5.2,1.8 c -0.66,-0.66 -1.2,-2.145 -1.2,-3.3 0,-4.39273 5.9596,-6.31252 7.96482,-2.56574 1.40639,2.62788 1.30648,3.65158 -0.53625,5.49431 -1.87152,1.87152 -4.5677,2.0323 -6.22857,0.37143 z m 5.18943,-1.37244 c 0.77073,-2.00851 -1.15337,-5.67277 -2.70713,-5.15546 -1.3965,0.46495 -2.08016,3.24872 -1.29826,5.28631 0.73706,1.92076 3.24961,1.83867 4.00539,-0.13085 z M 31.25,148.31067 c 0.9625,-0.25152 2.5375,-0.25152 3.5,0 0.9625,0.25153 0.175,0.45733 -1.75,0.45733 -1.925,0 -2.7125,-0.2058 -1.75,-0.45733 z m 79.5,-4.00622 c -2.89485,-0.74621 -1.96987,-2.23932 1.24779,-2.01419 1.64879,0.11536 2.85816,0.63161 2.6875,1.14724 -0.38672,1.16841 -1.6695,1.45101 -3.93529,0.86695 z M 4,95 V 81 h 10.443296 c 9.658188,0 10.560326,0.16708 12,2.22251 1.759512,2.51205 2.038855,8.37914 0.581455,12.21239 C 26.33331,97.25353 25.314772,98 23.524751,98 20.080844,98 20.333986,98.94376 25,103.5 c 2.2,2.14824 4,4.26457 4,4.70295 C 29,108.64133 27.517567,109 25.705704,109 c -2.777967,0 -3.992657,-0.85443 -7.75,-5.45145 C 15.023766,99.9614 12.730543,98.0805 11.25,98.04855 9.183508,98.00395 9,98.44858 9,103.5 9,108.7 8.863636,109 6.5,109 H 4 Z M 22,89.5 V 86 H 15.5 9 v 3.5 3.5 h 6.5 6.5 z m 11.666667,18.83333 C 33.3,107.96667 33,101.66667 33,94.33333 V 81 H 44.5 56 v 2.5 C 56,85.97059 55.9,86 47.5,86 H 39 v 3 c 0,2.93333 0.111111,3 5,3 4.666667,0 5,0.16667 5,2.5 0,2.33333 -0.333333,2.5 -5,2.5 -4.888889,0 -5,0.0667 -5,3 v 3 h 8.5 8.5 v 3 3 H 45.166667 c -5.958334,0 -11.133334,-0.3 -11.5,-0.66667 z M 61,95 V 81 h 2.5 2.5 v 14 14 H 63.5 61 Z m 19,2.5 V 86 h -5 c -4.666667,0 -5,-0.16667 -5,-2.5 V 81 H 82.5 95 v 2.44521 c 0,2.20765 -0.46148,2.47482 -4.75,2.75 L 85.5,86.5 85.217249,97.75 c -0.281925,11.21711 -0.289965,11.25 -2.75,11.25 H 80 Z m 22.5,10.7147 c -1.1,-0.24534 -2.33061,-0.95651 -2.73469,-1.58038 C 98.49428,104.6719 98.8704,83.5296 100.2,82.2 c 1.45501,-1.45501 21.54921,-1.64315 23.8,-0.22283 2.07426,1.30893 2.76451,21.73566 0.81653,24.16402 -1.0014,1.24834 -3.59049,1.74631 -10.81653,2.08038 -5.225,0.24155 -10.4,0.23846 -11.5,-0.007 z m 17.50235,-13.4647 0.002,-8.25 -8.00235,0.32615 -8.00235,0.32614 V 95.07615 103 h 8 8 l 0.002,-8.25 z M 132,94.5 V 81 h 10.4433 c 9.65818,0 10.56032,0.16708 12,2.22251 1.75951,2.51205 2.03885,8.37914 0.58145,12.21239 C 154.25509,97.45926 153.36709,98 150.81234,98 h -3.23716 l 4.92482,5 4.92482,5 h -3.65693 c -3.14748,0 -4.25673,-0.69649 -7.96241,-4.99951 -2.79154,-3.24152 -5.09665,-4.99968 -6.55548,-5 C 137.2166,98.00005 137,98.48134 137,103 c 0,4.66667 -0.16667,5 -2.5,5 H 132 Z m 18.5,-5 v -3 L 143.75,86.20431 137,85.90862 V 89.5 93.09138 L 143.75,92.79569 150.5,92.5 Z M 161.22097,94.75 161.5,81.5 164.25,81.18358 167,80.86716 V 94.43358 108 h -3.02903 -3.02902 z M 4,37.5 V 3 L 26.25,3.0056 C 60.135189,3.01407 60,2.927495 60,24.619082 V 38.968447 L 57.083837,42.234223 54.167674,45.5 35.083837,45.827915 16,46.155829 V 59.077915 72 H 10 4 Z m 43.5,-13 v -8 L 31.75,16.224607 16,15.949214 V 24.5 33.050786 L 31.75,32.775393 47.5,32.5 Z M 70,44 V 16 l 20.75,0.01365 c 11.4125,0.0075 21.78052,0.289707 23.04005,0.627104 C 117.70552,17.68962 119,21.854498 119,33.403287 c 0,5.776434 -0.49962,11.599158 -1.11027,12.939388 C 116.48346,49.42909 113.05592,51 107.72797,51 h -4.17791 l 6.99643,7.25 c 3.84804,3.9875 8.30847,8.7125 9.91206,10.5 l 2.91563,3.25 h -7.5524 -7.5524 L 99.47644,61.5 90.6835,51 H 85.841752 81 V 61.5 72 H 75.5 70 Z m 37.92998,-4.415627 c 0.69293,-0.834934 1.05081,-3.8089 0.87244,-7.25 L 108.5,26.5 94.75,26.22178 81,25.943561 V 33.47178 41 h 12.87756 c 9.88564,0 13.15051,-0.3289 14.05242,-1.415627 z M 135.31537,70.99302 C 131.36995,69.403374 131,67.06157 131,43.676525 131,14.156097 129.05148,16.599813 152.91925,16.186769 l 18.10007,-0.313231 6.15212,-7.936769 C 180.5551,3.571546 183.56683,0 183.86417,0 c 0.29734,0 2.01801,1.431945 3.82371,3.182099 l 3.28309,3.182099 -7.23548,4.815365 c -3.97952,2.648451 -6.47308,4.816507 -5.54125,4.817901 0.93183,0.0014 2.95683,1.087796 4.5,2.414224 l 2.80576,2.411689 0.32089,20.950771 c 0.35634,23.265781 -0.38959,27.350974 -5.33762,29.232212 -3.20863,1.21992 -42.13555,1.20842 -45.1679,-0.01334 z M 175,43.475821 V 25.951642 L 158.25,26.225821 141.5,26.5 141.22639,43.75 140.95277,61 H 157.97639 175 Z M 189,51 v -3 h 8.5 8.5 v 3 3 h -8.5 -8.5 z"
     id="path1207"
     inkscape:connector-curvature="0" />
</svg>
