<?xml version="1.0" encoding="UTF-8" standalone="no"?>
<!-- Created with Inkscape (http://www.inkscape.org/) -->

<svg
   xmlns:dc="http://purl.org/dc/elements/1.1/"
   xmlns:cc="http://creativecommons.org/ns#"
   xmlns:rdf="http://www.w3.org/1999/02/22-rdf-syntax-ns#"
   xmlns:svg="http://www.w3.org/2000/svg"
   xmlns="http://www.w3.org/2000/svg"
   xmlns:sodipodi="http://sodipodi.sourceforge.net/DTD/sodipodi-0.dtd"
   xmlns:inkscape="http://www.inkscape.org/namespaces/inkscape"
   version="1.1"
   id="svg869"
   width="1632"
   height="2000.0001"
   viewBox="0 0 1632 2000.0001"
   sodipodi:docname="T--USP_SaoCarlos-Brazil--fafq.svg"
   inkscape:version="0.92.2 5c3e80d, 2017-08-06">
  <metadata
     id="metadata875">
    <rdf:RDF>
      <cc:Work
         rdf:about="">
        <dc:format>image/svg+xml</dc:format>
        <dc:type
           rdf:resource="http://purl.org/dc/dcmitype/StillImage" />
        <dc:title></dc:title>
      </cc:Work>
    </rdf:RDF>
  </metadata>
  <defs
     id="defs873" />
  <sodipodi:namedview
     pagecolor="#000000"
     bordercolor="#666666"
     borderopacity="1"
     objecttolerance="10"
     gridtolerance="10"
     guidetolerance="10"
     inkscape:pageopacity="0"
     inkscape:pageshadow="2"
     inkscape:window-width="1287"
     inkscape:window-height="593"
     id="namedview871"
     showgrid="false"
     fit-margin-top="0"
     fit-margin-left="0"
     fit-margin-right="0"
     fit-margin-bottom="0"
     inkscape:zoom="1"
     inkscape:cx="566.84918"
     inkscape:cy="1107.4868"
     inkscape:window-x="0"
     inkscape:window-y="0"
     inkscape:window-maximized="0"
     inkscape:current-layer="svg869" />
  <path
     style="fill:#ffffff"
     d="m 0,1997.1962 c 0,-1.8037 1.26579,-4.2117 3.54816,-6.75 C 11.10206,1982.0451 37,1950.0086 37,1949.0652 c 0,-0.5471 0.84869,-1.4489 1.88598,-2.0041 1.03729,-0.5551 2.81855,-2.5899 3.95835,-4.5217 1.13981,-1.9319 3.44183,-4.981 5.11559,-6.7759 C 52.76041,1930.6157 75,1903.2366 75,1902.4746 c 0,-0.3777 1.16249,-1.6011 2.58332,-2.7187 1.42082,-1.1176 2.88332,-2.8027 3.25,-3.7447 0.36667,-0.9419 2.32201,-3.6923 4.34519,-6.1119 21.71919,-25.9745 31.43886,-37.9133 33.02678,-40.5672 1.04253,-1.7424 2.99784,-3.8903 4.34511,-4.7731 1.34728,-0.8827 2.4496,-2.0762 2.4496,-2.6521 0,-0.576 6.1875,-8.466 13.75,-17.5335 7.5625,-9.0674 14.25638,-17.3907 14.87529,-18.4961 0.61891,-1.1054 2.7868,-3.8925 4.81753,-6.1935 9.5515,-10.8228 32.75288,-39.4195 33.55093,-41.353 0.49245,-1.1931 1.66118,-2.5978 2.59717,-3.1216 0.93599,-0.5239 3.32344,-3.2368 5.30544,-6.0288 1.982,-2.792 9.79114,-12.4932 17.35364,-21.5582 7.5625,-9.0649 13.75,-16.7673 13.75,-17.1165 0,-0.3491 1.35,-1.7707 3,-3.1591 1.65,-1.3883 3,-3.1266 3,-3.8628 0,-0.7362 1.125,-2.2235 2.5,-3.305 1.375,-1.0816 2.5,-2.2753 2.5,-2.6527 0,-0.3773 6.45177,-8.4241 14.33726,-17.8816 7.88549,-9.4575 15.5806,-19.0743 17.10024,-21.3706 1.51964,-2.2963 3.84288,-4.8827 5.16274,-5.7475 1.31987,-0.8648 2.39976,-2.0436 2.39976,-2.6195 0,-0.576 6.1875,-8.4742 13.75,-17.5517 7.5625,-9.0775 14.425,-17.568 15.25,-18.8678 0.825,-1.2998 3.00075,-4.0787 4.83499,-6.1753 9.91471,-11.3328 32.38868,-39.1158 33.16633,-41.0012 0.49662,-1.2041 1.84987,-2.696 3.00722,-3.3154 1.15735,-0.6194 2.41639,-1.9465 2.79787,-2.9491 0.38147,-1.0027 9.13109,-11.9856 19.44359,-24.4065 10.3125,-12.4208 18.75,-23.0061 18.75,-23.5227 0,-0.5166 1.35,-2.0753 3,-3.4636 1.65,-1.3884 3,-2.81 3,-3.1591 0,-0.3492 6.1875,-8.0576 13.75,-17.1299 7.5625,-9.0724 15.16886,-18.5303 16.90303,-21.0178 1.73417,-2.4874 4.09667,-5.1835 5.25,-5.9913 1.15333,-0.8079 2.09697,-1.9065 2.09697,-2.4414 0,-0.5349 6.525,-8.8136 14.5,-18.3971 7.975,-9.5834 14.5,-17.8552 14.5,-18.3818 0,-0.5265 1.2437,-2.0098 2.76378,-3.2962 1.52008,-1.2864 3.86768,-3.9139 5.21689,-5.8389 1.34921,-1.925 8.88051,-11.2265 16.73622,-20.67 C 497.5726,1382.8867 504,1374.7259 504,1374.1952 c 0,-0.5308 1.14921,-1.7181 2.55379,-2.6384 1.40458,-0.9203 2.86708,-2.4926 3.25,-3.494 0.64347,-1.6828 25.88153,-32.7292 34.43209,-42.3564 2.05474,-2.3135 3.74224,-4.7553 3.75,-5.4264 0.008,-0.671 1.36412,-2.2181 3.01412,-3.438 1.65,-1.2199 3,-2.6286 3,-3.1303 0,-0.5018 5.175,-7.122 11.5,-14.7116 6.325,-7.5896 11.5,-14.1861 11.5,-14.6591 0,-0.4729 0.86324,-1.3989 1.91831,-2.0578 1.05506,-0.6589 3.50609,-3.5797 5.44671,-6.4906 1.94063,-2.9109 4.45239,-5.8588 5.5817,-6.551 1.1293,-0.6921 2.05328,-1.7178 2.05328,-2.2793 0,-0.5614 6.525,-8.8618 14.5,-18.4453 7.975,-9.5834 14.5,-17.8626 14.5,-18.3981 0,-0.5355 1.20781,-1.9237 2.68401,-3.0849 1.47621,-1.1612 3.81295,-3.7813 5.19277,-5.8226 1.37981,-2.0412 7.95133,-10.2363 14.60337,-18.2113 6.65204,-7.975 13.2028,-16.075 14.55724,-18 1.35443,-1.925 2.91261,-3.8306 3.46261,-4.2347 0.55,-0.4041 219.1375,-0.7416 485.75,-0.75 l 484.75,-0.015 v 410 410 H 816 0 Z m 0,-132.9268 v -34.8445 l 268.57986,-324.4624 268.57986,-324.4624 29.08904,-0.2654 c 27.71786,-0.2528 29.01785,-0.1821 27.57875,1.5 -0.83066,0.971 -132.39149,159.9404 -292.35739,353.2654 C 141.50422,1728.3251 8.23285,1889.3382 5.31152,1892.807 L 0,1899.1139 Z M 0.27785,1728.3741 0.5,1693.248 212.92027,1436.6241 425.34055,1180.0001 h 28.41306 c 18.29894,0 28.2944,0.3522 28.07972,0.9895 -0.23022,0.6834 -437.21244,529.0517 -479.55548,579.8449 l -2.22215,2.6656 z M 0,1592.6308 v -34.3693 l 156.55821,-189.1307 156.55822,-189.1307 h 28.44178 c 15.64299,0 28.44179,0.2484 28.44179,0.552 0,0.7148 -368.96033,446.448 -369.55199,446.448 C 0.2016,1627.0001 0,1611.5339 0,1592.6308 Z m 0.0285,-135.1807 0.0285,-34.95 98.52803,-119 c 54.19042,-65.45 99.53247,-120.0197 100.76011,-121.2659 2.22827,-2.2621 2.28042,-2.2655 30.5812,-2 l 28.34912,0.2659 -128.25436,155 c -70.53989,85.25 -128.6519,155.4275 -129.13778,155.95 -0.51246,0.5511 -0.87143,-13.7261 -0.85487,-34 z M 0,1321.7531 v -34.6756 l 43.75,-53.0071 c 24.0625,-29.154 44.65,-53.2602 45.75,-53.5694 1.1,-0.3092 14.27356,-0.4359 29.27458,-0.2815 l 27.27458,0.2806 -71.58842,86.5 C 35.08711,1314.5751 2.22605,1354.159 1.43616,1354.9644 0.18741,1356.2376 0,1351.9038 0,1321.7531 Z m 0,-121.0863 v -20.6667 h 17.15499 c 16.24573,0 17.07508,0.093 15.64739,1.75 -0.82917,0.9625 -8.38763,10.075 -16.79658,20.25 -8.40894,10.175 -15.45027,18.6875 -15.64739,18.9167 C 0.16128,1221.1459 0,1212.0334 0,1200.6668 Z m 1604.5,-50.5463 c -18.0129,-7.7513 -38.9111,-19.7943 -55.7071,-32.1023 l -7.707,-5.6477 -7.793,3.7194 c -40.6591,19.4056 -94.0727,22.6163 -137.2625,8.2507 -51.433,-17.1074 -89.6318,-56.5677 -106.9105,-110.4411 -10.7925,-33.65 -13.5428,-73.72377 -7.5424,-109.89942 10.9943,-66.28308 48.4535,-115.89674 104.152,-137.94626 22.1299,-8.76062 41.6535,-12.29869 68.2705,-12.37198 32.3349,-0.089 55.4179,5.12219 82,18.51238 36.1183,18.19382 61.2034,45.20562 77.5733,83.53134 11.4812,26.88025 16.4267,53.53226 16.4267,88.52664 0,41.72428 -8.8048,77.5833 -26.2566,106.9339 -5.372,9.0348 -14.3074,21.3008 -20.075,27.5579 -3.3362,3.6194 -3.8221,4.6112 -2.6303,5.3691 12.2768,7.8072 26.668,15.8712 37.4957,21.0104 l 13.4347,6.3766 0.016,9.6519 c 0.015,9.2409 -0.1797,10.1137 -4.5738,20.5 -2.5242,5.9664 -5.3102,11.4106 -6.1911,12.0981 -2.515,1.9628 -4.9538,1.4333 -16.7194,-3.6296 z m -122.75,-70.6662 c 3.9875,-1.0125 7.25,-2.1386 7.25,-2.5025 0,-1.0542 -16.8256,-8.5689 -24.5,-10.9422 -11.408,-3.5278 -12.4806,-4.0842 -13.1699,-6.8303 -0.5976,-2.3811 3.8257,-17.5836 9.8732,-33.9333 2.9321,-7.9268 3.7842,-8.0733 18.6016,-3.1975 16.0797,5.2913 32.093,12.9498 44.6962,21.3765 l 9.855,6.5892 2.4656,-2.2571 c 4.9426,-4.5244 14.423,-18.3385 18.6586,-27.1874 10.2706,-21.45774 15.4953,-46.74408 15.5109,-75.06962 0.017,-31.3862 -4.575,-55.06676 -14.9504,-77.09419 -6.7139,-14.25372 -11.8477,-21.44949 -23.4765,-32.90581 -21.0334,-20.72132 -45.6825,-30.45755 -77.1833,-30.48686 -32.9075,-0.0306 -57.6088,9.18705 -79.2991,29.59171 -19.6449,18.48053 -29.7025,38.72804 -35.7127,71.89515 -2.6323,14.52658 -2.6418,58.67673 -0.016,73 2.4956,13.61091 5.1701,23.12532 9.5836,34.09262 13.9966,34.7809 44.7295,59.9276 81.7182,66.8645 11.1487,2.0908 40.201,1.5092 50.0947,-1.0029 z M 0,943.51725 V 760.00008 h 121.42857 c 109.05628,0 121.58868,0.16011 123,1.57143 2.35094,2.35094 2.35094,46.5062 0,48.85714 -1.4065,1.4065 -11.53463,1.57143 -96.5,1.57143 H 53 v 49.98287 49.98287 l 82.08082,0.26713 c 79.93502,0.26015 82.11792,0.31788 83.5,2.20826 1.12668,1.54106 1.41918,6.61013 1.41918,24.59501 0,20.67672 -0.15961,22.79833 -1.82874,24.30887 -1.67024,1.51155 -8.90736,1.65499 -83.5,1.65499 H 53 l -0.0147,78.25002 c -0.0115,61.0608 -0.29245,78.7992 -1.27897,80.75 l -1.26423,2.5 -25.22103,0.2672 L 0,1127.0344 Z m 370.44012,181.03185 c -1.02554,-1.5652 -1.34768,-3.2649 -0.89131,-4.7028 3.43467,-10.8217 137.66647,-358.36631 138.65319,-358.99223 0.7139,-0.45285 13.77513,-0.83026 29.02495,-0.83868 27.66338,-0.0153 27.73028,-0.0101 29.1839,2.23469 C 569.25847,766.6477 713,1119.3741 713,1121.9642 c 0,4.978 -0.36332,5.0359 -31.57756,5.0359 -25.88983,0 -29.3322,-0.1859 -30.55,-1.6495 -0.75484,-0.9073 -10.40093,-25.0948 -21.43575,-53.75 l -20.0633,-52.1005 -70.97721,-0.2566 -70.9772,-0.2566 -18.87302,52.2566 c -10.38016,28.7411 -19.54418,53.0441 -20.36448,54.0066 -1.35303,1.5876 -4.02734,1.75 -28.81341,1.75 H 372.04611 Z M 590,969.15776 c 0,-0.46328 -6.78154,-18.80078 -15.07008,-40.75 -14.27558,-37.80373 -33.98943,-91.61302 -37.15225,-101.40768 l -1.45311,-4.5 -0.73576,3.90012 c -2.03863,10.80646 -11.57551,38.99868 -28.78542,85.09332 -10.4741,28.05361 -19.64476,52.69406 -20.37924,54.75656 l -1.33542,3.75 h 52.45564 c 28.8506,0 52.45564,-0.37904 52.45564,-0.84232 z m 265.87244,156.18874 c -1.96433,-2.3668 -2.53702,-358.497 -0.58268,-362.34642 l 1.26925,-2.5 122.88737,-0.25397 c 113.28062,-0.23411 123.03072,-0.12428 124.72052,1.40499 1.6749,1.51576 1.8331,3.61746 1.8331,24.34898 0,20.71174 -0.1594,22.83432 -1.8287,24.34501 -1.6747,1.51558 -9.8455,1.65499 -97,1.65499 H 912 v 50 50 h 81.36514 c 80.80076,0 81.38346,0.0144 83.99996,2.07258 l 2.6349,2.07258 v 22.42742 c 0,21.09409 -0.1189,22.54632 -2,24.42742 -1.9675,1.96748 -3.3333,2 -84,2 h -82 v 79.42862 c 0,70.8744 -0.16924,79.5978 -1.57143,81 -1.34738,1.3474 -5.25077,1.5714 -27.37755,1.5714 -22.78428,0 -25.96684,-0.1936 -27.17858,-1.6536 z M 22.18264,718.18564 C 22.90719,717.17097 156.925,555.16429 320,358.17081 L 616.5,8.3e-4 645.40499,4.6e-4 c 27.43854,-3.6e-4 28.82819,0.0884 27.39133,1.74962 -0.83252,0.9625 -134.83899,162.85 -297.79218,359.75 l -296.27851,358 -28.93017,0.26521 c -27.95495,0.25627 -28.88577,0.20302 -27.61282,-1.57965 z m 112.03505,0.0644 c 0.84022,-0.9625 134.85782,-162.85 297.81689,-359.75 l 296.28923,-358 28.90545,-0.26521 c 28.01661,-0.25706 28.86495,-0.20799 27.5881,1.59558 -0.72455,1.02344 -134.73222,163.03028 -297.79482,360.01521 L 190.54507,720.00008 h -28.92752 c -27.46533,0 -28.85031,-0.0885 -27.39986,-1.75 z m 119.21536,-8.5 c 4.65644,-5.6375 138.66369,-167.525 297.79389,-359.75 l 289.32763,-349.5 28.81121,-0.26548 c 15.84616,-0.14602 28.65889,0.10663 28.47271,0.56144 -0.18617,0.45481 -134.15292,162.46178 -297.70388,360.01548 L 302.76922,720.00008 H 273.868 244.96678 Z m 104.72846,9.43889 c 0.18617,-0.46314 134.14491,-162.4701 297.68609,-360.01548 L 953.1952,8e-5 h 28.90746 28.90744 l -15.52086,18.75 c -8.53649,10.3125 -142.54597,172.2 -297.79886,359.75 l -282.27798,341 -28.79469,0.26548 c -15.83708,0.14602 -28.64238,-0.11345 -28.4562,-0.57659 z m 113.03179,-1.04755 c 0.71868,-1.02226 134.71403,-163.02226 297.76744,-360 L 1065.4215,8e-5 h 28.854 28.854 l -7.3148,8.91561 C 1111.7916,13.81928 977.775,175.79806 818,368.86853 l -290.5,351.03723 -28.8067,0.0472 c -27.88332,0.0456 -28.76482,-0.0124 -27.5,-1.8115 z m 111.56107,0.62398 c 0.56358,-0.69593 134.55336,-162.59032 297.75507,-359.76532 l 296.73036,-358.5 28.9485,-0.26521 c 15.9217,-0.14587 28.7226,0.10029 28.4466,0.54702 -0.2761,0.44672 -134.2109,162.34107 -297.63283,359.76521 l -297.1308,358.95298 -29.07079,0.26532 c -23.34341,0.21305 -28.86892,0.016 -28.04611,-1 z m 115.44874,-4.01532 C 702.17683,710.05783 1289.0699,0.88201 1289.5152,0.2345 c 0.1004,-0.14607 13.1346,-0.14607 28.9648,0 l 28.7823,0.26558 -297.7876,359.75 -297.78749,359.75 H 722.72213 693.75705 Z M 807,719.46586 c 0,-0.29383 133.90057,-162.29383 297.5568,-360 L 1402.1136,8e-5 h 28.4432 c 15.6438,0 28.4432,0.24807 28.4432,0.55126 0,0.30319 -133.895,162.30319 -297.5445,360 L 863.91097,720.00008 H 835.45549 C 819.80497,720.00008 807,719.75968 807,719.46586 Z m 112.70031,-0.81391 c 0.43983,-0.74148 134.41279,-162.74148 297.71769,-360 L 1514.336,8e-5 h 28.9077 28.9078 l -5.3258,6.41914 C 1563.8966,9.94974 1429.875,171.92187 1269,366.35727 l -292.5,353.51892 -28.79969,0.0619 c -23.89875,0.0514 -28.6636,-0.16747 -28,-1.28618 z m 122.48039,-6.2271 c 3.4756,-4.16638 7.6693,-9.45797 9.3193,-11.7591 1.65,-2.30112 3.9886,-5.30477 5.197,-6.67476 7.8753,-8.92891 32.303,-39.10476 32.303,-39.90427 0,-0.53528 0.8905,-1.59697 1.9789,-2.35932 1.0884,-0.76234 3.0384,-2.94726 4.3332,-4.85536 1.2949,-1.9081 7.9596,-10.19737 14.8105,-18.42061 6.8508,-8.22324 13.7884,-16.75135 15.4167,-18.95135 1.6284,-2.2 3.9732,-4.82016 5.2107,-5.82258 1.2375,-1.00242 2.25,-2.27588 2.25,-2.82991 0,-0.55403 6.4472,-8.73387 14.3272,-18.17742 7.8799,-9.44355 14.6158,-17.95759 14.9686,-18.92009 0.3528,-0.9625 1.0828,-1.75 1.6223,-1.75 0.5395,0 3.0357,-2.87957 5.5471,-6.39905 2.5115,-3.51948 5.2342,-6.65536 6.0505,-6.96862 0.8164,-0.31326 1.4843,-1.0697 1.4843,-1.68099 0,-0.61129 6.4552,-8.85352 14.3449,-18.31607 7.8897,-9.46254 14.5272,-17.70933 14.75,-18.32619 0.2228,-0.61686 2.3061,-3.30125 4.6294,-5.96532 9.5702,-10.97348 31.6535,-38.07231 33.509,-41.1196 1.0971,-1.80171 2.8434,-3.73004 3.8807,-4.28518 1.0373,-0.55514 1.886,-1.47954 1.886,-2.05421 0,-0.57468 6.4307,-8.77134 14.2905,-18.21482 7.8599,-9.44347 15.0605,-18.29495 16.0016,-19.66995 0.941,-1.375 3.0775,-4.075 4.7477,-6 C 1294.4932,402.1044 1318,372.91022 1318,372.0652 c 0,-0.54712 0.844,-1.44646 1.8756,-1.99855 1.0316,-0.55209 3.3052,-3.23166 5.0525,-5.95459 1.7473,-2.72294 4.2783,-5.67244 5.6244,-6.55444 1.3461,-0.88201 2.4475,-2.08845 2.4475,-2.68098 0,-0.59254 5.175,-7.28699 11.5,-14.87656 6.325,-7.58957 11.5,-14.09845 11.5,-14.46417 0,-0.36572 1.35,-1.8009 3,-3.18928 1.65,-1.38839 3.0056,-3.04684 3.0125,-3.68544 0.01,-0.63861 1.6943,-3.02525 3.75,-5.30365 7.2759,-8.06439 33.747,-40.62416 34.3888,-42.29879 0.3582,-0.93463 1.8207,-2.46555 3.25,-3.40205 1.4293,-0.9365 2.5987,-2.19356 2.5987,-2.79347 0,-0.59991 6.4407,-8.80204 14.3127,-18.22695 7.872,-9.42491 14.763,-17.94273 15.3134,-18.92849 0.9255,-1.65749 4.8413,-6.31259 11.6239,-13.81835 1.5125,-1.67376 2.75,-3.27144 2.75,-3.55038 0,-0.27895 5.4,-6.9748 12,-14.87968 6.6,-7.90487 12,-14.8262 12,-15.38072 0,-0.55452 0.8487,-1.46242 1.886,-2.01756 1.0373,-0.55514 2.8185,-2.58993 3.9583,-4.52176 1.1398,-1.93183 3.4468,-4.98095 5.1266,-6.77584 4.4162,-4.71869 31.3371,-37.55961 32.5761,-39.73977 0.5759,-1.01327 2.7083,-3.7956 4.7386,-6.18297 13.1003,-15.40348 31.3299,-37.85193 32.9833,-40.61652 1.0775,-1.80171 2.8294,-3.74157 3.893,-4.3108 1.0636,-0.56923 2.3402,-2.0201 2.8368,-3.22416 0.4966,-1.20406 7.4182,-10.0642 15.3812,-19.6892 7.9631,-9.625 16.1977,-19.67162 18.2992,-22.32583 2.1015,-2.65421 5.2834,-6.41171 7.0709,-8.35 1.7875,-1.93829 3.25,-3.74788 3.25,-4.0213 0,-0.27342 3.2625,-4.47766 7.25,-9.34274 L 1620.5,0.1146 1626.25,0.0573 1632,0 V 360 720 H 1333.9307 1035.8615 Z M 0,643.82814 V 609.20166 L 252.14135,304.60087 504.2827,8e-5 h 28.98012 28.98013 l -4.45611,5.25 c -2.45086,2.8875 -127.8873,154.425 -278.74765,336.75 C 128.17884,524.32508 3.67943,674.61485 2.37383,675.97735 L 0,678.45463 Z m 0.0194,-135.37806 0.0194,-34.95 195.79692,-236.5 195.79691,-236.5 28.68369,-0.26534 C 436.09234,0.08881 449,0.20774 449,0.49903 449,0.91359 4.34819,538.65999 0.87146,542.45008 c -0.49674,0.54151 -0.86312,-14.07804 -0.85207,-34 z M 0,372.74099 V 338.03745 L 139.65087,169.26877 C 216.45885,76.44599 279.39086,0.38057 279.49979,0.2345 c 0.10892,-0.14607 13.13929,-0.14607 28.95637,0 l 28.75832,0.26558 -166.72633,201.5 C 78.78866,312.82508 2.9154,404.38758 1.88091,405.4723 0.03794,407.40474 0,406.74445 0,372.74099 Z M 0,237.26438 V 202.45909 L 83.75,101.24672 167.5,0.03435 196.37046,0.01725 225.24092,1.5e-4 221.37046,4.74957 C 213.63155,14.24593 5.60601,265.59219 2.84283,268.78495 L 0,272.06967 Z M 0,101.65479 V 66.88094 L 27.66069,33.44051 55.32138,8e-5 h 28.9256 28.9256 l -6.43468,7.75 c -3.53907,4.2625 -28.38251,34.3 -55.20766,66.75 C 24.7051,106.95008 2.13687,134.15901 1.37863,134.96437 0.20548,136.2104 0,131.24567 0,101.65479 Z"
     id="path1457"
     inkscape:connector-curvature="0" />
</svg>
