<?xml version="1.0" encoding="UTF-8" standalone="no"?>
<!-- Created with Inkscape (http://www.inkscape.org/) -->

<svg
   xmlns:dc="http://purl.org/dc/elements/1.1/"
   xmlns:cc="http://creativecommons.org/ns#"
   xmlns:rdf="http://www.w3.org/1999/02/22-rdf-syntax-ns#"
   xmlns:svg="http://www.w3.org/2000/svg"
   xmlns="http://www.w3.org/2000/svg"
   xmlns:sodipodi="http://sodipodi.sourceforge.net/DTD/sodipodi-0.dtd"
   xmlns:inkscape="http://www.inkscape.org/namespaces/inkscape"
   id="svg4209"
   version="1.1"
   inkscape:version="0.92.2 5c3e80d, 2017-08-06"
   width="1200"
   height="451.875"
   viewBox="0 0 1200 451.875"
   sodipodi:docname="T--USP_SaoCarlos-Brazil--cepof.svg">
  <metadata
     id="metadata4215">
    <rdf:RDF>
      <cc:Work
         rdf:about="">
        <dc:format>image/svg+xml</dc:format>
        <dc:type
           rdf:resource="http://purl.org/dc/dcmitype/StillImage" />
        <dc:title></dc:title>
      </cc:Work>
    </rdf:RDF>
  </metadata>
  <defs
     id="defs4213" />
  <sodipodi:namedview
     pagecolor="#c7c7c7"
     bordercolor="#666666"
     borderopacity="1"
     objecttolerance="10"
     gridtolerance="10"
     guidetolerance="10"
     inkscape:pageopacity="0"
     inkscape:pageshadow="2"
     inkscape:window-width="1280"
     inkscape:window-height="557"
     id="namedview4211"
     showgrid="false"
     inkscape:zoom="0.68583333"
     inkscape:cx="336.08748"
     inkscape:cy="284.26071"
     inkscape:window-x="0"
     inkscape:window-y="0"
     inkscape:window-maximized="0"
     inkscape:current-layer="svg4209" />
  <path
     style="fill:#ffffff"
     d="M 140.24015,374.90633 C 94.099997,370.04253 53.225939,343.73162 28.941912,303.26291 8.6243617,269.40423 3.6351919,223.80135 16.00914,185.05254 32.123093,134.59197 75.108994,96.522516 127.75523,86.087229 c 12.65931,-2.509267 38.8043,-2.990076 50.36977,-0.926305 32.77872,5.849119 58.02103,18.798846 80.6712,41.385656 26.97438,26.89893 41.31761,59.75343 42.777,97.98467 0.62239,16.30465 -0.88487,29.04096 -5.29585,44.74988 -19.16687,68.2593 -85.37097,113.0744 -156.0372,105.6252 z m 33.92516,-41.64107 c 40.25856,-7.63692 72.23513,-36.9834 83.23648,-76.39026 3.05567,-10.94542 4.21959,-33.56501 2.28841,-44.47273 -3.95257,-22.32483 -15.40672,-43.48054 -32.0736,-59.2396 -22.09181,-20.88852 -50.71912,-30.92905 -80.919,-28.38097 -63.421389,5.35112 -107.849563,65.26219 -94.295569,127.1569 8.918937,40.72858 40.862393,72.17214 82.129219,80.84392 10.66119,2.24034 29.17973,2.4659 39.63406,0.48274 z m -29.32156,-9.81894 c -37.54322,-4.31535 -69.13337,-30.28608 -80.432528,-66.12475 -7.653304,-24.27475 -5.133628,-51.06151 6.91331,-73.4956 12.410526,-23.11116 34.134878,-40.49671 58.637458,-46.92634 12.65655,-3.32116 23.55049,-4.24878 34.69028,-2.95387 46.1408,5.36347 80.18072,39.01378 85.74313,84.76177 4.59433,37.78601 -16.91454,77.32389 -51.61219,94.87417 -16.34407,8.26693 -36.21818,11.90157 -53.93946,9.86462 z m 21.7144,-37.02303 C 184.0776,283.11112 200.31976,270.78307 207.95823,255 c 3.85757,-7.97074 6.72927,-19.12082 6.72927,-26.128 0,-7.44628 -2.77399,-18.39421 -6.68214,-26.372 -6.93621,-14.159 -20.96536,-25.78505 -36.91161,-30.58886 -8.90483,-2.68259 -25.16345,-2.25687 -34.02937,0.89103 -17.88156,6.34894 -30.70785,18.99283 -37.50473,36.97138 -2.075213,5.48916 -2.398528,7.86109 -2.458894,18.03895 -0.05719,9.63794 0.2997,12.88401 2.009794,18.28125 5.25647,16.59003 18.37952,30.83657 34.18721,37.11406 11.41544,4.53326 21.25736,5.48474 33.26039,3.21548 z m -17.9644,-10.99642 C 125.43695,272.50578 107.8125,252.33342 107.8125,228.75 c 0,-21.37028 14.53355,-40.11504 35.6498,-45.97965 6.28889,-1.74661 17.6554,-1.59691 21.17691,0.27891 6.46759,3.44511 7.6221,12.62212 2.26222,17.98201 -2.61364,2.61363 -3.51817,2.89071 -11.21336,3.43487 -12.16979,0.86058 -18.4065,4.83646 -22.66956,14.45179 -7.12078,16.0609 4.97747,34.42386 22.48999,34.13574 5.38881,-0.0887 9.11977,-1.4338 14.46625,-5.21562 5.86081,-4.14563 8.90672,-10.75591 9.33821,-20.26594 0.48446,-10.6772 4.49691,-15.2474 12.67821,-14.44055 7.00782,0.69111 10.51932,5.82838 10.49497,15.35395 -0.0743,29.07828 -24.79634,50.61165 -53.89239,46.94136 z m 483.33758,86.03934 c -1.69216,-1.80123 -3.08221,-2.31217 -6.1242,-2.25111 -8.36806,0.16796 -10.97759,-3.7683 -10.97759,-16.55885 0,-13.07649 2.41477,-16.40625 11.89797,-16.40625 7.47847,0 10.70566,5.06834 10.7449,16.875 0.009,2.83594 -0.43974,6.80171 -0.99812,8.81283 -0.77366,2.78644 -0.73058,4.18849 0.18104,5.89189 1.03797,1.93945 0.94938,2.48224 -0.66934,4.10095 -1.86252,1.86253 -1.8693,1.86175 -4.05466,-0.46446 z M 627.9375,353.25 c 1.17762,-1.17762 1.62294,-17.11151 0.55595,-19.89207 -0.81569,-2.12567 -3.8674,-1.82876 -5.11231,0.49739 -1.59157,2.97387 -0.80614,18.46551 0.99386,19.60261 1.8342,1.15871 2.21828,1.13629 3.5625,-0.20793 z m -284.46162,6.10068 c -1.09608,-0.21343 -2.99452,-1.45318 -4.21875,-2.75501 -1.99676,-2.12334 -2.25897,-3.37928 -2.54743,-12.20169 -0.47514,-14.53182 1.65598,-18.17079 10.60828,-18.11417 6.65336,0.0421 9.86952,3.08575 9.86952,9.34015 0,2.81278 -0.14132,2.91902 -3.51142,2.63976 -3.0829,-0.25547 -3.56986,-0.63419 -3.9904,-3.10347 -0.33267,-1.95337 -1.08417,-2.89912 -2.46013,-3.09607 -2.55521,-0.36572 -3.13369,1.7829 -3.15025,11.70098 -0.009,5.64321 0.36561,8.04582 1.42058,9.10079 2.16604,2.16604 4.13341,0.80101 4.79331,-3.32576 0.57297,-3.58315 0.69514,-3.68796 3.97908,-3.4133 3.12922,0.26172 3.37269,0.49817 3.18772,3.09586 -0.34909,4.90269 -1.17674,6.97054 -3.33025,8.32042 -2.37374,1.48792 -7.67807,2.39017 -10.64986,1.81151 z m 116.29162,-0.34901 c -1.58882,-0.46658 -3.60535,-1.64016 -4.48119,-2.60796 -2.12481,-2.34788 -3.56013,-11.53392 -2.83288,-18.1305 0.7925,-7.18864 3.09439,-10.80039 7.39799,-11.60775 4.41486,-0.82823 9.63464,0.0592 11.78266,2.00306 3.81275,3.45051 4.72672,21.13988 1.35788,26.28137 -2.5034,3.82069 -8.14499,5.55345 -13.22446,4.06178 z M 465.75,353.25 c 1.17762,-1.17762 1.62294,-17.11151 0.55595,-19.89207 -0.31298,-0.81562 -1.5294,-1.48293 -2.70316,-1.48293 -2.7108,0 -3.26097,1.99528 -3.27749,11.88616 -0.01,5.7333 0.35882,8.03903 1.46042,9.14062 1.76815,1.76816 2.48166,1.83084 3.96428,0.34822 z m 130.96875,5.33985 c -2.0625,-0.75577 -3.82275,-1.38047 -3.91167,-1.38823 -0.65382,-0.0571 -2.19154,-6.74036 -1.72466,-7.49579 0.3249,-0.52571 1.99666,-0.95583 3.71503,-0.95583 2.51225,0 3.23444,0.43887 3.68657,2.24034 0.6761,2.69377 3.1254,3.83466 4.9613,2.311 2.56145,-2.12582 0.9924,-4.90727 -4.30902,-7.63863 -6.39623,-3.29542 -7.51417,-4.7888 -7.51417,-10.03771 0,-6.59833 3.17861,-9.375 10.7321,-9.375 3.56065,0 4.85106,0.49855 7.09288,2.74039 1.50722,1.50721 2.74039,3.61658 2.74039,4.6875 0,1.63688 -0.58005,1.94711 -3.64066,1.94711 -2.89839,0 -3.74458,-0.3974 -4.15038,-1.94917 -0.775,-2.96364 -4.86521,-2.11313 -4.86521,1.01167 0,1.91145 0.92979,2.78702 5.04094,4.74697 6.33388,3.01963 7.61531,4.78222 7.61531,10.47482 0,3.58186 -0.49,5.04094 -2.30114,6.85207 -1.26563,1.26562 -3.05859,2.3069 -3.98438,2.31394 -0.92578,0.007 -2.52698,0.20988 -3.55823,0.45074 -1.03125,0.24086 -3.5625,-0.18042 -5.625,-0.93619 z m 50.17881,0.44162 c -5.95092,-1.38113 -6.58506,-3.14864 -6.58506,-18.35408 l 0,-13.48989 3.75,0 3.75,0 0,13.0247 c 0,11.1637 0.2179,13.10832 1.52508,13.60992 3.41552,1.31066 4.09992,-1.02479 4.09992,-13.9906 l 0,-12.43889 3.30991,-0.3864 c 1.82045,-0.21254 3.50795,-0.18838 3.75,0.0537 0.24204,0.24206 0.44009,6.08605 0.44009,12.98666 0,16.54261 -0.57776,17.74224 -9.375,19.4657 -0.77344,0.15153 -2.87266,-0.0649 -4.66494,-0.48079 z m 35.19174,0.0315 C 677.7664,358.24319 675,355.27582 675,351.45864 c 0,-2.53508 0.24029,-2.70864 3.75,-2.70864 3.04348,0 3.75,0.33163 3.75,1.76021 0,2.76705 2.29994,4.20507 4.68446,2.92891 3.57534,-1.91345 2.02381,-4.85033 -4.21068,-7.97037 -7.70829,-3.85759 -9.73651,-8.40311 -6.52262,-14.61808 3.42235,-6.6181 15.91275,-6.27205 18.75044,0.51951 0.7485,1.7914 1.3609,3.48159 1.3609,3.75596 0,0.27438 -1.727,0.49886 -3.83777,0.49886 -3.04933,0 -3.9385,-0.38521 -4.32809,-1.875 -0.32199,-1.23132 -1.27877,-1.875 -2.787,-1.875 -1.95238,0 -2.25221,0.38648 -2.00003,2.57812 0.23889,2.07623 1.32599,3.10024 5.58409,5.26008 5.52764,2.80379 7.3688,5.29596 7.3688,9.9743 0,7.22861 -5.84114,11.01239 -14.4732,9.37546 z m 49.62945,0.26966 c -5.06599,-1.01402 -7.02134,-2.42841 -7.93581,-5.74035 -1.12975,-4.09161 -0.32499,-5.07361 3.83222,-4.67619 2.41491,0.23085 3.23471,0.78432 3.45528,2.33277 0.35277,2.47646 2.75134,3.55551 4.56238,2.05248 2.55911,-2.12388 0.99639,-4.90321 -4.24286,-7.54595 -6.11527,-3.0846 -7.57147,-4.88008 -7.61015,-9.38316 -0.0616,-7.16776 3.11049,-10.12223 10.86767,-10.12223 3.44378,0 4.7649,0.51815 6.98713,2.74039 1.50722,1.50721 2.74039,3.61658 2.74039,4.6875 0,1.63688 -0.58005,1.94711 -3.64066,1.94711 -2.89839,0 -3.74458,-0.3974 -4.15038,-1.94917 -0.775,-2.96364 -4.86521,-2.11313 -4.86521,1.01167 0,1.9332 0.95385,2.79823 5.44532,4.93828 6.72258,3.20312 8.80819,6.94248 7.20102,12.91101 -1.36864,5.08275 -6.75203,7.97567 -12.64634,6.79584 z m 100.90257,-0.29407 c -5.93675,-1.35832 -8.48681,-6.19814 -8.53645,-16.20154 -0.0558,-11.23732 3.47001,-16.58702 10.93187,-16.58702 5.46019,0 9.22308,2.05447 10.50662,5.73641 1.48918,4.27186 1.30786,18.05567 -0.28774,21.87449 -1.93254,4.62521 -6.61988,6.54916 -12.6143,5.17766 z m 4.49579,-5.53771 c 1.70696,-1.08032 2.54574,-15.37111 1.11798,-19.04772 -1.10872,-2.85505 -4.23629,-3.5181 -5.16604,-1.0952 -0.9468,2.46731 -0.63753,17.26239 0.40143,19.2037 1.08021,2.01837 1.69236,2.17604 3.64663,0.93922 z m 75.30964,5.42837 c -4.25449,-1.19622 -6.04018,-4.45168 -6.57997,-11.99581 -1.02213,-14.28573 2.20812,-20.68341 10.44324,-20.68341 7.50146,0 10.89748,2.95295 10.89748,9.47571 0,2.6906 -0.16703,2.81114 -3.51142,2.53401 -3.08203,-0.25539 -3.57036,-0.63488 -3.99358,-3.10347 -0.38452,-2.24296 -0.95492,-2.8125 -2.81671,-2.8125 -2.32426,0 -2.3357,0.0438 -2.59922,9.93818 -0.21343,8.0143 0.0134,10.16899 1.17188,11.13043 1.76547,1.46521 4.24905,-0.18629 4.24905,-2.82548 0,-3.46687 1.09849,-4.64938 4.31905,-4.64938 3.00211,0 3.18095,0.182 3.18095,3.23714 0,1.78043 -0.4766,4.28316 -1.05911,5.56163 -1.63267,3.58332 -8.44996,5.66953 -13.70164,4.19295 z m 113.26585,0.0845 c -5.711,-1.2797 -7.5676,-5.44394 -7.5676,-16.97348 0,-10.93964 3.3624,-15.7902 10.9458,-15.7902 8.8629,0 11.5542,3.80686 11.5542,16.34367 0,8.66932 -1.4757,13.83955 -4.3737,15.32382 -2.7731,1.42025 -7.1055,1.87005 -10.5587,1.09624 z m 5.5687,-6.05866 c 1.5289,-1.84214 2.3086,-13.10602 1.1997,-17.33007 -0.6835,-2.60344 -1.3279,-3.28125 -3.1197,-3.28125 -1.9358,0 -2.3695,0.60216 -3.0378,4.21875 -0.9326,5.04555 -0.1617,14.76967 1.3113,16.54468 1.3566,1.63446 2.1928,1.59958 3.6465,-0.15211 z m 38.4938,6.05866 c -5.711,-1.2797 -7.5676,-5.44394 -7.5676,-16.97348 0,-11.10005 3.3416,-15.7902 11.25,-15.7902 7.9908,0 11.2536,4.68371 11.2448,16.14176 -0.01,11.88679 -2.0709,15.79959 -8.901,16.89219 -1.5469,0.24745 -4.2586,0.12585 -6.0262,-0.27022 z m 5.3706,-5.81988 c 1.4382,-1.73295 2.2678,-11.75999 1.376,-16.63135 -0.6678,-3.64738 -1.0847,-4.21875 -3.0785,-4.21875 -2.0476,0 -2.3861,0.52574 -3.018,4.6875 -0.3915,2.57813 -0.4502,7.00782 -0.1304,9.84375 0.7645,6.77849 2.5448,9.09752 4.8509,6.31885 z m 57.2553,6.1084 c -1.3545,-0.18811 -3.4638,-1.40653 -4.6875,-2.70758 -2.0071,-2.13415 -2.2555,-3.35671 -2.5392,-12.49683 -0.4639,-14.94435 2.0844,-18.54513 12.4423,-17.58221 5.6792,0.52795 8.0284,2.9661 8.0284,8.33233 l 0,3.70273 -3.5114,-0.29096 c -3.0829,-0.25547 -3.5699,-0.6342 -3.9904,-3.10348 -0.3388,-1.98947 -1.0789,-2.89812 -2.529,-3.10508 -1.6893,-0.24111 -2.1599,0.29357 -2.6749,3.03904 -0.8674,4.62365 -0.13,17.13659 1.0813,18.34785 1.809,1.809 4.1138,-0.0731 4.7182,-3.85288 0.5453,-3.40984 0.7914,-3.64768 3.7742,-3.64768 3.8744,0 4.5349,1.35253 3.1578,6.46675 -1.4487,5.38018 -6.2453,7.87355 -13.2698,6.898 z m -772.38304,-16.37883 -0.002,-16.20467 9.37705,0.29664 9.37704,0.29664 0,2.70345 c 0,2.63356 -0.13936,2.71073 -5.39063,2.98462 -5.3021,0.27654 -5.39062,0.32733 -5.39062,3.09365 0,2.73188 0.14109,2.82062 4.92187,3.09587 l 4.92188,0.28337 0,3.23226 0,3.23225 -5.21565,0 -5.21565,0 0.29377,3.04688 c 0.28981,3.00574 0.36972,3.0532 5.91878,3.51562 5.52083,0.46007 5.625,0.52084 5.625,3.28125 l 0,2.8125 -9.60938,0.26717 -9.60937,0.26718 -0.002,-16.20468 z m 22.18954,15.51408 c -0.67524,-0.67523 -0.88808,-30.67441 -0.22236,-31.34014 0.22145,-0.22144 2.2737,-0.25383 4.56054,-0.0719 l 4.15792,0.33069 2.84415,9.05632 2.84414,9.05632 0.0953,-9.14062 0.0953,-9.14062 3.77267,0 3.77267,0 -0.25705,15.70312 -0.25704,15.70313 -4.30469,0.27967 -4.3047,0.27969 -2.69945,-9.34753 c -2.61723,-9.06279 -4.43121,-11.51321 -4.02271,-5.43405 0.10985,1.63472 0.12392,5.60894 0.0313,8.83159 -0.16588,5.76919 -0.20936,5.85938 -2.82472,5.85938 -1.46094,0 -2.93751,-0.28125 -3.28125,-0.625 z m 30.10458,-12.26558 -0.26083,-12.89062 -3.04688,-0.29377 c -2.67911,-0.25831 -3.04687,-0.62608 -3.04687,-3.04688 l 0,-2.7531 10.3125,0 10.3125,0 0,2.8125 c 0,2.58928 -0.26042,2.8125 -3.28125,2.8125 l -3.28125,0 0,13.125 0,13.125 -3.72354,0 -3.72355,0 -0.26083,-12.89063 z m 16.14384,-3.28125 -0.002,-16.17187 8.98562,0.46875 c 7.48118,0.39027 9.20804,0.77344 10.31408,2.28856 1.82443,2.49918 1.71036,9.79808 -0.18586,11.89338 -1.39411,1.54047 -1.39411,1.79354 0,3.18766 0.86327,0.86326 1.51434,3.04742 1.51434,5.08018 0,1.96121 0.26367,4.8842 0.58594,6.49553 0.57847,2.89238 0.53796,2.92969 -3.18095,2.92969 -4.23192,0 -4.90471,-0.90014 -4.90471,-6.5625 0,-5.03057 -0.78938,-6.5625 -3.38155,-6.5625 -2.15261,0 -2.24345,0.26574 -2.24345,6.5625 l 0,6.5625 -3.75,0 -3.75,0 -0.002,-16.17188 z m 12.00158,-3.70312 c 1.75027,-1.75027 1.32697,-5.26344 -0.76938,-6.38537 -2.7102,-1.45045 -3.73062,-0.40677 -3.73062,3.8157 0,2.93283 0.34796,3.69467 1.6875,3.69467 0.92813,0 2.19375,-0.50625 2.8125,-1.125 z m 48.41453,18.66549 c -0.25528,-0.66523 -0.34751,-7.90272 -0.20496,-16.08332 l 0.25918,-14.8738 7.9163,0.21019 c 4.35395,0.1156 8.62032,0.58698 9.48079,1.04749 2.80614,1.5018 4.16726,6.59377 4.12727,15.4402 -0.0438,9.68438 -1.05784,12.23057 -5.63221,14.14187 -4.08812,1.70812 -15.30427,1.79068 -15.94637,0.11737 z m 12.714,-5.82392 c 1.00489,-0.62106 1.30654,-15.27981 0.36492,-17.73364 -0.31298,-0.81562 -1.5786,-1.48293 -2.8125,-1.48293 -2.22958,0 -2.24345,0.0634 -2.24345,10.25867 0,9.76045 0.0912,10.2411 1.87853,9.8969 1.03319,-0.19897 2.29881,-0.62152 2.8125,-0.939 z m 12.18397,-8.87128 0,-15.97029 9.375,0 9.375,0 0,2.76572 c 0,2.70935 -0.10985,2.77144 -5.39063,3.04687 -5.3021,0.27655 -5.39062,0.32734 -5.39062,3.09366 0,2.73187 0.14109,2.82062 4.92187,3.09587 l 4.92188,0.28337 0,3.23225 0,3.23226 -5.21565,0 -5.21565,0 0.29378,3.04687 c 0.2898,3.00575 0.36971,3.05321 5.91877,3.51563 5.52083,0.46007 5.625,0.52084 5.625,3.28125 l 0,2.8125 -9.60938,0.26717 -9.60937,0.26718 0,-15.97031 z m 32.8125,-0.0328 0,-15.9375 7.76015,0 c 8.97009,0 11.38236,1.15789 12.75285,6.12139 1.18338,4.28589 -0.25325,9.39794 -3.18005,11.31564 -1.24383,0.815 -3.96509,1.7103 -6.04723,1.98958 l -3.78572,0.50777 0,5.97031 0,5.97031 -3.75,0 -3.75,0 0,-15.9375 z m 12.74308,-5.16843 c 0.68974,-2.74812 -0.93246,-5.14405 -3.48287,-5.14405 -1.42858,0 -1.76021,0.70652 -1.76021,3.75 0,3.36732 0.23736,3.75 2.32589,3.75 1.70229,0 2.48442,-0.63165 2.91719,-2.35593 z m 11.52152,20.87157 c -0.35071,-0.74457 -0.64355,-29.539 -0.31223,-30.70312 0.3197,-1.12339 2.19391,-1.40625 9.31767,-1.40625 l 8.91746,0 0,2.99788 c 0,2.95551 -0.0696,3.00189 -4.92187,3.28125 -4.7812,0.27527 -4.93017,0.369 -5.21186,3.27932 l -0.28997,2.99596 4.97747,0.28529 c 4.84213,0.27755 4.97748,0.36178 4.97748,3.0978 0,2.73188 -0.14109,2.82062 -4.92187,3.09587 l -4.92188,0.28337 0,3.23225 0,3.23226 5.625,0 5.625,0 0,3.28125 0,3.28125 -9.375,0 c -5.15625,0 -9.42468,-0.10547 -9.4854,-0.23437 z m 93.8604,-15.70312 0,-15.9375 3.75,0 3.75,0 0,15.9375 0,15.9375 -3.75,0 -3.75,0 0,-15.9375 z m 32.82339,14.76562 c 0.0118,-1.27163 7.29479,-29.89086 7.70684,-30.28485 0.45,-0.43028 2.997,-0.64268 6.34784,-0.52934 l 3.28432,0.11107 3.51901,13.82812 c 1.93546,7.60547 3.78331,14.80436 4.10634,15.99751 0.55642,2.05521 0.37127,2.1539 -3.51758,1.875 -3.74209,-0.26836 -4.14756,-0.54298 -4.58737,-3.10688 -0.4401,-2.56558 -0.80565,-2.8125 -4.16365,-2.8125 -3.3662,0 -3.74876,0.26073 -4.47072,3.04687 -0.72387,2.7935 -1.09915,3.04688 -4.51272,3.04688 -2.35937,0 -3.71921,-0.42926 -3.71231,-1.17188 z m 14.686,-13.125 c -0.27851,-1.16015 -0.79898,-3.72291 -1.15661,-5.69503 -0.83144,-4.58491 -1.99635,-3.39502 -2.82199,2.88253 -0.644,4.89643 -0.63407,4.92188 1.91882,4.92188 2.18624,0 2.49119,-0.31229 2.05978,-2.10938 z m 46.24061,-1.48437 c 0,-8.67969 0.17393,-15.95703 0.38651,-16.17187 0.21258,-0.21485 4.43133,-0.25621 9.375,-0.092 l 8.98849,0.29871 0,2.74816 c 0,2.70496 -0.0808,2.74817 -5.13839,2.74817 -4.6672,0 -5.1911,0.21003 -5.71326,2.29047 -0.86101,3.43054 0.17941,4.27203 5.28198,4.27203 l 4.63217,0 0,3.23226 0,3.23226 -4.92188,0.28336 c -4.78078,0.27525 -4.92187,0.364 -4.92187,3.09587 0,2.76632 0.0885,2.81712 5.39062,3.09366 l 5.39063,0.28116 0,3.23446 0,3.23447 -9.375,0 -9.375,0 0,-15.78124 z M 780,343.13686 l 0,-16.03883 5.83684,0.27911 5.83683,0.27911 0.71236,4.21875 c 0.39179,2.32031 1.21432,6.53906 1.82786,9.375 l 1.1155,5.15625 1.94469,-9.66472 c 1.06956,-5.31561 2.26108,-9.63983 2.64779,-9.60938 0.38672,0.0305 2.8125,0.0553 5.39063,0.0553 l 4.6875,0 0,15.9375 0,15.9375 -3.17692,0 c -2.86191,0 -3.22394,-0.30211 -3.65123,-3.04687 -0.26088,-1.67578 -0.37543,-5.78906 -0.25456,-9.14063 0.34409,-9.54073 -0.66314,-8.85014 -2.73471,1.875 l -1.90133,9.84375 -2.95788,0.28714 c -3.28018,0.31842 -2.76186,1.57547 -6.11006,-14.81839 l -1.24456,-6.09375 -0.46875,10.3125 -0.46875,10.3125 -3.51562,0.29097 -3.51563,0.29097 0,-16.03883 z m 70.3125,0.0447 0,-15.9941 7.86489,0 c 9.92572,0 11.85805,1.25433 12.51833,8.12603 0.26504,2.75838 -0.0118,5.59606 -0.66504,6.81664 -1.24723,2.33046 -6.23367,4.74483 -9.79958,4.74483 -2.20229,0 -2.34433,0.31908 -2.60824,5.85938 l -0.27911,5.85937 -3.51563,0.29097 -3.51562,0.29097 0,-15.99409 z m 12.21054,-4.30311 c 1.6475,-1.9851 -0.24658,-6.06597 -2.81544,-6.06597 -1.58595,0 -1.8951,0.61175 -1.8951,3.75 0,3.04348 0.33163,3.75 1.76021,3.75 0.96811,0 2.29576,-0.64531 2.95033,-1.43401 z m 16.58408,19.60363 c -0.36829,-0.36827 -0.66962,-6.2946 -0.66962,-13.1696 l 0,-12.5 -3.28125,0 c -3.02083,0 -3.28125,-0.22322 -3.28125,-2.8125 l 0,-2.8125 10.78125,0 10.78125,0 0,2.8125 c 0,2.58493 -0.26335,2.8125 -3.25479,2.8125 l -3.2548,0 -0.26083,12.89062 -0.26083,12.89063 -3.31476,0.27899 c -1.82312,0.15345 -3.61608,-0.0223 -3.98437,-0.39062 z m 16.20482,-15.5349 -5.7e-4,-16.22847 3.51619,0.0987 3.51619,0.0987 0,15.83877 0,15.83878 -3.51563,0.29097 -3.51562,0.29097 -5.6e-4,-16.22847 z M 928.125,357.6014 c 0,-1.23051 3.33787,-15.2183 6.59312,-27.62928 l 0.86794,-3.30912 4.86763,0.49662 4.86768,0.49661 3.8761,15.26012 c 2.13178,8.39306 3.67669,15.45947 3.43303,15.70312 -0.24366,0.24366 -2.01328,0.44301 -3.93244,0.44301 -3.24562,0 -3.5324,-0.22922 -4.10494,-3.28125 -0.57675,-3.07407 -0.84309,-3.28125 -4.21875,-3.28125 -3.37569,0 -3.64207,0.20718 -4.21876,3.28125 -0.58027,3.09308 -0.82817,3.28125 -4.32309,3.28125 -2.73242,0 -3.70752,-0.38427 -3.70752,-1.46108 z m 13.68075,-15.42534 c -0.96403,-7.26706 -1.78603,-8.60665 -2.58187,-4.20733 -1.25851,6.95757 -0.99394,8.90625 1.20937,8.90625 1.85353,0 1.95141,-0.33501 1.3725,-4.69892 z m 23.81925,0.94892 0,-15.9375 9.375,0 9.375,0 0,2.76572 c 0,2.70935 -0.10987,2.77144 -5.39063,3.04687 -5.30212,0.27655 -5.39062,0.32734 -5.39062,3.09366 0,2.73187 0.14109,2.82062 4.92187,3.09587 l 4.92188,0.28337 0,3.23225 0,3.23226 -5.15625,0 -5.15625,0 0,3.28125 0,3.28125 5.625,0 5.625,0 0,3.28125 0,3.28125 -9.375,0 -9.375,0 0,-15.9375 z m 32.8125,0.0643 0,-15.87317 8.9083,-0.2987 8.9084,-0.29871 0,2.99788 c 0,2.9552 -0.072,3.00191 -4.9239,3.28125 -4.7812,0.27527 -4.9301,0.369 -5.2119,3.27932 l -0.2899,2.99596 4.9774,0.28529 c 4.8421,0.27755 4.9775,0.36178 4.9775,3.0978 0,2.73188 -0.1411,2.82062 -4.9219,3.09587 l -4.9218,0.28337 0,6.5135 0,6.51351 -3.75,0 -3.75004,0 0,-15.87317 z m 49.4799,3.03754 -0.2611,-12.9456 -3.5157,-0.29097 c -3.1992,-0.26478 -3.5156,-0.539 -3.5156,-3.04688 l 0,-2.7559 10.7813,0 10.7812,0 0,2.8125 c 0,2.58493 -0.2633,2.8125 -3.2548,2.8125 l -3.2548,0 -0.2608,12.89062 -0.2608,12.89063 -3.4889,0.28937 -3.4888,0.28937 -0.2612,-12.94562 z m 40.2521,12.25507 c -0.7052,-0.70514 -0.9601,-30.69134 -0.2668,-31.38458 0.2214,-0.22145 2.3254,-0.2497 4.6756,-0.0628 l 4.273,0.33984 1.9258,6.70343 c 3.1844,11.08415 3.5898,11.29286 3.6594,1.88411 l 0.064,-8.56931 3.3785,-0.39443 c 1.9483,-0.22744 3.5463,0.0428 3.7748,0.6382 0.218,0.56793 0.2797,7.76567 0.1372,15.99497 l -0.2595,14.96241 -4.1861,0 -4.186,0 -2.975,-9.375 -2.9749,-9.375 -0.339,9.375 -0.339,9.375 -2.8462,0.2788 c -1.5654,0.15335 -3.1475,-0.0224 -3.5156,-0.39062 z m 25.5805,-15.25845 0,-15.83903 3.75,-0.35762 3.75,-0.35762 0,16.19665 0,16.19665 -3.75,0 -3.75,0 0,-15.83903 z m 32.7974,15.1359 c -0.01,-0.38671 1.7457,-7.55859 3.8978,-15.9375 l 3.9127,-15.23437 4.8922,0 4.892,0 3.8665,15.44947 c 2.1265,8.49722 3.8664,15.69335 3.8664,15.99141 0,0.29806 -1.7684,0.4122 -3.9298,0.25365 -3.5722,-0.26204 -4.0025,-0.5705 -4.7283,-3.38931 -0.7409,-2.87722 -1.0455,-3.08021 -4.2191,-2.8125 -2.9798,0.25135 -3.5216,0.6812 -4.2047,3.3354 -0.7193,2.7944 -1.0928,3.04688 -4.5074,3.04688 -2.0478,0 -3.7299,-0.31641 -3.7383,-0.70313 z m 14.4068,-15.46875 c -1.3531,-8.55083 -1.8122,-9.11866 -2.9945,-3.70385 -1.5361,7.03534 -1.4282,7.68823 1.2701,7.68823 2.2443,0 2.3253,-0.18703 1.7244,-3.98438 z M 833.4375,324.4983 c 0,-0.51631 0.41143,-2.02089 0.9143,-3.34352 0.74923,-1.97062 1.52749,-2.40478 4.31081,-2.40478 l 3.39651,0 -1.9203,3.04688 c -1.83431,2.91041 -6.70132,4.87239 -6.70132,2.70142 z m 233.4375,-0.0792 c 0,-0.49136 0.472,-1.92943 1.049,-3.19571 0.8348,-1.83209 1.8747,-2.368 5.0916,-2.62386 3.5485,-0.28221 4.2224,-0.0172 5.5136,2.1685 0.8089,1.36951 1.4708,2.95226 1.4708,3.51723 0,1.66772 -4.5074,1.17209 -5.5784,-0.61339 -0.9372,-1.56251 -1.031,-1.56251 -1.9682,0 -1.0225,1.70474 -5.5784,2.315 -5.5784,0.74723 z M 934.6875,292.83813 c -1.28906,-0.18923 -5.50781,-0.8116 -9.375,-1.38306 -18.94126,-2.79896 -38.81597,-12.80418 -52.82853,-26.59463 -21.28861,-20.95119 -31.84459,-52.41564 -27.73931,-82.68323 2.23365,-16.46837 10.39978,-35.45156 20.99974,-48.81653 18.95792,-23.90315 53.92698,-38.380961 84.63479,-35.040311 40.75022,4.433151 72.13891,29.924831 84.41341,68.554631 6.7764,21.32641 6.0513,42.29471 -2.2113,63.94656 -13.1134,34.36282 -43.47661,57.33195 -81.48755,61.6435 -8.38566,0.95118 -11.92031,1.03155 -16.40625,0.37307 z m 18.31866,-50.51117 c 13.74862,-3.50147 25.2704,-12.4068 31.5164,-24.35924 4.56066,-8.72753 5.71688,-13.43813 5.63738,-22.96772 -0.20653,-24.72738 -17.33119,-44.03097 -42.53728,-47.94968 -13.26258,-2.06189 -28.97431,3.13108 -39.31757,12.99505 -11.52813,10.99393 -16.89267,25.95849 -14.79917,41.28276 1.1514,8.42814 3.09725,13.48099 8.15171,21.16773 10.82411,16.46118 32.1862,24.71133 51.34853,19.8311 z M 402.65625,291.4541 c -38.28776,-5.5629 -58.30908,-25.2855 -65.80755,-64.82575 -1.27898,-6.7442 -1.64721,-13.74002 -1.66476,-31.62835 -0.02,-20.36384 0.22408,-24.18821 2.15194,-33.72135 8.16179,-40.35956 30.26529,-59.12068 74.19947,-62.979441 7.18862,-0.631378 20.61916,-0.807281 34.61579,-0.453365 21.45299,0.542465 23.17265,0.716897 27.75653,2.815466 8.2437,3.77409 11.71733,10.19386 11.71733,21.65533 0,11.79983 -3.62872,18.51379 -12.10032,22.38839 -3.99628,1.82775 -6.46331,2.00791 -34.30593,2.50537 -27.70274,0.49497 -30.38113,0.68879 -34.97726,2.53128 -10.18312,4.08219 -15.42432,10.59997 -18.62087,23.15627 -2.11779,8.31886 -2.37902,34.5077 -0.43087,43.1958 2.87133,12.80514 9.16163,20.86899 19.41762,24.89245 5.25881,2.06305 7.09267,2.20527 35.08013,2.72058 27.39277,0.50437 29.84306,0.6868 33.83718,2.5194 8.96331,4.11258 12.65618,11.77067 11.90805,24.69429 -0.65449,11.30581 -5.46979,18.06381 -14.69745,20.627 -4.13396,1.1483 -60.06088,1.07159 -68.07903,-0.0934 z m 122.93968,-0.0932 c -4.88249,-1.31119 -11.36925,-7.68254 -12.68027,-12.45469 -0.71095,-2.58789 -1.03182,-28.46562 -1.03543,-83.50487 -0.006,-89.32697 -0.27949,-85.5195 6.59213,-91.72759 6.93921,-6.26916 7.1795,-6.289701 69.95732,-5.980954 46.70095,0.229678 56.57284,0.503897 58.91407,1.636453 9.25475,4.476961 12.63269,10.344511 12.64709,21.968191 0.0113,9.15424 -1.27486,13.6121 -5.2762,18.28677 -6.09182,7.11691 -5.91131,7.09146 -52.60527,7.41907 l -41.48437,0.29108 0,48.22782 0,48.22781 40.14234,0 c 45.25969,0 46.93005,0.1974 52.99543,6.26278 4.5271,4.52709 6.54992,11.29088 6.09152,20.36844 -0.46079,9.12497 -3.47808,14.99716 -9.67494,18.82917 l -4.56173,2.82086 -58.19943,0.15129 c -37.7421,0.0981 -59.47287,-0.19068 -61.82226,-0.8216 z m 170.9762,-0.0426 c -4.51702,-1.5098 -10.58687,-7.85283 -11.98166,-12.5209 -0.87288,-2.92133 -1.15297,-23.16437 -1.15297,-83.3287 0,-60.16433 0.28009,-80.40737 1.15297,-83.32873 1.43056,-4.7878 7.61356,-11.14299 12.52981,-12.87872 2.9055,-1.025822 12.4635,-1.29255 46.31722,-1.29255 38.73088,0 43.16937,0.158344 48.23224,1.720697 21.45197,6.619893 39.36881,24.809033 44.06542,44.735133 1.78102,7.55621 1.82768,20.05735 0.1052,28.18349 -4.36772,20.60568 -23.38543,39.85222 -44.73321,45.27144 -9.15753,2.32468 -25.02959,2.8793 -31.18555,1.0897 -11.37533,-3.30689 -16.07348,-11.18376 -15.37568,-25.77876 0.48445,-10.13262 3.21033,-15.54649 9.76036,-19.38507 3.75278,-2.19927 5.61902,-2.56677 15.77117,-3.10568 15.30477,-0.81243 18.38323,-2.84091 18.34623,-12.08886 -0.0191,-4.78349 -1.78251,-7.85293 -5.62422,-9.78991 -2.90057,-1.46244 -5.90471,-1.62063 -26.70571,-1.40625 l -23.4375,0.24157 -0.46875,65.15625 c -0.25781,35.83594 -0.84755,66 -1.31051,67.03125 -1.82495,4.06499 -5.54584,8.08244 -9.29067,10.03116 -3.08575,1.60574 -5.84345,2.09794 -12.83632,2.29105 -4.9985,0.13803 -10.34172,-0.23386 -12.17787,-0.84759 z m 376.45077,-0.16371 c -5.4909,-2.03561 -8.2148,-4.42681 -10.8296,-9.507 l -2.3495,-4.56489 -0.2924,-78.77577 c -0.2059,-55.52098 0.017,-80.20827 0.7549,-83.6284 1.3971,-6.47398 5.3258,-11.67327 10.9173,-14.44812 l 4.5577,-2.26171 48.2812,0 c 47.2467,0 48.3735,0.04266 52.5872,1.99155 8.2292,3.80609 12.1003,10.82386 12.1003,21.93586 0,10.89811 -4.1365,18.74101 -11.9047,22.57161 -4.4192,2.17915 -5.0801,2.2257 -36.1422,2.54561 l -31.6406,0.32587 0,11.57711 0,11.5771 32.1094,0.30014 c 30.7802,0.28773 32.2646,0.38369 35.8594,2.31829 7.2926,3.92469 10.6379,9.5016 11.4402,19.07241 1.0504,12.53004 -2.9395,21.07575 -11.7162,25.09385 l -5.2954,2.42435 -31.115,0.0706 -31.115,0.0706 -0.3462,28.125 c -0.2999,24.36372 -0.5678,28.62479 -2.0034,31.86221 -3.8063,8.58318 -9.708,11.94816 -21.724,12.38621 -5.7694,0.21033 -9.6062,-0.12565 -12.1334,-1.0625 z M 586.1213,218.57975 c -9.60613,-3.4066 -13.77755,-10.26199 -13.77755,-22.64225 0,-8.796 2.16135,-14.70756 6.96349,-19.046 5.84016,-5.27624 8.55337,-5.7911 30.53651,-5.79461 21.07291,-0.004 24.46805,0.54163 30.24303,4.8547 4.49525,3.35728 7.00908,8.98541 7.52218,16.84109 0.80491,12.3234 -2.91006,20.47258 -11.37152,24.94464 -3.61241,1.90924 -5.38364,2.07769 -24.51869,2.33184 -18.24607,0.24236 -21.19853,0.0706 -25.59745,-1.48941 z"
     id="path4219"
     inkscape:connector-curvature="0" />
</svg>
