<?xml version="1.0" encoding="UTF-8" standalone="no"?>
<!-- Created with Inkscape (http://www.inkscape.org/) -->

<svg
   xmlns:dc="http://purl.org/dc/elements/1.1/"
   xmlns:cc="http://creativecommons.org/ns#"
   xmlns:rdf="http://www.w3.org/1999/02/22-rdf-syntax-ns#"
   xmlns:svg="http://www.w3.org/2000/svg"
   xmlns="http://www.w3.org/2000/svg"
   xmlns:sodipodi="http://sodipodi.sourceforge.net/DTD/sodipodi-0.dtd"
   xmlns:inkscape="http://www.inkscape.org/namespaces/inkscape"
   version="1.1"
   id="svg15863"
   width="174.07686"
   height="163.35251"
   viewBox="0 0 174.07686 163.35251"
   sodipodi:docname="T--USP_SaoCarlos-Brazil--MagnetoCarlos.svg"
   inkscape:version="0.92.2 5c3e80d, 2017-08-06">
  <metadata
     id="metadata15869">
    <rdf:RDF>
      <cc:Work
         rdf:about="">
        <dc:format>image/svg+xml</dc:format>
        <dc:type
           rdf:resource="http://purl.org/dc/dcmitype/StillImage" />
        <dc:title></dc:title>
      </cc:Work>
    </rdf:RDF>
  </metadata>
  <defs
     id="defs15867" />
  <sodipodi:namedview
     pagecolor="#ffffff"
     bordercolor="#666666"
     borderopacity="1"
     objecttolerance="10"
     gridtolerance="10"
     guidetolerance="10"
     inkscape:pageopacity="0"
     inkscape:pageshadow="2"
     inkscape:window-width="1284"
     inkscape:window-height="542"
     id="namedview15865"
     showgrid="false"
     fit-margin-top="0"
     fit-margin-left="0"
     fit-margin-right="0"
     fit-margin-bottom="0"
     inkscape:zoom="0.84133922"
     inkscape:cx="98.683119"
     inkscape:cy="139.04349"
     inkscape:window-x="0"
     inkscape:window-y="0"
     inkscape:window-maximized="0"
     inkscape:current-layer="svg15863" />
  <g
     id="g16461"
     transform="translate(-5.92352,-19.426572)">
    <g
       transform="translate(-115.98263,3.3618149)"
       id="g16440">
      <path
         inkscape:connector-curvature="0"
         id="path16448"
         d="m 192.313,179.06241 c -4.05375,-0.66463 -5.68551,-1.19564 -9.11759,-2.96707 -3.47109,-1.79157 -7.86353,-6.07597 -9.95208,-9.70728 -0.83748,-1.45611 -1.74456,-2.64748 -2.01573,-2.64748 -0.27117,0 -1.97364,-1.43894 -3.78328,-3.19765 -3.81953,-3.71204 -8.08763,-6.82258 -12.21026,-8.89871 -2.22541,-1.12069 -3.82112,-1.5942 -6.7645,-2.00725 -5.77584,-0.81055 -6.72374,-1.30962 -9.50968,-5.00685 -1.30683,-1.73429 -2.37604,-3.35505 -2.37604,-3.6017 0,-0.84085 -4.1052,-6.8357 -6.11842,-8.93478 -2.25221,-2.34826 -4.13083,-3.09093 -6.86922,-2.71559 -0.92953,0.12741 -1.69005,0.1575 -1.69005,0.0669 0,-0.32439 4.9072,-6.37198 5.42189,-6.68187 0.28898,-0.174 1.49521,-1.16501 2.68051,-2.20224 2.59516,-2.27096 7.87171,-4.66655 11.40758,-5.17911 5.44315,-0.78905 11.96955,-5.1493 18.15176,-12.12709 2.90033,-3.273568 3.51559,-3.778498 4.60412,-3.778498 h 1.25643 l 0.2701,-3.238687 0.27009,-3.238663 -1.27489,-1.315355 c -0.91118,-0.940094 -1.35611,-1.8552 -1.55957,-3.207618 -0.15657,-1.040743 -0.76207,-3.020719 -1.34555,-4.399946 -3.08954,-7.303037 -3.8115,-24.288488 -1.42779,-33.591491 1.83562,-7.163984 6.08842,-14.99358 11.18719,-20.596126 4.21031,-4.6263 12.07071,-8.372549 24.68166,-11.763222 7.36483,-1.980161 19.17858,-2.691165 23.77215,-1.430713 6.0174,1.651136 18.28344,12.442294 25.12513,22.104044 3.93774,5.560844 4.04422,5.73249 6.13959,9.897505 1.96443,3.904729 2.49096,5.402535 4.39387,12.499256 1.28318,4.785453 1.6365,6.865325 1.80468,10.623626 0.18162,4.058678 0.31175,4.745089 0.98955,5.219837 0.66603,0.466513 0.87684,0.462423 1.43828,-0.02789 0.66825,-0.583589 12.33449,-9.096841 17.21676,-12.563651 1.57043,-1.115136 2.74942,-2.260309 2.85584,-2.773909 0.0997,-0.481091 0.35798,-3.248084 0.57402,-6.148867 0.40405,-5.425155 1.07133,-7.698093 2.51812,-8.577303 1.59789,-0.971036 3.07087,2.66811 3.07759,7.603522 0.002,1.484743 0.10882,1.685351 0.89486,1.680924 0.49091,-0.0028 1.94417,-0.538298 3.22946,-1.190083 2.75711,-1.398152 3.07043,-1.430118 3.99574,-0.407651 1.00998,1.116004 0.55984,2.33282 -1.76453,4.769895 -1.09427,1.147335 -1.98959,2.413099 -1.98959,2.812804 0,0.472301 0.59027,0.990605 1.68595,1.480408 2.16048,0.965799 3.93924,2.754811 3.78672,3.808558 -0.27786,1.919726 -3.54954,2.300211 -8.4836,0.986618 -1.72581,-0.459459 -3.50059,-0.919117 -3.94395,-1.021456 -0.50008,-0.11543 -1.51262,0.31467 -2.66709,1.132907 -11.82798,8.383184 -18.78102,13.200845 -19.74866,13.683567 -1.02132,0.509502 -1.17466,0.802579 -1.17356,2.242976 7.9e-4,0.911294 0.26036,3.174252 0.57704,5.028798 1.77483,10.394086 2.3175,27.637804 1.18346,37.605744 -1.0604,9.32068 -3.64269,18.89804 -6.81347,25.27029 -3.05673,6.14306 -8.92125,13.07306 -13.88783,16.41103 -7.39678,4.97126 -16.096,7.67862 -30.69652,9.5533 -8.465,1.0869 -14.14648,1.29618 -18.00669,0.66328 z"
         style="fill:#fce065;stroke-width:0.39669421" />
      <path
         inkscape:connector-curvature="0"
         id="path16446"
         d="m 167.02157,159.97945 c -1.03167,-0.78773 -1.87575,-1.56424 -1.87575,-1.72558 0,-0.16134 -1.65124,-1.46639 -3.66942,-2.90011 -4.01207,-2.85019 -9.12134,-5.49748 -10.61013,-5.49748 -0.97148,0 -4.61599,-0.63425 -7.22573,-1.25749 -1.11881,-0.26718 -2.00519,-0.97982 -3.69249,-2.96871 -1.22115,-1.43943 -2.62428,-3.44268 -3.11807,-4.45167 -1.58962,-3.24819 -4.68618,-7.67728 -6.73117,-9.62779 -2.08204,-1.98585 -3.96848,-2.62491 -6.60582,-2.23783 -0.65458,0.0961 -1.19015,0.009 -1.19015,-0.1944 0,-1.22708 8.25891,-9.50971 10.49901,-10.52917 0.44373,-0.20194 1.86551,-0.85755 3.15951,-1.45691 1.294,-0.59936 3.45566,-1.22653 4.80368,-1.39371 6.10402,-0.757 14.43512,-6.6261 20.78348,-14.64156 0.92919,-1.173188 1.56529,-1.627598 2.15969,-1.542788 0.81653,0.1165 0.8487,0.35018 1.04091,7.562548 l 0.19835,7.44233 2.15466,-1.45178 c 2.51888,-1.69719 7.68137,-4.33072 9.25319,-4.72031 2.20693,-0.54701 4.21985,2.19375 3.02102,4.11338 -0.27255,0.43643 -1.97695,1.61839 -3.78755,2.62659 -4.03161,2.24493 -8.76005,5.99269 -10.12648,8.02627 l -1.0166,1.51292 0.30829,6.34711 c 0.1753,3.60916 0.15638,6.63308 -0.0439,7.01005 -0.27323,0.51438 0.0564,1.02258 1.47102,2.26776 3.7366,3.28909 10.39038,4.5441 14.9582,2.82136 2.79549,-1.0543 6.61597,-4.48195 8.51878,-7.64285 l 1.30571,-2.169 -1.00819,-2.67849 c -1.19884,-3.18504 -1.25097,-4.17979 -0.28172,-5.37676 1.13387,-1.40027 2.55737,-0.8 4.28954,1.80883 0.79389,1.19568 1.62134,2.17397 1.83878,2.17397 0.21743,0 1.16999,-0.71405 2.11679,-1.58677 1.19753,-1.10385 2.07772,-1.58678 2.89206,-1.58678 1.34993,0 2.41736,0.89705 2.41736,2.03151 0,0.96755 -0.92498,2.80835 -1.75896,3.5005 -0.93863,0.77899 -0.75718,1.60848 0.35187,1.60848 2.51325,0 3.90779,1.74164 3.1408,3.92256 -0.63775,1.81342 -2.17547,2.22172 -6.48717,1.7225 l -3.77546,-0.43713 -1.77874,2.05719 c -3.97374,4.59584 -6.89183,6.90566 -10.70755,8.47559 -3.01537,1.24063 -9.05297,1.28711 -12.89869,0.0993 -1.46225,-0.45164 -2.76133,-0.71847 -2.88684,-0.59297 -0.32282,0.32282 0.53269,4.70956 1.71233,8.78027 0.55088,1.90096 0.94662,3.62122 0.87943,3.82279 -0.0672,0.20157 -0.96625,-0.27801 -1.99792,-1.06575 z m 16.57053,-58.67896 c -1.30909,-0.29482 -3.18347,-0.80498 -4.16529,-1.13368 -0.98182,-0.328708 -2.58843,-0.814488 -3.57025,-1.079528 -0.98182,-0.26503 -2.14215,-0.67899 -2.57851,-0.91991 -0.43636,-0.240916 -1.32893,-0.720924 -1.98347,-1.066687 -1.97239,-1.041909 -4.28434,-2.875525 -6.04082,-4.790995 -1.30465,-1.422736 -1.74143,-2.273315 -2.03706,-3.966942 -0.20698,-1.185739 -0.84872,-3.277051 -1.42609,-4.647368 -3.24875,-7.71043 -3.67374,-25.033182 -0.85372,-34.797775 2.47722,-8.577656 8.35972,-17.582399 14.42785,-22.085719 7.81537,-5.799996 24.91168,-10.641554 37.57702,-10.641554 6.69475,0 8.99561,0.752687 14.53395,4.754537 3.54278,2.559908 4.98529,3.849256 9.77054,8.733066 3.14471,3.209478 4.99869,5.485426 10.34067,12.694215 1.2819,1.729869 4.33887,7.632762 5.44413,10.512397 2.23585,5.825264 4.50848,16.046988 4.52889,20.3698 0.0196,4.148482 -0.5999,5.558971 -3.1642,7.204479 -1.05391,0.676296 -2.14186,1.501515 -2.41765,1.833826 -0.87813,1.058083 -4.34731,2.579889 -6.04848,2.653258 l -1.64329,0.07087 0.12646,-4.760331 c 0.14284,-5.376753 -0.66588,-10.358725 -1.82176,-11.222574 -0.37668,-0.28151 -1.09788,-0.870367 -1.60266,-1.308575 l -0.9178,-0.796741 0.80224,-1.269941 c 1.10311,-1.74622 3.21517,-6.100146 3.21517,-6.627931 0,-0.237819 0.35703,-1.171355 0.79339,-2.074525 1.38677,-2.870285 1.3207,-3.138763 -2.88111,-11.706815 -1.09641,-2.235725 -2.25434,-4.281457 -2.57319,-4.546076 -1.22362,-1.015514 -9.49524,2.83538 -11.18372,5.206635 -0.44909,0.630688 -0.81652,1.321841 -0.81652,1.535897 0,0.219646 1.25289,0.384563 2.87603,0.378569 3.3866,-0.0125 5.09798,0.613119 7.42293,2.713579 1.82521,1.648959 2.79505,3.338246 3.58096,6.237334 0.65289,2.408379 0.0776,5.328695 -1.55779,7.907386 -3.35483,5.29002 -10.41957,6.626916 -15.30959,2.897109 -1.1738,-0.895295 -1.30057,-0.91488 -1.91899,-0.296461 -0.46155,0.461549 -0.82206,0.544014 -1.18995,0.272191 -0.29028,-0.214484 -1.63968,-1.277351 -2.99867,-2.361925 -2.67895,-2.138007 -4.95527,-3.478072 -8.35948,-4.92121 -1.2,-0.508713 -2.71736,-1.15459 -3.37191,-1.435283 -2.83004,-1.213623 -4.56198,-1.756253 -4.56198,-1.429301 0,0.19334 0.56339,0.950574 1.25198,1.682737 3.103,3.299369 4.03073,8.171647 2.31527,12.159348 -1.63462,3.799787 -6.04073,6.824755 -9.9408,6.824755 -4.01399,0 -8.75671,-3.525259 -10.07256,-7.486925 -0.95102,-2.863251 -0.70617,-6.444369 0.61643,-9.015657 1.07688,-2.09359 3.98673,-4.593192 6.02884,-5.178859 0.66536,-0.190826 1.28325,-0.567424 1.37307,-0.83689 0.12256,-0.367696 -1.05738,-0.514675 -4.72925,-0.589107 -5.84527,-0.118485 -11.18361,0.0024 -12.84137,0.290642 -2.68215,0.466457 -3.65636,5.42611 -2.08308,10.604819 0.75352,2.480318 1.34153,3.526877 3.1007,5.518774 2.65143,3.002174 7.0384,6.306307 9.70804,7.311792 1.95479,0.736249 2.70415,0.764585 11.30579,0.427549 1.64912,-0.06462 1.65904,0.04738 0.41104,4.642529 l -0.84468,3.11015 1.48204,1.848527 c 0.81513,1.016688 2.23898,2.67539 3.16413,3.686004 2.11565,2.311093 2.91546,4.816018 1.89705,5.941343 -0.37729,0.41691 -1.50464,1.00754 -2.50522,1.31252 -1.00058,0.30497 -2.49119,0.842178 -3.31246,1.193798 -2.09306,0.8961 -11.53676,1.19329 -14.77124,0.46485 z m 26.46844,-15.532815 c -1.29508,-0.907105 -1.07834,-1.675565 0.60595,-2.148429 4.54028,-1.274685 9.35804,-2.314397 9.84984,-2.125674 1.61644,0.620287 -0.45127,3.254964 -3.35989,4.281184 -2.26672,0.799747 -5.94924,0.79607 -7.0959,-0.0071 z m 50.14296,-3.958727 c -0.13682,-0.356548 -0.36022,-1.596611 -0.49645,-2.755704 -0.2279,-1.939077 -0.1724,-2.146663 0.69472,-2.598525 0.51832,-0.270101 4.15562,-2.843096 8.0829,-5.717768 3.92727,-2.874673 8.07819,-5.900767 9.22427,-6.724654 1.14608,-0.823886 2.16343,-1.884047 2.2608,-2.355919 0.0974,-0.471872 0.35377,-3.231316 0.56981,-6.132099 0.40405,-5.425155 1.07133,-7.698093 2.51812,-8.577303 1.59789,-0.971036 3.07087,2.66811 3.07759,7.603522 0.002,1.484743 0.10882,1.685351 0.89486,1.680924 0.49091,-0.0028 1.94417,-0.538298 3.22946,-1.190083 2.75711,-1.398152 3.07043,-1.430118 3.99574,-0.407651 1.00998,1.116004 0.55984,2.33282 -1.76453,4.769895 -1.09427,1.147335 -1.98959,2.413099 -1.98959,2.812804 0,0.472301 0.59027,0.990605 1.68595,1.480408 2.16048,0.965799 3.93924,2.754811 3.78672,3.808558 -0.27786,1.919726 -3.54954,2.300211 -8.4836,0.986618 -1.72581,-0.459459 -3.50059,-0.919117 -3.94395,-1.021456 -0.50041,-0.115505 -1.51024,0.314138 -2.66279,1.132907 -10.69022,7.594314 -19.44088,13.63855 -19.88534,13.735145 -0.30026,0.06526 -0.65787,-0.17307 -0.79469,-0.529619 z"
         style="fill:#ffffff;fill-opacity:1;stroke-width:0.39669421" />
      <path
         inkscape:connector-curvature="0"
         id="path16444"
         d="m 167.02157,159.97945 c -1.03167,-0.78773 -1.87575,-1.56424 -1.87575,-1.72558 0,-0.16134 -1.65124,-1.46639 -3.66942,-2.90011 -4.01207,-2.85019 -9.12134,-5.49748 -10.61013,-5.49748 -0.97148,0 -4.61599,-0.63425 -7.22573,-1.25749 -1.11881,-0.26718 -2.00519,-0.97982 -3.69249,-2.96871 -1.22115,-1.43943 -2.62428,-3.44268 -3.11807,-4.45167 -1.58962,-3.24819 -4.68618,-7.67728 -6.73117,-9.62779 -2.08204,-1.98585 -3.96848,-2.62491 -6.60582,-2.23783 -0.65458,0.0961 -1.19015,0.009 -1.19015,-0.1944 0,-1.22708 8.25891,-9.50971 10.49901,-10.52917 0.44373,-0.20194 1.86551,-0.85755 3.15951,-1.45691 1.294,-0.59936 3.45566,-1.22653 4.80368,-1.39371 6.10402,-0.757 14.43512,-6.6261 20.78348,-14.64156 0.92919,-1.173188 1.56529,-1.627598 2.15969,-1.542788 0.82042,0.11705 0.84541,0.31656 0.95061,7.588768 l 0.10804,7.46856 -2.59209,2.7997 c -4.56859,4.9345 -6.45602,10.10444 -6.01861,16.48582 0.38226,5.57679 2.77812,9.44313 7.99533,12.90252 1.91458,1.26951 1.91876,1.27714 2.62229,4.79155 0.38756,1.93601 1.08216,4.76286 1.54355,6.2819 0.4614,1.51904 0.78065,2.93666 0.70945,3.15026 -0.0712,0.2136 -0.97355,-0.25614 -2.00521,-1.04388 z m -3.95568,-23.5116 c -1.20769,-2.69231 -1.1805,-6.74132 0.064,-9.53273 0.51365,-1.1521 1.03984,-1.98878 1.16932,-1.85931 0.29974,0.29975 0.81476,12.10429 0.55736,12.77506 -0.3638,0.94805 -0.94717,0.49748 -1.79071,-1.38302 z m 20.52621,-35.16736 c -1.30909,-0.29482 -3.18347,-0.80498 -4.16529,-1.13368 -0.98182,-0.328708 -2.58843,-0.814488 -3.57025,-1.079528 -0.98182,-0.26503 -2.14215,-0.67899 -2.57851,-0.91991 -0.43636,-0.240916 -1.32893,-0.720924 -1.98347,-1.066687 -3.85079,-2.034176 -7.57164,-5.902584 -7.92609,-8.240426 -0.22875,-1.508739 -0.39617,-2.034418 -1.98857,-6.243645 -1.40918,-3.724903 -2.2874,-10.938542 -2.26988,-18.644629 0.0185,-8.133477 0.81025,-12.877971 3.19616,-19.152452 2.48043,-6.523045 8.18696,-14.392323 13.05854,-18.007647 7.81537,-5.799996 24.91168,-10.641554 37.57702,-10.641554 6.69475,0 8.99561,0.752687 14.53395,4.754537 3.54278,2.559908 4.98529,3.849256 9.77054,8.733066 3.14471,3.209478 4.99869,5.485426 10.34067,12.694215 1.2819,1.729869 4.33887,7.632762 5.44413,10.512397 2.23585,5.825264 4.50848,16.046988 4.52889,20.3698 0.0196,4.148482 -0.5999,5.558971 -3.1642,7.204479 -1.05391,0.676296 -2.14186,1.501515 -2.41765,1.833826 -0.87813,1.058083 -4.34731,2.579889 -6.04848,2.653258 l -1.64329,0.07087 0.12646,-4.760331 c 0.14284,-5.376753 -0.66588,-10.358725 -1.82176,-11.222574 -0.37668,-0.28151 -1.09788,-0.870367 -1.60266,-1.308575 l -0.9178,-0.796741 0.80224,-1.269941 c 1.10311,-1.74622 3.21517,-6.100146 3.21517,-6.627931 0,-0.237819 0.35703,-1.171355 0.79339,-2.074525 1.38677,-2.870285 1.3207,-3.138763 -2.88111,-11.706815 -1.09641,-2.235725 -2.25434,-4.281457 -2.57319,-4.546076 -0.46157,-0.383068 -1.09345,-0.301829 -3.10043,0.398614 -4.67566,1.631817 -8.89981,4.671927 -8.89981,6.40516 0,0.247739 -0.33185,1.112743 -0.73745,1.922233 -0.40559,0.80949 -1.13067,3.613948 -1.61128,6.23213 -0.96447,5.25402 -1.99837,10.434295 -2.23847,11.215609 -0.32515,1.058102 -1.42209,0.982401 -2.67862,-0.184856 -2.34233,-2.175919 -4.42418,-3.596025 -7.67385,-5.234626 -1.77885,-0.896962 -3.34212,-1.630838 -3.47394,-1.630838 -0.13182,0 -0.9964,-0.335893 -1.9213,-0.746432 -2.59013,-1.149687 -4.08576,-1.68232 -5.10936,-1.819573 -0.51475,-0.06902 -1.71703,-0.41247 -2.67173,-0.763215 -0.95471,-0.35075 -2.59107,-0.637722 -3.63636,-0.637722 -1.0453,0 -1.96004,-0.177223 -2.03277,-0.39383 -0.15659,-0.466362 -15.77861,-0.699543 -17.60907,-0.262842 -2.69567,0.643121 -3.64212,5.50349 -2.07571,10.659571 0.75352,2.480318 1.34153,3.526877 3.1007,5.518774 2.65143,3.002174 7.0384,6.306307 9.70804,7.311792 1.95479,0.736249 2.70415,0.764585 11.30579,0.427549 1.64912,-0.06462 1.65904,0.04738 0.41104,4.642529 l -0.84468,3.11015 1.48204,1.848527 c 0.81513,1.016688 2.23898,2.67539 3.16413,3.686004 2.11565,2.311093 2.91546,4.816018 1.89705,5.941343 -0.37729,0.41691 -1.50464,1.00754 -2.50522,1.31252 -1.00058,0.30497 -2.49119,0.842178 -3.31246,1.193798 -2.09306,0.8961 -11.53676,1.19329 -14.77124,0.46485 z m 10.31405,-30.344378 c -1.39466,-0.606509 -2.27003,-1.943444 -2.47746,-3.78376 -0.1851,-1.642124 -0.0859,-1.906457 1.19732,-3.189652 1.15689,-1.156891 1.68763,-1.399144 3.06526,-1.399144 1.37764,0 1.90837,0.242253 3.06526,1.399144 1.28944,1.289435 1.38305,1.541939 1.19388,3.220245 -0.26132,2.318483 -1.56954,3.70852 -3.70274,3.934322 -0.85147,0.09013 -1.90516,0.0086 -2.34152,-0.181155 z m 33.90716,-9.115116 c -0.62659,-0.626587 -1.257,-1.608405 -1.40092,-2.181819 -0.37863,-1.50856 0.0998,-2.965864 1.40092,-4.266946 1.69334,-1.693341 3.98172,-1.610705 5.80194,0.209506 1.47404,1.474045 1.77089,3.241151 0.87483,5.207778 -1.07222,2.353266 -4.78189,2.926366 -6.67677,1.031481 z"
         style="fill:#6d686b;stroke-width:0.39669421" />
      <path
         inkscape:connector-curvature="0"
         id="path16442"
         d="m 165.65912,157.91486 c -2.32916,-2.27175 -6.27382,-4.98272 -9.89794,-6.80236 -2.54198,-1.27631 -4.11572,-1.75957 -7.33884,-2.25358 -2.25663,-0.34588 -4.59828,-0.82199 -5.20365,-1.05802 -1.15755,-0.4513 -5.84147,-5.94385 -5.84147,-6.84993 0,-1.02934 -5.53662,-8.87844 -7.21792,-10.23263 -1.78726,-1.43952 -3.75991,-2.28355 -5.33714,-2.28355 -0.5129,0 -0.93254,-0.13515 -0.93254,-0.30033 0,-0.16518 0.79251,-1.26646 1.76113,-2.44728 3.96055,-4.82818 10.70952,-8.88892 15.89176,-9.56179 4.58996,-0.59596 11.15609,-4.493 15.63068,-9.2769 1.00313,-1.07246 2.38079,-2.516 3.06147,-3.20785 0.68068,-0.69185 1.54915,-1.73338 1.92992,-2.31452 0.38078,-0.58114 0.93956,-1.05662 1.24174,-1.05662 0.44727,0 0.54942,1.29724 0.54942,6.97736 v 6.97736 l -2.59748,2.84082 c -4.65,5.08565 -6.36912,9.79256 -6.04384,16.54783 0.14352,2.98037 0.40429,4.27727 1.21697,6.0524 1.20336,2.62849 4.39424,6.16449 6.87448,7.618 1.01562,0.5952 1.80382,1.3783 1.90553,1.89321 0.0954,0.48298 0.64443,2.90446 1.22005,5.38105 0.57562,2.4766 0.96388,4.58561 0.8628,4.68668 -0.10107,0.10108 -0.88188,-0.49713 -1.73513,-1.32935 z m -2.42393,-24.22387 c -0.41545,-2.00936 -0.21266,-4.46281 0.36888,-4.46281 0.19341,0 0.35167,1.4281 0.35167,3.17356 0,1.74545 -0.0745,3.17355 -0.16548,3.17355 -0.091,0 -0.34079,-0.84793 -0.55507,-1.8843 z m 21.74534,-35.874446 c -5.91745,-0.620906 -10.55337,-2.00141 -16.19309,-4.822048 -2.87216,-1.436474 -4.8317,-3.407378 -4.8317,-4.859711 0,-0.549822 -0.53873,-2.265659 -1.19717,-3.812973 -2.1202,-4.982392 -2.9569,-10.79887 -2.89881,-20.151479 0.054,-8.69906 0.4287,-11.403964 2.36272,-17.057852 2.56803,-7.507335 7.83264,-15.386057 12.87231,-19.264001 6.65836,-5.123487 19.51128,-9.456583 31.86154,-10.741454 9.36843,-0.974654 14.17528,-0.08072 19.20818,3.572153 11.44424,8.306225 22.96366,22.772778 26.63271,33.446435 1.32413,3.85204 3.6193,13.264563 3.86078,15.833138 0.13148,1.398585 0.0362,2.995192 -0.22619,3.790262 -0.55229,1.673451 -3.72445,4.89802 -4.51861,4.593271 -0.38011,-0.14586 -0.64994,-1.166467 -0.82702,-3.128108 -0.14455,-1.601387 -0.636,-4.828848 -1.0921,-7.172137 l -0.82926,-4.260527 1.28297,-2.2733 c 1.95079,-3.456615 2.11997,-4.362324 0.95716,-5.124226 -0.52942,-0.346886 -1.13775,-1.281243 -1.35185,-2.076353 -0.2141,-0.795111 -1.51924,-3.140946 -2.90032,-5.212967 -1.38107,-2.072021 -3.10879,-4.838384 -3.83936,-6.147475 -2.10909,-3.779195 -4.28632,-6.401077 -6.48893,-7.81412 -1.89865,-1.218051 -2.27708,-1.309847 -5.39986,-1.309847 h -3.35812 l -2.79919,-4.983333 c -3.51111,-6.250756 -4.55835,-7.909229 -4.9943,-7.909229 -0.49496,0 -2.44696,3.030862 -3.44908,5.355372 -1.80592,4.188999 -2.02277,5.649393 -2.28702,15.402172 -0.10539,3.889377 -0.29351,7.236484 -0.41807,7.438017 -0.42539,0.688296 -1.25763,0.366768 -2.99982,-1.158974 -0.95799,-0.838969 -2.18808,-1.75876 -2.73354,-2.043979 -0.54546,-0.285223 -1.43802,-0.85703 -1.98347,-1.270687 -2.59495,-1.967921 -8.89913,-5.838438 -11.91636,-7.316163 -4.78764,-2.344812 -8.77465,-3.37581 -15.35637,-3.97099 -2.88007,-0.260443 -3.09611,0.07583 -1.45521,2.265021 1.27304,1.698424 4.1329,7.291875 4.1329,8.083347 0,0.579551 -0.46862,0.708849 -4.36364,1.204003 -5.79507,0.736697 -8.7016,2.811277 -9.53013,6.802263 -1.59568,7.686379 -1.77377,13.199659 -0.60478,18.723546 0.88523,4.183061 2.05584,6.635977 3.84203,8.050667 1.71287,1.356611 1.6616,1.761331 -0.32846,2.592834 -2.54718,1.064279 -1.58127,1.596618 5.03456,2.774693 5.29687,0.943208 5.41126,1.030846 9.4783,7.261575 1.98694,3.043998 3.61261,5.792509 3.61261,6.10781 0,0.83685 -0.6525,0.933132 -3.96694,0.585354 z m 9.52066,-27.167846 c -1.19863,-0.467817 -2.37409,-1.877312 -2.60875,-3.128136 -0.4139,-2.206266 1.37961,-4.514483 3.52101,-4.53149 3.6524,-0.029 5.50665,4.245132 2.90288,6.69126 -0.93087,0.8745 -2.82428,1.355092 -3.81514,0.968366 z m 33.79653,-9.05253 c -1.40276,-1.18034 -1.77977,-2.728665 -1.07508,-4.415211 1.16788,-2.795147 3.85361,-3.324829 5.99591,-1.182525 1.49933,1.499329 1.70476,2.762554 0.74961,4.609594 -1.13851,2.201637 -3.69818,2.647692 -5.67044,0.988142 z"
         style="fill:#652a41;stroke-width:0.39669421" />
    </g>
    <circle
       r="4.3086071"
       cy="61.808838"
       cx="114.54951"
       id="path16450"
       style="opacity:1;fill:#000000;fill-opacity:1;fill-rule:nonzero;stroke:none;stroke-width:4;stroke-linecap:round;stroke-linejoin:miter;stroke-miterlimit:4;stroke-dasharray:none;stroke-dashoffset:0;stroke-opacity:1" />
    <circle
       style="opacity:1;fill:#000000;fill-opacity:1;fill-rule:nonzero;stroke:none;stroke-width:4;stroke-linecap:round;stroke-linejoin:miter;stroke-miterlimit:4;stroke-dasharray:none;stroke-dashoffset:0;stroke-opacity:1"
       id="circle16452"
       cx="79.783508"
       cy="70.128906"
       r="4.3086071" />
  </g>
</svg>
