<?xml version="1.0" encoding="utf-8"?>
<!-- Generator: Adobe Illustrator 16.0.0, SVG Export Plug-In . SVG Version: 6.00 Build 0)  -->
<!DOCTYPE svg PUBLIC "-//W3C//DTD SVG 1.1//EN" "http://www.w3.org/Graphics/SVG/1.1/DTD/svg11.dtd">
<svg version="1.1" id="Layer_1" xmlns="http://www.w3.org/2000/svg" xmlns:xlink="http://www.w3.org/1999/xlink" x="0px" y="0px"
	 width="7.609px" height="29.416px" viewBox="0 0 7.609 29.416" enable-background="new 0 0 7.609 29.416" xml:space="preserve">
<g>
	<g>
		
			<linearGradient id="SVGID_1_" gradientUnits="userSpaceOnUse" x1="17.2041" y1="689.6934" x2="30.0366" y2="711.92" gradientTransform="matrix(1 0 0 1 -16.7197 -686.0996)">
			<stop  offset="0" style="stop-color:#B5E1DF"/>
			<stop  offset="1" style="stop-color:#00AEEF"/>
		</linearGradient>
		<path fill="url(#SVGID_1_)" d="M6.901,29.416c-0.392,0-0.708-0.316-0.708-0.708v-28C6.193,0.316,6.511,0,6.901,0
			c0.393,0,0.708,0.317,0.708,0.708v28C7.609,29.101,7.293,29.416,6.901,29.416z"/>
	</g>
	<g>
		
			<linearGradient id="SVGID_2_" gradientUnits="userSpaceOnUse" x1="10.7383" y1="689.915" x2="23.2002" y2="711.4998" gradientTransform="matrix(1 0 0 1 -16.7197 -686.0996)">
			<stop  offset="0" style="stop-color:#B5E1DF"/>
			<stop  offset="1" style="stop-color:#00AEEF"/>
		</linearGradient>
		<path fill="url(#SVGID_2_)" d="M0.25,28.958c-0.14,0-0.25-0.111-0.25-0.25V0.507c0-0.138,0.11-0.25,0.25-0.25
			c0.138,0,0.25,0.112,0.25,0.25v28.201C0.5,28.847,0.389,28.958,0.25,28.958z"/>
	</g>
</g>
</svg>
