<?xml version="1.0" encoding="utf-8"?>
<!-- Generator: Adobe Illustrator 16.0.0, SVG Export Plug-In . SVG Version: 6.00 Build 0)  -->
<!DOCTYPE svg PUBLIC "-//W3C//DTD SVG 1.1//EN" "http://www.w3.org/Graphics/SVG/1.1/DTD/svg11.dtd">
<svg version="1.1" id="Layer_1" xmlns="http://www.w3.org/2000/svg" xmlns:xlink="http://www.w3.org/1999/xlink" x="0px" y="0px"
	 width="24.914px" height="29.416px" viewBox="0 0 24.914 29.416" enable-background="new 0 0 24.914 29.416" xml:space="preserve">
<g>
	<g>
		
			<linearGradient id="SVGID_1_" gradientUnits="userSpaceOnUse" x1="22.3213" y1="686.7402" x2="39.4804" y2="716.4608" gradientTransform="matrix(1 0 0 1 -16.7197 -686.0996)">
			<stop  offset="0" style="stop-color:#B5E1DF"/>
			<stop  offset="1" style="stop-color:#00AEEF"/>
		</linearGradient>
		<path fill="url(#SVGID_1_)" d="M24.205,29.416c-0.268,0-0.521-0.15-0.644-0.409l-5.314-11.36
			c-0.082-0.175-0.089-0.375-0.021-0.557c0.069-0.181,0.21-0.323,0.39-0.397c2.965-1.24,4.881-4.118,4.881-7.332
			c0-4.38-3.563-7.944-7.943-7.944H7.609v27.292c0,0.393-0.315,0.708-0.709,0.708c-0.392,0-0.709-0.316-0.709-0.708v-28
			C6.191,0.316,6.509,0,6.9,0h8.652c5.162,0,9.361,4.199,9.361,9.361c0,3.54-1.975,6.733-5.083,8.329l5.016,10.718
			c0.166,0.354,0.014,0.776-0.341,0.942C24.408,29.395,24.306,29.416,24.205,29.416z"/>
	</g>
	<g>
		
			<linearGradient id="SVGID_2_" gradientUnits="userSpaceOnUse" x1="10.7393" y1="689.915" x2="23.2008" y2="711.4988" gradientTransform="matrix(1 0 0 1 -16.7197 -686.0996)">
			<stop  offset="0" style="stop-color:#B5E1DF"/>
			<stop  offset="1" style="stop-color:#00AEEF"/>
		</linearGradient>
		<path fill="url(#SVGID_2_)" d="M0.25,28.957c-0.138,0-0.25-0.111-0.25-0.25V0.506c0-0.138,0.112-0.25,0.25-0.25
			S0.5,0.368,0.5,0.506v28.201C0.5,28.846,0.388,28.957,0.25,28.957z"/>
	</g>
</g>
</svg>
