<?xml version="1.0" encoding="utf-8"?>
<!-- Generator: Adobe Illustrator 16.0.0, SVG Export Plug-In . SVG Version: 6.00 Build 0)  -->
<!DOCTYPE svg PUBLIC "-//W3C//DTD SVG 1.1//EN" "http://www.w3.org/Graphics/SVG/1.1/DTD/svg11.dtd">
<svg version="1.1" id="Layer_1" xmlns="http://www.w3.org/2000/svg" xmlns:xlink="http://www.w3.org/1999/xlink" x="0px" y="0px"
	 width="24.646px" height="29.418px" viewBox="0 0 24.646 29.418" enable-background="new 0 0 24.646 29.418" xml:space="preserve">
<g>
	<g>
		
			<linearGradient id="SVGID_1_" gradientUnits="userSpaceOnUse" x1="22.2666" y1="691.54" x2="37.2945" y2="717.569" gradientTransform="matrix(1 0 0 1 -16.7197 -686.0996)">
			<stop  offset="0" style="stop-color:#B4E0DE"/>
			<stop  offset="1" style="stop-color:#29AAE1"/>
		</linearGradient>
		<path fill="url(#SVGID_1_)" d="M6.634,29.417c-0.068,0-0.14-0.01-0.206-0.03c-0.375-0.114-0.586-0.511-0.474-0.885l8.528-28
			C14.573,0.205,14.847,0.001,15.157,0c0.001,0,0.002,0,0.003,0c0.312,0,0.584,0.201,0.678,0.497l8.775,28
			c0.117,0.374-0.091,0.771-0.464,0.889c-0.369,0.117-0.771-0.092-0.888-0.465L15.17,3.109L7.31,28.915
			C7.219,29.221,6.938,29.417,6.634,29.417z"/>
	</g>
	<g>
		
			<linearGradient id="SVGID_2_" gradientUnits="userSpaceOnUse" x1="16.1895" y1="691.9639" x2="26.4013" y2="709.6515" gradientTransform="matrix(1 0 0 1 -16.7197 -686.0996)">
			<stop  offset="0" style="stop-color:#B4E0DE"/>
			<stop  offset="1" style="stop-color:#29AAE1"/>
		</linearGradient>
		<path fill="url(#SVGID_2_)" d="M0.248,28.958c-0.022,0-0.049-0.003-0.072-0.011c-0.132-0.041-0.205-0.181-0.165-0.313l8.65-28
			C8.702,0.502,8.842,0.429,8.975,0.47C9.106,0.511,9.18,0.65,9.14,0.782l-8.652,28C0.454,28.89,0.356,28.958,0.248,28.958z"/>
	</g>
</g>
</svg>
